<?xml version="1.0" encoding="utf-8"?>
<!-- Generator: Adobe Illustrator 27.2.0, SVG Export Plug-In . SVG Version: 6.00 Build 0)  -->
<svg version="1.1" id="Слой_1" xmlns="http://www.w3.org/2000/svg" xmlns:xlink="http://www.w3.org/1999/xlink" x="0px" y="0px"
	 viewBox="0 0 101 111" style="enable-background:new 0 0 101 111;" xml:space="preserve">
<style type="text/css">
	.st0{fill:#D40000FF;}
</style>
<g>
	<path class="st0" d="M59.2,21.7c7.8,7,15.4,13.9,23.3,20.9C66.3,60.7,50.2,78.6,34,96.8C26.1,89.9,18.4,83.1,10.5,76
		C26.7,58,42.9,39.9,59.2,21.7z"/>
	<path class="st0" d="M91.6,32.5c-7.8-7-15.5-13.9-23.2-20.8c2.3-2.7,4.5-5.4,6.8-7.9c0.9-1,2.1-1.7,3.2-2.5c2-1.3,4.1-1.3,6.1,0
		c1.6,1,3.1,2.2,4.5,3.5c2.9,2.5,5.7,5,8.5,7.6c1.2,1.2,2.4,2.5,3.1,4c1.2,2.3,0.9,4.8-0.7,6.8C97.3,26.3,94.5,29.3,91.6,32.5z"/>
	<path class="st0" d="M8.3,78.2C16.2,85.3,24,92.3,32,99.4c-1.5,0.6-2.8,1.2-4.1,1.7c-7.3,3-14.7,6-22,9c-3.3,1.4-6-0.4-5.5-3.9
		c0.3-2.5,1.2-5,1.9-7.5C4.2,92.1,6.1,85.5,8,78.9C8.1,78.7,8.2,78.6,8.3,78.2z"/>
	<path class="st0" d="M60.7,20.1c2-2.2,4-4.4,6.1-6.9c7.8,6.9,15.5,13.7,23.4,20.8c-2,2.3-4,4.6-6.1,7C76.3,34,68.5,27.1,60.7,20.1z
		"/>
</g>
</svg>
