<svg width="222" height="35" viewBox="0 0 222 35" fill="none" xmlns="http://www.w3.org/2000/svg">
<path d="M0.012207 3.8501L1.97783 4.31677C1.95586 4.80793 2.3513 5.1416 2.46461 5.56277C2.82569 6.88058 3.56754 8.06004 4.59558 8.95078C4.98871 9.30078 5.38414 9.98789 6.15536 9.55739C6.33226 9.45828 6.55196 9.58659 6.74158 9.71259C7.15251 9.99848 7.5825 10.2553 8.02852 10.4814C8.7153 10.8128 9.4761 11.0426 10.1849 10.6798C11.1793 10.1734 11.2984 10.1548 11.9089 11.1464C12.0603 11.3926 12.2615 11.4848 12.487 11.3249C12.9286 11.0076 13.3195 11.1628 13.6328 11.4649C14.2618 12.0716 14.9567 12.4286 15.8494 12.3364C16.046 12.3154 16.2101 12.4531 16.3731 12.5558C16.7432 12.7973 17.112 12.8743 17.4623 12.5138C17.5114 12.4559 17.5763 12.4139 17.6489 12.3932C17.7215 12.3724 17.7987 12.3738 17.8705 12.3971C18.5434 12.5546 19.2152 12.7168 19.8234 13.0539C20.3217 13.3304 20.7716 13.3794 21.2595 13.0224C21.5092 12.8381 21.7647 12.7891 21.8919 13.2371C22.055 13.8204 22.5221 14.0199 23.0655 13.7971C23.2809 13.7124 23.4818 13.5943 23.6609 13.4471C23.9755 13.1788 24.2645 13.2371 24.5455 13.4646C24.8265 13.6921 25.1468 13.7784 25.5052 13.6093C26.2937 13.2371 26.9933 13.6536 27.598 14.0153C28.2027 14.3769 28.8283 14.3174 29.4214 14.5274C29.4776 14.5411 29.5362 14.5414 29.5925 14.5284C29.6489 14.5154 29.7015 14.4896 29.7464 14.4528C30.1938 13.9791 30.6863 14.2194 31.1338 14.3898C31.5605 14.5531 31.9906 14.7713 32.4057 14.8984C33.0994 15.1061 33.9088 15.1784 34.569 15.0396C35.5299 14.8389 36.293 14.8821 37.0966 15.4526C37.4019 15.6684 37.736 16.1584 38.2528 15.8213C38.5398 15.6212 38.8829 15.5193 39.2315 15.5306C39.5802 15.542 39.9159 15.6659 40.1896 15.8843C41.0891 16.5598 41.8708 16.1281 42.6304 15.7373C43.2282 15.4293 43.6341 15.3476 44.1705 15.7373L45.0042 16.3533C45.4054 16.6496 45.8609 16.4699 46.2911 16.4898C46.5755 16.5003 46.5455 16.2179 46.6379 16.0336C46.7675 15.7583 47.0438 15.6964 47.3225 15.7688C47.614 15.8568 47.8879 15.9959 48.1318 16.1794C48.6325 16.5213 49.0788 17.1198 49.8547 16.6123C50.0582 16.4804 50.4813 16.4956 50.8213 16.6123C51.6307 16.8911 52.44 17.2014 53.3107 17.2014C53.6102 17.2014 53.8691 17.3251 54.1478 17.3916C55.363 17.6833 56.5667 17.7416 57.6825 17.0416C58.3508 16.6251 58.7855 16.8188 58.8596 17.5969C58.8734 17.7416 58.8052 17.9388 59.011 17.9866C59.1694 18.0228 59.3001 17.9166 59.4146 17.8046C60.2343 17.0019 60.38 17.0054 61.2449 17.7976C61.6334 18.1476 62.0542 18.3809 62.6069 18.1476C63.118 17.9329 63.7331 17.9143 64.1609 18.1173C64.9599 18.4953 65.7137 18.2934 66.3971 18.0636C67.232 17.7836 67.928 18.0356 68.5767 18.3693C68.8094 18.4999 69.0711 18.5692 69.3375 18.5708C69.6038 18.5725 69.8663 18.5064 70.1006 18.3786C70.888 17.9994 71.4083 18.0473 72.0212 18.6411C72.3173 18.916 72.7001 19.0764 73.1021 19.0941C73.5041 19.1118 73.8992 18.9857 74.218 18.7379C74.6678 18.3879 75.2586 18.3576 75.6298 18.7379C75.9189 19.0354 76.2692 19.2198 76.5964 19.4508C76.9236 19.6818 77.1746 19.6841 77.4509 19.3901C77.7608 19.0704 78.0799 19.0401 78.4464 19.3598C78.7643 19.6398 79.1544 19.8696 79.5873 19.8638C80.6191 19.8498 81.6446 19.6713 82.6819 19.8019C82.8747 19.8039 83.0643 19.7501 83.2278 19.6468C83.9941 19.2338 84.7747 19.2431 85.4328 19.7763C85.9977 20.2348 86.3571 20.1263 86.7735 19.6339C87.0848 19.2606 87.4822 19.3003 87.7681 19.6141C88.0818 19.9641 88.4871 20.1158 88.8631 20.3363C89.2392 20.5568 89.4414 20.4238 89.4952 20.0096C89.5836 19.2991 89.5623 19.3539 90.2433 19.5966C91.1282 19.9116 91.8187 20.7761 92.9358 20.4809C93.3213 20.3794 93.6184 20.2954 93.8016 19.9361C93.917 19.7121 93.9099 19.3528 94.3041 19.4251C94.6249 19.4881 94.8721 19.5849 94.9922 19.9991C95.0625 20.2406 95.2735 20.8823 95.7025 20.5964C96.2997 20.1986 96.897 20.3211 97.4761 20.3876C97.9509 20.4424 98.3293 20.4518 98.6991 20.1169C98.8903 19.9443 99.1952 19.8428 99.3129 20.1834C99.5571 20.8834 100.048 20.7341 100.535 20.5918C100.737 20.5323 100.933 20.3981 101.143 20.4751C101.779 20.7084 102.482 20.5533 103.099 20.8508C103.213 20.9053 103.341 20.9234 103.467 20.9026C103.592 20.8818 103.707 20.823 103.798 20.7341C104.158 20.3654 104.483 20.5194 104.839 20.6746C105.156 20.8123 105.485 20.9558 105.833 20.8893C106.358 20.7901 106.883 20.9021 107.412 20.8543C107.71 20.8274 107.928 20.8368 108.062 20.5533C108.262 20.1251 108.591 20.1636 108.931 20.3199C109.072 20.3841 109.199 20.4739 109.36 20.4576C110.353 20.3596 111.318 20.7026 112.326 20.6023C113.038 20.5311 113.777 20.7703 114.504 20.6828C115.152 20.6046 115.939 20.7154 116.123 19.7728C116.145 19.6643 116.262 19.6619 116.354 19.6479C116.717 19.6001 117.073 19.6573 117.31 19.9349C118.241 21.0199 119.528 20.6349 120.683 20.7866C120.8 20.7825 120.911 20.7337 120.994 20.6501C121.116 20.5362 121.269 20.46 121.432 20.4302C121.596 20.4005 121.765 20.4184 121.919 20.4821C122.577 20.7843 123.306 20.7154 123.964 20.9826C124.528 21.2078 125.152 21.3466 125.669 20.9453C126.045 20.6524 126.363 20.7236 126.643 20.9453C126.898 21.1448 127.072 21.1168 127.309 20.9791C127.742 20.7283 128.171 20.5124 128.713 20.6816C129.06 20.7956 129.428 20.8352 129.791 20.7983C130.947 20.6384 132.103 20.4949 133.269 20.5801C133.553 20.6011 133.759 20.5206 133.77 20.1776C133.782 19.8346 133.962 19.8486 134.186 20.0119C134.339 20.1286 134.506 20.2091 134.609 20.3934C134.789 20.7178 134.942 20.7341 135.161 20.3701C135.623 19.5931 136.237 19.5639 136.73 20.2873C137.015 20.7061 137.322 20.6653 137.561 20.3409C137.908 19.8673 138.228 19.9583 138.56 20.2896C138.95 20.6769 139.38 20.6606 139.831 20.4669C140.611 20.1344 141.352 19.9419 141.933 20.8169C142.01 20.9336 142.173 21.1238 142.307 20.9698C142.824 20.3806 143.348 20.5626 143.906 20.8788C143.982 20.9208 144.131 20.8589 144.234 20.8169C144.929 20.5393 145.491 20.7948 146.036 21.2229C146.614 21.6768 147.123 21.6254 147.655 21.1063C147.753 20.9966 147.888 20.9268 148.034 20.91C148.18 20.8933 148.327 20.9307 148.447 21.0153C148.735 21.2089 148.91 21.0713 149.108 20.9114C149.224 20.8134 149.323 20.6874 149.442 20.5894C150.1 20.0528 150.619 19.9606 150.959 20.3829C151.334 20.8496 151.445 20.7038 151.595 20.2301C151.711 19.8544 152.088 19.7238 152.45 19.6584C152.812 19.5931 152.912 19.8206 152.974 20.1251C153.039 20.4693 153.205 20.2418 153.338 20.1729C153.761 19.9396 154.13 19.8404 154.309 20.4693C154.391 20.7551 154.577 20.9266 154.84 20.6139C155.037 20.3806 155.279 20.3328 155.563 20.3468C155.77 20.3573 155.997 20.3958 156.162 20.2126C156.486 19.8498 156.914 19.8626 157.339 19.8871C157.832 19.9104 158.048 20.2593 157.846 20.7178C157.786 20.8554 157.628 20.9919 157.807 21.1168C157.95 21.2183 158.105 21.0911 158.227 21.0001C158.35 20.9091 158.397 20.7784 158.509 20.7178C158.724 20.6011 158.94 20.0843 159.202 20.7014C159.27 20.8636 159.471 20.8111 159.606 20.7014C159.845 20.5089 160.123 20.5521 160.382 20.6046C160.59 20.6466 160.793 20.7376 161 20.6524C161.392 20.4914 161.715 20.6023 162.003 20.8776C162.057 20.9326 162.122 20.9753 162.194 21.0031C162.265 21.0308 162.342 21.0429 162.419 21.0386C163.145 21.0083 163.949 21.2474 164.438 20.4179C164.477 20.3503 164.65 20.3643 164.762 20.3398C164.778 20.7516 164.706 21.1728 164.877 21.5694C163.108 21.6219 161.339 21.6861 159.569 21.7246C143.024 22.0746 126.478 21.9451 109.936 21.5858C99.9615 21.3699 89.9953 20.8858 80.0329 20.3374C73.1277 19.9536 66.2433 19.3213 59.3637 18.6423C53.7674 18.0904 48.1689 17.5666 42.5795 16.9506C32.6439 15.8574 22.7556 14.4423 13.0084 12.1603C10.6462 11.6073 8.3025 10.9878 5.95533 10.3928C3.4983 9.77909 1.76161 8.28343 0.429613 6.2056C0.313988 6.02593 0.283926 5.75877 0.012207 5.7086V3.8501Z" fill="#333333"/>
<path d="M218.184 11.5093C218.203 11.5044 218.223 11.5047 218.241 11.5103C218.26 11.5158 218.277 11.5263 218.289 11.5408C218.685 11.9211 219.128 11.752 219.561 11.647L219.908 11.6621C219.947 11.9141 220.186 11.8861 220.342 11.9445C220.546 12.0226 220.727 12.0845 220.73 12.3446C220.46 12.8556 220.598 13.1496 221.139 13.2115C221.272 13.2281 221.405 13.2366 221.539 13.2371C221.875 13.2371 221.788 13.5125 221.844 13.6921C221.915 13.9255 221.775 13.9955 221.577 14.0223C221.367 14.0343 221.16 14.0707 220.96 14.1308C220.762 14.209 220.708 14.4178 220.748 14.6196C220.787 14.8215 220.873 15.0361 221.141 15.0338C221.426 15.0338 221.711 15.0151 221.995 15.0046V15.8213C221.736 15.889 221.479 15.9578 221.219 16.0243C220.988 16.085 220.745 16.1561 220.783 16.4571C220.815 16.7091 221.025 16.7651 221.255 16.7791C221.503 16.7943 221.749 16.8363 221.995 16.8666V17.3333C221.08 17.5246 220.165 17.7276 219.244 17.898C218.931 17.9551 218.667 18.052 218.454 18.2993C218.555 17.3193 218.657 16.3393 218.76 15.3593V14.8926V14.3093C218.762 14.2704 218.762 14.2314 218.76 14.1926C218.794 13.908 218.656 13.6828 218.548 13.432C218.271 12.8241 218.046 12.1965 218.184 11.5093ZM219.352 17.4803C219.706 17.2213 219.845 16.806 219.752 16.547C219.449 15.6965 219.797 14.8226 219.564 13.9873C219.394 13.3841 219.458 12.7156 219.044 12.1685C219.312 13.9253 219.413 15.704 219.346 17.4803H219.352Z" fill="#4B4B4B"/>
<path d="M218.753 15.3534C218.652 16.3334 218.549 17.3134 218.447 18.2934C218.147 18.3412 217.722 17.9936 217.592 18.5687L217.361 18.5816C217.196 18.4031 216.981 18.5116 216.789 18.4836C216.535 18.2934 216.358 18.3027 216.318 18.6656L215.754 18.6971C215.761 18.6648 215.761 18.6313 215.754 18.5991C215.696 18.3961 215.994 18.2981 215.904 18.0577C215.649 18.1009 215.532 18.3027 215.39 18.4719C215.158 18.5256 214.95 18.6352 214.707 18.6002C214.395 18.4941 214.055 18.2631 213.891 18.7939L213.429 18.8102C213.183 18.6084 212.897 18.7566 212.633 18.7122C212.609 18.4194 212.387 18.3307 212.162 18.3506C211.962 18.3692 212.087 18.5921 212.047 18.7169C212.047 18.7566 212.047 18.7962 212.047 18.8336H211.122C210.571 18.7169 210.017 18.5221 209.503 18.9362C209.132 18.9771 208.765 19.0016 208.533 18.6166C208.211 18.9666 207.79 18.9747 207.361 18.9572C207.265 18.949 207.169 18.949 207.074 18.9572C206.507 19.0307 205.931 18.9374 205.375 18.9887C203.628 19.1521 201.88 19.3026 200.129 19.4227C199.616 19.4577 199.076 19.4344 198.6 19.5954C198.148 19.7482 198.027 19.6759 197.977 19.1626L197.597 19.6456C196.38 19.9571 195.116 19.7272 193.889 19.9851C193.219 20.1262 192.511 20.1017 191.847 20.2627C191.467 20.3549 191.216 20.4622 191.174 19.9641C190.868 20.0504 190.943 20.4086 190.613 20.4704C189.513 20.6816 188.395 20.5626 187.283 20.7714C186.011 21.0047 184.682 20.9021 183.394 21.0677C182.709 21.1564 182.019 21.1657 181.337 21.2287C180.687 21.2882 179.982 21.5671 179.334 21.1517C179.378 20.9476 179.196 20.6524 179.566 20.5754C179.62 20.8799 179.703 20.9592 180.002 20.7387C180.302 20.5182 180.524 20.1997 180.84 19.9956C180.843 20.0535 180.843 20.1115 180.84 20.1694C180.783 20.6361 180.955 20.8542 181.454 20.8157C181.823 20.7866 181.925 20.5917 181.866 20.2767C181.771 19.7727 181.421 19.8404 181.064 19.9419C180.99 19.9629 180.914 19.9781 180.84 19.9956C180.675 19.2757 181.072 18.8849 181.65 18.5956C181.782 18.6145 181.911 18.6406 182.04 18.6737C183.152 19.0167 183.577 18.8744 184.248 17.8944C184.364 17.7311 184.494 17.7042 184.666 17.6552C185.128 17.5234 185.616 17.7964 186.073 17.5666C186.208 17.4977 186.493 17.6272 186.465 17.3624C186.437 17.0976 186.166 17.0451 185.966 17.1081C185.492 17.2562 185.015 17.1757 184.54 17.2002V16.8502C184.691 16.6717 184.897 16.7522 185.082 16.7336C185.285 16.7149 185.519 16.7907 185.651 16.5539C185.676 16.5118 185.687 16.4627 185.682 16.4139C185.676 16.3651 185.656 16.3192 185.624 16.2832C185.453 16.0966 185.235 16.1211 185.036 16.2039C184.793 16.3031 184.521 16.2972 184.39 16.1152C184.002 15.5739 183.372 15.1936 183.364 14.3886C183.357 13.7761 183.062 13.6757 182.543 14.0386C182.42 14.1318 182.27 14.1804 182.117 14.1762C182.069 13.8052 182.132 13.5334 182.602 13.5836C182.737 13.5976 182.791 13.4832 182.809 13.3596C182.854 13.3655 182.9 13.3583 182.941 13.3388C182.982 13.3194 183.016 13.2886 183.04 13.2499H184.659C184.964 13.2032 185.291 13.3502 185.584 13.1484H187.626L187.791 13.1542C188.427 13.1461 189.063 13.1542 189.697 13.1251C190.092 13.1099 190.459 13.1251 190.737 13.6547C190.826 13.0154 191.2 13.0072 191.602 13.0131C192.444 13.0271 193.285 13.0212 194.128 13.0247L194.135 13.0341C194.218 13.3456 194.493 13.3024 194.639 13.2009C194.955 12.9827 195.288 13.0189 195.629 13.0142L197.059 13.0026C197.079 13.0029 197.097 13.0097 197.112 13.0217C197.127 13.0337 197.138 13.0503 197.143 13.0691C197.228 13.3176 197.391 13.4797 197.721 13.5917C197.54 13.0912 197.784 13.0469 198.15 12.9932C198.59 12.9279 199.027 12.9326 199.463 12.8906C200.491 12.7926 201.529 12.7249 202.552 12.7156C203.346 12.7074 204.195 12.2582 204.972 12.8322C205.009 12.8602 205.113 12.8182 205.175 12.7856C206.208 12.2536 207.28 12.2839 208.369 12.5522C208.379 12.6269 208.379 12.7109 208.476 12.7249C208.495 12.7249 208.543 12.6806 208.54 12.6619C208.525 12.5651 208.441 12.5651 208.366 12.5546C208.384 12.3212 208.511 12.2279 208.738 12.2046C209.267 12.1427 209.792 12.0424 210.323 11.9864C211.079 11.9047 211.826 11.9456 212.588 11.6749C213.282 11.4264 214.091 11.4731 214.849 11.3902L215.056 11.4334C215.091 11.5372 215.111 11.6667 215.253 11.6504C215.282 11.6504 215.289 11.4847 215.305 11.3961C215.351 11.3597 215.387 11.3123 215.409 11.2583C215.432 11.2043 215.442 11.1454 215.436 11.0869L216.117 11.0636C216.203 11.1977 216.34 11.1534 216.464 11.1616C216.9 11.2782 217.343 11.4731 217.735 11.0542C217.934 11.1496 218.096 11.3071 218.198 11.5034C218.066 12.1906 218.291 12.8182 218.555 13.4249C218.663 13.6757 218.8 13.9009 218.767 14.1856C217.99 14.0024 217.129 13.9861 216.702 13.1134C216.677 13.0609 216.565 13.0562 216.5 13.0177C215.959 12.6957 215.402 12.8042 214.806 12.8077C213.895 12.8077 213.065 13.2126 212.159 13.1577C211.812 13.1367 211.741 13.3619 211.948 13.6022C211.833 14.0316 211.573 14.3944 211.359 14.7689C211.082 15.2601 210.633 15.3791 210.13 15.1189C209.927 15.0139 209.7 14.9019 209.566 14.7292C209.147 14.1891 208.663 14.0222 207.979 14.1634C207.17 14.3314 206.315 14.2311 205.508 14.4667C205.367 14.5076 205.105 14.4971 205.161 14.7549C205.209 14.9766 205.371 15.1364 205.624 15.0804C205.809 15.0407 206.003 14.8984 206.055 15.2262C205.483 15.3352 204.901 15.3716 204.321 15.3347C204.456 14.6954 204.387 14.6277 203.751 14.7362C203.559 14.7566 203.365 14.7652 203.173 14.7619C202.235 14.8027 201.292 14.8051 200.361 14.8996C199.817 14.9544 199.374 14.9882 198.92 14.5496C198.533 14.1774 197.959 14.1086 197.4 14.1996C196.59 14.3232 195.769 14.4574 194.948 14.4061C194.387 14.3711 194.165 14.5577 194.26 15.1142C194.045 15.2589 193.824 15.4001 193.798 15.6976L193.567 15.9309C193.322 15.5914 193.857 15.3826 193.704 15.0186C193.507 15.0851 193.33 15.1947 193.139 15.2519C192.619 15.4257 192.619 16.1852 193.242 16.3952C192.714 16.5597 192.4 16.4232 192.096 16.1164C191.791 15.8096 191.518 15.3534 191.055 15.3697C190.593 15.3861 190.109 15.2822 189.635 15.3417C189.213 15.3417 188.785 15.3849 188.363 15.3336C187.382 15.2169 187.046 15.9811 186.619 16.5912C186.293 17.0579 186.919 17.1606 187.036 17.4686C187.043 17.4861 187.054 17.5024 187.061 17.5199C187.363 18.1896 187.892 18.4719 188.608 18.4847C189.224 18.4964 189.822 18.2864 190.438 18.3622C191.062 18.3751 191.698 18.3984 191.951 17.6401C192.197 16.9062 192.686 16.6017 193.444 16.7371C193.597 17.2492 194.221 17.3822 194.369 17.8979C193.951 17.9072 193.941 18.0892 194.193 18.3494C194.264 18.4296 194.353 18.4927 194.451 18.5345C194.549 18.5762 194.655 18.5955 194.762 18.5909C196.034 18.4941 197.306 18.3751 198.583 18.3447C198.738 18.3364 198.889 18.2946 199.026 18.2221C199.162 18.1496 199.282 18.0482 199.377 17.9247C199.48 17.7963 199.613 17.6949 199.763 17.6292C199.913 17.5633 200.077 17.5351 200.241 17.5467C201.295 17.5852 202.339 17.4487 203.387 17.3589C203.935 17.3122 204.571 17.1571 204.988 17.7941C205.122 17.9971 205.427 17.9107 205.647 17.8909C206.805 17.7474 207.97 17.6715 209.137 17.6634C209.327 17.67 209.515 17.6272 209.684 17.5392C209.853 17.4511 209.996 17.3207 210.101 17.1606C210.434 16.7021 210.428 15.9717 211.142 15.8061H211.25C211.232 16.2622 211.613 16.5749 211.684 16.9809C211.759 17.4102 211.993 17.4826 212.332 17.4242C213.386 17.2565 214.453 17.1836 215.519 17.2061C215.873 17.2061 216.213 17.1676 216.51 16.9727C216.807 16.7779 217.009 16.8269 217.175 17.1326C217.355 17.4651 217.662 17.4966 217.975 17.4032C218.081 17.3794 218.173 17.3148 218.232 17.2233C218.292 17.1318 218.314 17.0206 218.293 16.9132C218.234 16.5492 217.992 16.4022 217.64 16.3871C217.508 16.3871 217.265 16.4489 217.328 16.1911C217.415 15.8504 217.451 15.4187 217.977 15.4642C218.238 15.4957 218.492 15.4129 218.753 15.3534Z" fill="#303030"/>
<path d="M165.228 14.2065C165.573 14.1557 165.923 14.1522 166.268 14.196C166.298 14.3302 166.201 14.5017 166.408 14.6055C166.536 14.4888 166.488 14.3313 166.5 14.1925L168.805 14.0688H169.738C169.706 16.4687 169.81 18.8697 169.645 21.2672C169.638 21.3103 169.63 21.3523 169.623 21.3955L169.392 21.4877L169.027 21.5192L166.385 21.5052C166.307 21.3885 166.23 21.3885 166.154 21.5052L165.123 21.553L165.113 17.556L165.228 14.2065Z" fill="#242424"/>
<path d="M179.334 21.1564C179.982 21.5717 180.688 21.2929 181.337 21.2334C182.02 21.1704 182.709 21.1611 183.394 21.0724C184.682 20.9067 186.013 21.0141 187.283 20.7761C188.395 20.5672 189.513 20.6862 190.613 20.4751C190.94 20.4132 190.868 20.0551 191.174 19.9687C191.216 20.4669 191.467 20.3596 191.848 20.2674C192.511 20.1052 193.219 20.1309 193.889 19.9897C195.116 19.7319 196.38 19.9617 197.597 19.6502V19.7669C197.491 19.9687 197.3 19.9886 197.104 20.0002C196.246 20.0224 195.383 20.1006 194.536 20.1647C193.782 20.2231 193 20.4447 192.223 20.4949C191.067 20.5684 189.94 20.8146 188.792 20.9044C185.917 21.1284 183.043 21.3512 180.172 21.6114C179.516 21.6709 178.967 21.2287 178.288 21.3664C177.655 21.4947 176.932 21.3057 176.345 21.5204C175.049 21.9941 173.722 21.9054 172.402 21.9871C172.117 22.0069 172.13 22.2052 172.105 22.3942L171.875 24.1746C171.718 24.2166 171.643 24.2819 171.812 24.4079C171.834 24.5727 171.792 24.7398 171.696 24.8746C171.295 24.9364 171.013 25.3972 170.54 25.2246C170.814 24.0031 170.958 22.7554 170.969 21.5029C170.953 17.8221 171.297 14.1237 170.545 10.4709C170.862 10.4126 171.079 9.9681 171.478 10.2282C171.638 10.2982 171.555 10.4476 171.584 10.5607C171.584 10.8349 171.611 11.0997 171.85 11.2852C171.956 11.4427 171.88 11.6702 172.049 11.8044C172.133 12.4396 172.169 13.0805 172.157 13.7212C172.204 13.847 172.236 13.9783 172.252 14.1121C172.225 16.4594 172.383 18.8114 172.167 21.1564C172.129 21.5589 172.183 21.7747 172.659 21.7467C173.422 21.7001 174.178 21.5811 174.948 21.6149C175.649 21.6452 175.715 21.5496 175.741 20.8134C175.894 20.8134 176.059 20.8052 176.076 21.0164C176.096 21.2497 176.244 21.2801 176.423 21.2719C177.395 21.1167 178.364 21.1774 179.334 21.1564Z" fill="#404040"/>
<path d="M170.547 10.4753C171.299 14.1281 170.955 17.8253 170.972 21.5073C170.96 22.7598 170.817 24.0075 170.543 25.229C170.475 25.285 170.421 25.3546 170.383 25.4332C170.344 25.5117 170.323 25.5976 170.319 25.6851C170.147 25.873 170.277 26.0666 170.307 26.2591C169.93 26.1168 169.767 25.7925 169.646 25.4425C169.204 24.1743 169.068 22.8536 169.016 21.5213L169.38 21.491C169.611 21.9775 169.082 22.6051 169.657 23.0415C169.782 22.6005 169.782 22.6005 170.185 22.6728C170.229 22.8431 170.11 23.0543 170.424 23.2818V22.2015C170.33 21.7407 170.317 21.2668 170.386 20.8015C170.434 20.3546 170.618 19.8296 170.231 19.4085C170.374 17.837 170.253 16.2678 170.191 14.6986C170.17 14.1935 170.069 13.714 169.713 13.2986L169.829 14.0605C169.797 14.0614 169.765 14.0641 169.734 14.0686H168.801C168.874 12.8553 168.917 11.6385 169.253 10.4578C169.441 9.78932 169.957 9.29113 170.499 9.26782C170.554 9.27533 170.607 9.29318 170.656 9.32032C170.468 9.69132 170.224 10.0576 170.547 10.4753ZM170.331 12.4295C170.136 12.8121 170.172 13.1796 170.243 13.679C170.648 13.1703 170.431 12.7958 170.336 12.4295H170.331ZM169.948 25.0295C170.035 24.8567 170.08 24.6649 170.076 24.471C170.072 24.2769 170.021 24.0869 169.927 23.9176C169.813 24.2804 169.822 24.6712 169.952 25.0283L169.948 25.0295ZM169.813 11.2978C169.982 10.9291 170.044 10.5686 169.768 10.1101C169.712 10.5838 169.711 10.942 169.817 11.2966L169.813 11.2978ZM169.271 12.4306C169.288 12.8903 169.156 13.2356 169.452 13.6836C169.497 13.2111 169.581 12.8856 169.275 12.4295L169.271 12.4306Z" fill="#6F6F6F"/>
<path d="M197.596 19.7729V19.6562L197.976 19.1732C198.026 19.6865 198.146 19.7565 198.598 19.606C199.075 19.445 199.615 19.4684 200.129 19.4334C201.879 19.3167 203.627 19.1627 205.375 18.9994C205.929 18.948 206.507 19.0414 207.073 18.9679C207.168 18.9597 207.264 18.9597 207.36 18.9679C207.789 18.9854 208.211 18.9784 208.532 18.6272C208.763 19.0122 209.131 18.9877 209.502 18.9469C209.502 18.9877 209.502 19.0285 209.502 19.0694C208.136 19.06 206.782 19.263 205.418 19.3202C204.417 19.361 203.41 19.494 202.402 19.5675C201.084 19.6644 199.763 19.7519 198.445 19.8639C198.149 19.879 197.877 19.809 197.596 19.7729Z" fill="#575757"/>
<path d="M165.106 17.5641L165.116 21.5599L164.871 21.5763C164.702 21.1796 164.774 20.7596 164.756 20.3466C164.756 20.1541 164.756 19.9604 164.756 19.7633C164.794 19.0283 164.833 18.2929 164.871 17.5571L165.106 17.5641Z" fill="#404040"/>
<path d="M170.316 26.2593C170.286 26.0668 170.155 25.8731 170.327 25.6853C170.905 26.0189 171.262 25.7903 171.484 25.2186C171.504 25.1661 171.606 25.1463 171.669 25.1101C171.564 25.5826 171.359 26.0061 170.953 26.2768C170.856 26.3372 170.745 26.3677 170.632 26.3646C170.518 26.3615 170.408 26.3249 170.316 26.2593Z" fill="#5A5A5A"/>
<path d="M171.672 25.1104C171.608 25.1466 171.507 25.1664 171.486 25.2189C171.254 25.7906 170.908 26.0192 170.329 25.6856C170.333 25.598 170.355 25.5121 170.393 25.4336C170.431 25.355 170.486 25.2855 170.553 25.2294C171.025 25.4044 171.307 24.9436 171.709 24.8794L171.672 25.1104Z" fill="#4B4B4B"/>
<path d="M209.5 19.0598C209.5 19.019 209.5 18.9782 209.5 18.9373C210.018 18.5232 210.573 18.7145 211.119 18.8347C211.119 18.8825 211.113 18.9315 211.11 18.9793C210.58 19.0902 210.04 19.0738 209.5 19.0598Z" fill="#4B4B4B"/>
<path d="M212.634 18.7155C212.898 18.7598 213.185 18.6116 213.43 18.8135C212.967 18.9441 212.511 18.8811 212.049 18.8391C212.049 18.7995 212.049 18.7598 212.049 18.7225L212.634 18.7155Z" fill="#575757"/>
<path d="M213.889 18.7973C214.052 18.2665 214.393 18.4975 214.706 18.6037C214.706 18.6597 214.706 18.7203 214.699 18.7716C214.434 18.8373 214.158 18.8461 213.889 18.7973Z" fill="#4B4B4B"/>
<path d="M217.59 18.5721C217.72 17.997 218.145 18.3446 218.445 18.2968C218.266 18.7215 217.904 18.5756 217.59 18.5721Z" fill="#4B4B4B"/>
<path d="M211.114 18.9793C211.114 18.9315 211.114 18.8825 211.122 18.8347H212.047C211.77 19.11 211.434 18.9933 211.114 18.9793Z" fill="#575757"/>
<path d="M214.699 18.7716C214.699 18.7156 214.699 18.655 214.706 18.6036C214.948 18.6386 215.162 18.529 215.387 18.4753L215.752 18.6025C215.76 18.6347 215.76 18.6683 215.752 18.7005L214.699 18.7716Z" fill="#575757"/>
<path d="M216.316 18.6668C216.356 18.3039 216.533 18.2946 216.787 18.4848L216.779 18.6306C216.634 18.6988 216.47 18.7116 216.316 18.6668Z" fill="#4B4B4B"/>
<path d="M216.779 18.6328L216.787 18.487C216.979 18.515 217.193 18.4065 217.359 18.585C217.177 18.6669 216.972 18.6838 216.779 18.6328Z" fill="#575757"/>
<path d="M166.153 21.5121C166.228 21.3954 166.306 21.3954 166.385 21.5121C166.351 21.5361 166.31 21.549 166.269 21.549C166.227 21.549 166.187 21.5361 166.153 21.5121Z" fill="#404040"/>
<path d="M171.819 24.4171C171.649 24.2876 171.725 24.2223 171.882 24.1838C171.895 24.2246 171.896 24.2684 171.885 24.3098C171.874 24.3512 171.851 24.3885 171.819 24.4171Z" fill="#4B4B4B"/>
<path d="M164.881 17.5617C164.841 18.2983 164.803 19.0337 164.766 19.7679C164.568 19.7621 164.462 19.9137 164.329 20.0222C164.195 20.1307 164.075 20.1529 163.976 20.0106C163.409 19.2032 162.649 19.5136 161.943 19.6897C161.611 19.7726 161.365 19.7049 161.067 19.5964C160.408 19.3572 159.705 19.1402 159.029 19.4727C158.615 19.6781 158.383 19.5894 158.088 19.2872C157.453 18.6269 156.561 18.6409 155.784 18.7039C155.305 18.7628 154.824 18.792 154.342 18.7914C153.642 18.7689 152.945 18.8879 152.292 19.1414C151.312 19.4996 150.363 19.8601 149.299 19.5451C149.079 19.4797 148.867 19.5696 148.663 19.7282C148.2 20.0852 147.69 20.2719 147.112 19.9616C146.8 19.7959 146.517 19.8986 146.247 20.0782C146.077 20.1949 145.931 20.3232 145.679 20.2812C144.639 20.1086 143.621 19.5696 142.518 19.9779C142.481 19.989 142.443 19.9923 142.405 19.9877C142.366 19.9831 142.33 19.9706 142.296 19.9511C141.553 19.4587 140.772 19.4121 139.952 19.7282C139.841 19.7642 139.722 19.771 139.607 19.7481C139.493 19.7253 139.385 19.6735 139.296 19.5976C138.706 19.1239 138.069 19.2896 137.431 19.3747C137.221 19.4039 136.949 19.4914 136.865 19.2581C136.75 18.9244 137.096 19.0096 137.258 18.9244C137.46 18.8217 137.704 18.6911 137.66 18.4227C137.622 18.1672 137.401 18.0517 137.152 18.0272C136.997 18.0121 136.84 18.0202 136.724 17.8931C136.233 17.3611 135.639 17.4952 135.071 17.6772C134.713 17.7967 134.33 17.8168 133.962 17.7356C132.978 17.4941 131.986 17.5897 131 17.5722C130.64 17.5664 130.134 17.5361 130.182 18.1754C130.189 18.2582 130.117 18.3446 130.04 18.3142C129.672 18.1731 129.269 18.3562 128.909 18.1672C128.236 17.8172 127.569 17.7006 126.924 18.2291C126.77 18.3562 126.681 18.3796 126.608 18.1357C126.493 17.7566 125.733 17.3809 125.257 17.4439C124.747 17.5127 124.794 17.9234 124.751 18.2839C124.736 18.3342 124.712 18.3813 124.679 18.4227C124.48 18.3959 124.42 18.0809 124.253 18.1591C123.601 18.4636 123.02 18.0202 122.403 18.0272C122.269 18.0365 122.139 18.0709 122.018 18.1287C121.881 18.1919 121.727 18.2095 121.579 18.1789C121.018 18.0486 120.431 18.085 119.889 18.2839C119.334 18.4962 118.681 18.4006 118.109 18.2209C117.637 18.0727 117.659 18.0051 117.537 18.5102C117.537 18.5231 117.473 18.5207 117.438 18.5254C117.254 17.7776 117.253 17.7752 116.529 18.0832C116.458 18.1122 116.382 18.1265 116.305 18.1256C116.229 18.1246 116.153 18.1082 116.083 18.0774C115.977 18.0316 115.861 18.015 115.746 18.0291C115.632 18.0432 115.524 18.0877 115.432 18.1579C115.036 18.4426 114.603 18.3539 114.328 17.9444C114.226 17.7904 114.087 17.7414 113.94 17.6562C113.327 17.3004 112.9 17.5571 112.411 17.9339C112.102 18.1742 112.052 18.3796 112.169 18.7144C112.217 18.8521 112.502 19.0562 112.26 19.1274C111.995 19.2056 111.557 19.4086 111.391 19.1111C111.125 18.6386 110.813 18.8089 110.605 19.0061C110.212 19.3852 109.85 19.2896 109.448 19.0971C109.241 18.9941 109.014 18.9383 108.782 18.9337C108.551 18.9291 108.322 18.9757 108.111 19.0702C107.949 19.1367 107.792 19.2347 107.63 19.0924C107.363 18.8591 107.051 18.8136 106.705 18.8311C106.573 18.8381 106.408 18.8416 106.4 18.6537C106.392 18.5748 106.41 18.4951 106.452 18.428C106.494 18.3607 106.558 18.3099 106.632 18.2839C106.755 18.2419 106.902 18.2839 107.032 18.2501C107.635 18.1147 108.292 18.3154 108.86 17.9444C109.034 17.8277 109.174 17.7239 109.142 17.4906C109.109 17.2572 108.894 17.1744 108.718 17.1709C107.428 17.1487 106.148 16.7474 104.859 16.9982C104.334 17.1032 103.788 17.0442 103.297 16.8291C103.173 16.7794 103.041 16.7517 102.908 16.7474C102.045 16.7194 101.185 16.7206 100.319 16.6482C98.8966 16.5316 97.4611 16.5047 96.0319 16.5246C94.8082 16.5421 93.5883 16.4079 92.3622 16.4802C92.0825 16.5106 91.7997 16.5106 91.5192 16.4802C90.5143 16.3192 89.5007 16.3939 88.4902 16.3927C88.2762 16.3927 88.0146 16.3869 88.0273 16.6844C88.0368 16.9177 88.2785 16.9434 88.4689 16.9702C89.3016 17.0869 90.1272 17.2514 90.9567 17.3867C92.2018 17.5921 93.4548 17.7227 94.7023 17.9047C94.9338 17.9374 95.3248 17.7577 95.2545 18.2431C95.1905 18.6841 94.8311 18.6141 94.5277 18.5931C94.3176 18.5756 94.1927 18.4052 94.0805 18.2524C93.8167 17.8942 93.6563 17.9864 93.5473 18.3574C93.439 18.7284 93.0851 18.9664 92.826 18.9116C92.235 18.7867 91.6409 19.0166 91.0745 18.8287C90.3397 18.5837 89.6137 18.4286 88.8323 18.5954C88.5061 18.6642 88.1482 18.6747 87.9072 18.3037C87.8045 18.1439 87.5928 18.1544 87.3802 18.2057C86.8612 18.3306 86.2165 18.0342 86.0459 17.5501C85.9163 17.1837 85.6991 17.1837 85.4178 17.2479C85.2661 17.2829 85.1255 17.3552 84.9762 17.2607C84.4792 16.9446 83.9191 17.4404 83.3993 17.1301C83.2721 17.0542 83.043 17.2981 83.0406 17.5057C83.0303 18.2536 82.8502 18.7202 81.9835 18.2746C81.9187 18.2419 81.8026 18.3154 81.7086 18.3341C81.4771 18.3784 81.2725 18.3096 81.0529 18.2792C80.5441 18.2069 80.0298 17.8417 79.4933 18.2232C79.0793 18.5172 78.6493 18.4717 78.2133 18.2349C78.0749 18.169 77.9221 18.1398 77.7693 18.1497C77.4907 18.1579 77.2826 18.0704 77.1438 17.8231C76.938 17.4544 76.7703 17.5746 76.6305 17.8732C76.509 18.1334 76.3275 18.2326 76.0812 18.0587C75.6188 17.7274 75.0788 17.7087 74.5434 17.6784C74.3746 17.6691 74.1965 17.7099 74.1179 17.4789C74.0335 17.2129 73.8543 17.2199 73.6115 17.2794C73.342 17.3459 72.9374 17.4614 72.8021 17.3319C72.5038 17.0554 72.291 17.1511 71.9765 17.2246C71.662 17.2981 71.188 17.3774 71.3325 16.7381C71.3491 16.6805 71.3431 16.6187 71.3157 16.5655C71.2884 16.5123 71.2418 16.4718 71.1856 16.4522C70.781 16.3029 70.3682 16.2119 69.9751 16.4756C69.8086 16.5922 69.6536 16.7369 69.8883 16.9341C70.1959 17.1919 69.9104 17.2724 69.7531 17.2957C69.0732 17.3961 68.4118 17.5851 67.6926 17.3902C67.2787 17.2794 66.7919 17.0671 66.349 17.3027C65.779 17.6049 65.1824 17.4731 64.5962 17.4789C63.8666 17.4859 63.1833 17.1464 62.4617 17.1172C62.0238 17.0965 61.5985 16.9623 61.2269 16.7276C60.7208 16.4231 60.1598 16.2229 59.5764 16.1388C58.9931 16.0547 58.3991 16.0882 57.8287 16.2376C57.4483 16.3286 57.143 16.5876 56.7811 16.6179C55.1519 16.7626 53.5621 16.5222 51.9711 16.1571C51.1016 15.9564 50.2367 15.7102 49.3464 15.6041C48.9406 15.5562 48.5093 15.5551 48.1809 15.3404C47.4224 14.8469 46.5864 15.1071 45.7967 14.9694C45.229 14.8737 44.6983 15.1677 44.1063 14.9157C42.7523 14.3406 41.3313 14.5482 39.9276 14.7757C39.1321 14.9052 38.3228 15.1094 37.5712 14.7349C36.8196 14.3604 36.0357 14.3032 35.2216 14.3021C34.0157 14.3021 32.7935 14.3359 31.6373 13.9521C30.6926 13.6429 29.719 13.5041 28.7467 13.3489C27.9373 13.2206 27.099 13.3069 26.3104 13.1996C25.1415 13.0397 23.9378 12.8589 22.8417 12.3257C22.3167 12.0691 21.7906 12.0702 21.2229 12.1647C20.6726 12.2557 20.1523 12.5252 19.5394 12.3432C18.3832 11.9932 17.2685 11.3271 15.9805 11.7389C15.9169 11.7599 15.8325 11.6969 15.7574 11.6969C15.0994 11.6969 14.5456 11.4449 14.023 11.0622C13.2321 10.4949 12.3799 10.0202 11.4827 9.64714C11.0491 9.46394 10.5404 9.20375 10.1288 9.57594C9.65932 10.0006 9.19335 9.92594 8.68457 9.79064C7.59191 9.49075 6.65419 8.78614 5.54072 8.55275C4.5371 8.3416 3.93816 7.68243 3.56816 6.79227C3.30916 6.16927 3.06172 5.54627 2.65935 4.9991C2.51713 4.80427 2.64663 4.63043 2.66629 4.44727C5.15916 4.92093 7.65435 5.3806 10.1449 5.8706C15.6591 6.9486 21.2194 7.73727 26.7637 8.63914C27.8702 8.81764 28.9802 9.01125 30.0891 9.16175C32.8479 9.53625 35.6194 9.80694 38.384 10.1359C39.7715 10.3016 41.159 10.5022 42.5535 10.6877C42.5685 10.7741 42.5535 10.8919 42.6841 10.8791C42.7234 10.8791 42.7511 10.7694 42.7847 10.7111C43.0583 10.6793 43.3355 10.7125 43.594 10.8079C43.6091 10.8931 43.601 11.0109 43.727 10.9946C43.7663 10.9946 43.793 10.8849 43.8253 10.8254C44.1372 10.7926 44.4525 10.8268 44.7503 10.9257C44.7653 11.0109 44.7573 11.1276 44.8833 11.1112C44.9226 11.1112 44.9492 11.0016 44.9816 10.9432C47.1453 11.1144 49.3036 11.3407 51.4565 11.6222C51.4727 11.7074 51.4635 11.8241 51.5895 11.8077C51.6288 11.8077 51.6555 11.6992 51.6878 11.6397C53.1193 11.7331 54.5472 11.8731 55.9659 12.0854C55.981 12.1717 55.9729 12.2884 56.0989 12.2721C56.1382 12.2721 56.1648 12.1624 56.1972 12.1041C57.5107 12.1647 58.8231 12.2604 60.1284 12.4342C60.1446 12.5194 60.1354 12.6372 60.2626 12.6209C60.3019 12.6209 60.3273 12.5112 60.3597 12.4517C60.7118 12.4153 61.0676 12.4462 61.4084 12.5427C61.4153 12.6594 61.4303 12.7761 61.5911 12.7761C61.7159 12.7691 61.7299 12.6652 61.7472 12.5696C62.1354 12.5341 62.5268 12.5677 62.9035 12.6687C62.9196 12.7551 62.9104 12.8729 63.0376 12.8554C63.078 12.8554 63.1035 12.7387 63.1347 12.6839C63.523 12.6481 63.9146 12.6825 64.2909 12.7854C64.3048 12.9021 64.3256 13.0187 64.4829 13.0094C64.6066 13.0012 64.6205 12.8997 64.6378 12.8041C64.9847 12.7924 65.3397 12.7807 65.6784 12.9009C65.69 13.0176 65.727 13.1226 65.8703 13.1342C66.0137 13.1459 66.1236 13.0887 66.1409 12.9231C66.3785 12.8871 66.6212 12.9091 66.8486 12.9872C67.0035 13.4037 67.1955 13.3617 67.4128 13.0339C67.6889 12.9987 67.9691 13.0213 68.236 13.1004C68.4592 13.5671 68.5911 13.5834 68.9159 13.1564C69.1909 13.118 69.4709 13.1436 69.7346 13.2311C69.7346 13.3559 69.7658 13.4644 69.9137 13.4807C69.9463 13.4902 69.9806 13.4918 70.0138 13.4852C70.047 13.4787 70.0782 13.4643 70.1049 13.4432C70.1315 13.4221 70.1528 13.395 70.167 13.364C70.1813 13.333 70.188 13.2991 70.1866 13.2649C70.5361 13.2298 70.889 13.2607 71.2273 13.3559C71.2342 13.5134 71.3048 13.6044 71.4724 13.6009C71.6135 13.6009 71.6713 13.5146 71.6886 13.3874C72.0771 13.3734 72.4656 13.3606 72.8449 13.4702C72.8553 13.6289 72.8853 13.7981 73.0761 13.7981C73.1186 13.8027 73.1615 13.7987 73.2023 13.7859C73.2431 13.7732 73.281 13.7523 73.3134 13.7243C73.3459 13.6963 73.3724 13.662 73.3913 13.6233C73.41 13.5846 73.4209 13.5425 73.423 13.4994C73.8855 13.4831 74.3537 13.4656 74.8105 13.5857C75.0291 14.0664 75.1574 14.0734 75.5043 13.6196C75.9683 13.5816 76.4355 13.6098 76.8917 13.7036C76.9034 13.8611 76.9334 14.0314 77.123 14.0314C77.1655 14.0357 77.2084 14.0314 77.2492 14.0185C77.2899 14.0056 77.3276 13.9844 77.3601 13.9564C77.3925 13.9284 77.4189 13.894 77.4378 13.8553C77.4567 13.8167 77.4676 13.7746 77.4699 13.7316C77.9729 13.6978 78.4781 13.73 78.973 13.8272C78.9811 13.9509 79.0193 14.0501 79.1623 14.0606C79.1947 14.0694 79.2287 14.0706 79.2611 14.0641C79.2942 14.0576 79.3243 14.0434 79.3511 14.0228C79.3772 14.0022 79.3985 13.9758 79.4127 13.9455C79.4277 13.9152 79.4349 13.8819 79.4341 13.8482C79.9381 13.8307 80.4414 13.8214 80.9375 13.9416C80.9494 14.1002 80.9818 14.2682 81.169 14.2647C81.2116 14.2694 81.2543 14.2653 81.2954 14.2525C81.3357 14.2397 81.3736 14.2187 81.4068 14.1906C81.4392 14.1625 81.4653 14.1279 81.4842 14.0892C81.5032 14.0503 81.5134 14.0081 81.5158 13.9649C82.0199 13.9497 82.5239 13.9299 83.0185 14.0501C83.0248 14.2367 83.088 14.4001 83.295 14.4001C83.502 14.4001 83.5818 14.2612 83.596 14.0722C84.1735 14.0559 84.7518 14.0454 85.3301 14.1644C85.338 14.3499 85.402 14.5074 85.6074 14.5144C85.8136 14.5214 85.8942 14.3756 85.9084 14.1866C86.4504 14.1726 86.9931 14.1562 87.5272 14.2717C87.7421 14.7594 87.874 14.7664 88.2208 14.3067C88.762 14.2671 89.3056 14.2962 89.8396 14.3931C90.0593 14.8749 90.192 14.8807 90.5333 14.4211C91.3051 14.3827 92.0786 14.4128 92.8457 14.5109C93.0772 15.0091 93.2992 15.0161 93.6547 14.5377C94.3894 14.5214 95.1234 14.5039 95.8518 14.6241C96.0904 15.1409 96.4048 15.1514 96.7769 14.6544C97.5875 14.6178 98.3997 14.649 99.2047 14.7477C99.4291 15.2226 99.5602 15.2272 99.8991 14.7711C100.709 14.7351 101.521 14.7616 102.327 14.8504C102.567 15.3859 103.095 15.4022 103.484 14.8866C104.372 14.8679 105.258 14.8551 106.143 14.9729C106.382 15.4886 106.81 15.5002 107.183 15.0021C108.108 14.9857 109.034 14.9717 109.958 15.0942C110.212 15.6169 111.079 15.6309 111.461 15.1176C115.033 15.1176 118.606 15.1176 122.177 15.1374C123.731 15.1467 125.285 15.0954 126.839 15.2074C126.865 15.7382 127.235 15.4407 127.47 15.4734C129.046 15.7067 130.631 15.5142 132.21 15.5772C132.479 15.5877 132.719 15.5562 132.733 15.2051C134.39 15.0884 136.046 15.1012 137.705 15.1187C137.992 15.5002 139.283 15.6321 139.607 15.3042C139.653 15.2576 139.65 15.1619 139.67 15.0884C141.363 14.9717 143.06 14.9846 144.757 15.0009C145.138 15.5142 146.006 15.5014 146.26 14.9776C147.955 14.8609 149.651 14.8691 151.347 14.8866C151.728 15.3952 152.248 15.3859 152.504 14.8644C153.309 14.7634 154.121 14.7321 154.931 14.7711C154.948 14.8644 154.963 14.9647 155.083 14.9752C155.238 14.9904 155.263 14.8772 155.278 14.7594C157.318 14.6206 159.361 14.5517 161.407 14.5366C161.404 14.5835 161.412 14.6305 161.429 14.6741C161.447 14.7177 161.473 14.757 161.508 14.789C161.542 14.8211 161.582 14.8451 161.626 14.8596C161.67 14.874 161.718 14.8784 161.764 14.8726C161.995 14.8726 162.09 14.7326 162.1 14.5167C162.906 14.4187 163.718 14.3874 164.529 14.4234C164.699 14.8831 164.609 15.3649 164.651 15.8351C164.702 16.4172 164.801 16.9889 164.881 17.5617ZM110.044 18.0832C109.92 17.9491 110.015 17.6236 109.735 17.6166C109.504 17.6084 109.286 17.7332 109.273 18.0191C109.263 18.2524 109.388 18.3691 109.62 18.3761C109.82 18.3749 110.012 18.3656 110.044 18.0832ZM152.487 16.9854C152.327 17.0041 152.153 17.1021 151.955 17.0262C151.931 17.0196 151.906 17.0183 151.882 17.0225C151.858 17.0267 151.835 17.0362 151.816 17.0504C151.796 17.0646 151.779 17.0831 151.767 17.1045C151.755 17.126 151.748 17.1499 151.746 17.1744C151.729 17.2992 151.836 17.3412 151.935 17.3226C152.025 17.2973 152.12 17.292 152.213 17.3071C152.306 17.3222 152.394 17.3574 152.472 17.4101C152.521 17.4427 152.58 17.4567 152.638 17.4492C152.696 17.4416 152.749 17.4133 152.788 17.3692C152.82 17.3326 152.839 17.287 152.843 17.2386C152.848 17.1903 152.838 17.1417 152.813 17.0997C152.751 16.9679 152.625 16.9866 152.487 16.9807V16.9854ZM143.577 17.4521C143.57 17.4137 143.555 17.3772 143.534 17.3447C143.512 17.3121 143.485 17.2842 143.452 17.2625C143.42 17.2409 143.383 17.2258 143.346 17.2183C143.308 17.2108 143.268 17.211 143.23 17.2187C143.201 17.2174 143.172 17.2228 143.145 17.2345C143.118 17.2464 143.094 17.2642 143.075 17.2868C143.056 17.3093 143.043 17.336 143.036 17.3646C143.03 17.3933 143.029 17.4233 143.035 17.4521C143.047 17.6749 143.208 17.6726 143.367 17.6667C143.504 17.6644 143.59 17.6072 143.577 17.4521ZM87.1519 17.3039C87.0879 17.1651 87.0113 17.0181 86.8343 17.0321C86.7064 17.0414 86.6629 17.1837 86.6479 17.2899C86.625 17.4509 86.7395 17.5372 86.8873 17.5431C86.9212 17.5477 86.9552 17.5449 86.9868 17.5349C87.0192 17.5249 87.0492 17.5079 87.0737 17.4851C87.099 17.4623 87.1188 17.4343 87.1322 17.403C87.1448 17.3717 87.1511 17.3379 87.1503 17.3039H87.1519ZM82.4315 17.6901C82.4315 17.5582 82.3817 17.4696 82.2419 17.4567C82.102 17.4439 82.0104 17.4894 81.9977 17.6306C81.9851 17.7717 82.038 17.8919 82.2118 17.8931C82.2395 17.8967 82.2679 17.8941 82.2948 17.8854C82.3217 17.8767 82.3469 17.8622 82.3675 17.8429C82.388 17.8235 82.4046 17.7997 82.4149 17.7734C82.4259 17.747 82.4307 17.7186 82.4291 17.6901H82.4315ZM89.1697 17.7951C89.2013 17.8592 89.2337 17.9736 89.368 17.9829C89.3956 17.985 89.4233 17.9813 89.4494 17.9722C89.4762 17.9631 89.4999 17.9486 89.5212 17.9298C89.5418 17.9109 89.5584 17.8879 89.5702 17.8624C89.5813 17.8369 89.5876 17.8092 89.5884 17.7811C89.6105 17.6422 89.5299 17.5757 89.398 17.5711C89.2661 17.5664 89.1744 17.6026 89.1673 17.7951H89.1697ZM141.043 17.3284C140.982 17.2852 140.945 17.2374 140.905 17.2362C140.866 17.2351 140.79 17.2666 140.777 17.2981C140.75 17.3902 140.825 17.4264 140.9 17.4147C140.939 17.4171 140.977 17.3727 141.04 17.3296L141.043 17.3284ZM140.336 17.3751L140.294 17.4719C140.327 17.4859 140.366 17.5174 140.388 17.5081C140.411 17.4987 140.418 17.4486 140.432 17.4171L140.336 17.3751Z" fill="#272727"/>
<path d="M2.66986 4.44719C2.6502 4.63036 2.5207 4.80419 2.66292 4.99903C3.06183 5.54619 3.30927 6.16569 3.56826 6.79219C3.93826 7.68236 4.5372 8.34153 5.54082 8.55273C6.65429 8.78604 7.59201 9.48604 8.68466 9.79053C9.19344 9.93054 9.6594 10.0005 10.1288 9.57584C10.5405 9.20373 11.0538 9.45923 11.4828 9.64704C12.3757 10.0217 13.2236 10.4972 14.0104 11.0645C14.5353 11.4472 15.0892 11.7015 15.7447 11.6992C15.8199 11.6992 15.9043 11.7622 15.9679 11.7412C17.2559 11.3293 18.3706 12.0002 19.5268 12.3455C20.1396 12.5275 20.6599 12.258 21.2104 12.167C21.7827 12.0725 22.3087 12.0713 22.8291 12.328C23.9218 12.8612 25.1254 13.042 26.2978 13.2018C27.0864 13.3092 27.9293 13.2228 28.734 13.3512C29.703 13.5063 30.6766 13.6452 31.6247 13.9543C32.7867 14.3335 34.0066 14.3043 35.2091 14.3043C36.0184 14.3043 36.8 14.358 37.5586 14.7372C38.3171 15.1163 39.1195 14.9075 39.915 14.778C41.3141 14.5505 42.7397 14.3428 44.0937 14.918C44.6856 15.17 45.2164 14.876 45.7841 14.9717C46.5738 15.1058 47.4098 14.855 48.1683 15.3427C48.4967 15.5573 48.928 15.5585 49.3338 15.6063C50.2206 15.7125 51.0889 15.9563 51.9585 16.1593C53.5495 16.5245 55.1393 16.7648 56.7685 16.6202C57.1303 16.5887 57.4356 16.3308 57.816 16.2398C58.3864 16.0905 58.9805 16.0569 59.5638 16.1411C60.1472 16.2252 60.7082 16.4253 61.2143 16.7298C61.5859 16.9646 62.0112 17.0988 62.4491 17.1195C63.1706 17.1487 63.8539 17.4882 64.5835 17.4812C65.1698 17.4753 65.7664 17.6072 66.3365 17.305C66.7793 17.0717 67.2614 17.2817 67.68 17.3925C68.3992 17.5873 69.0606 17.3983 69.7404 17.298C69.8977 17.2747 70.1833 17.1942 69.8757 16.9363C69.6445 16.7392 69.796 16.5863 69.9624 16.4778C70.3555 16.2142 70.7718 16.3052 71.1731 16.4545C71.2292 16.474 71.2758 16.5145 71.3031 16.5678C71.3304 16.621 71.3364 16.6828 71.3199 16.7403C71.1754 17.3797 71.6471 17.3027 71.9639 17.2268C72.2807 17.151 72.4912 17.0577 72.7895 17.3342C72.9294 17.4637 73.3341 17.3482 73.5989 17.2817C73.8416 17.2222 74.0209 17.2152 74.1053 17.4812C74.1793 17.7145 74.362 17.6713 74.5308 17.6807C75.0661 17.711 75.6015 17.7297 76.0686 18.061C76.3149 18.2348 76.4964 18.1357 76.6178 17.8755C76.7578 17.5768 76.9254 17.4567 77.1312 17.8253C77.2699 18.0727 77.4781 18.1602 77.7567 18.152C77.9095 18.142 78.0623 18.1713 78.2008 18.2372C78.6366 18.4705 79.0668 18.5195 79.4808 18.2255C80.0172 17.844 80.5315 18.2092 81.0403 18.2815C81.2599 18.3118 81.4709 18.3807 81.696 18.3363C81.79 18.3177 81.9062 18.2442 81.971 18.2768C82.8376 18.7225 83.0122 18.2558 83.028 17.508C83.028 17.3003 83.2595 17.0565 83.3867 17.1323C83.9065 17.4427 84.4667 16.9468 84.9636 17.263C85.1129 17.3575 85.2535 17.2852 85.4052 17.2502C85.6825 17.186 85.9038 17.186 86.0333 17.5523C86.204 18.0365 86.8486 18.3328 87.3677 18.208C87.5802 18.1567 87.7919 18.1462 87.8946 18.306C88.1364 18.677 88.4951 18.6665 88.8198 18.5977C89.6011 18.4332 90.3232 18.5883 91.0619 18.831C91.6283 19.0188 92.2177 18.789 92.8134 18.9138C93.0749 18.9687 93.4265 18.726 93.5347 18.3597C93.6437 17.9933 93.8041 17.893 94.068 18.2547C94.1833 18.4075 94.305 18.5778 94.5151 18.5953C94.8185 18.6222 95.178 18.6922 95.2412 18.2453C95.3123 17.76 94.9181 17.9397 94.6897 17.907C93.4423 17.725 92.1893 17.5943 90.9434 17.389C90.1146 17.2537 89.2891 17.0892 88.4564 16.9725C88.266 16.9457 88.0242 16.9188 88.0147 16.6867C88.0037 16.3892 88.2644 16.395 88.4777 16.395C89.4881 16.395 90.5018 16.3215 91.5067 16.4825C91.7871 16.5129 92.07 16.5129 92.3496 16.4825C93.575 16.4102 94.7956 16.5443 96.0194 16.5268C97.4485 16.507 98.884 16.5338 100.307 16.6505C101.172 16.7228 102.032 16.7217 102.895 16.7497C103.029 16.754 103.16 16.7817 103.285 16.8313C103.776 17.0464 104.321 17.1055 104.846 17.0005C106.136 16.7497 107.416 17.151 108.705 17.1732C108.882 17.1732 109.094 17.242 109.129 17.4928C109.165 17.7437 109.02 17.8335 108.847 17.9467C108.279 18.3177 107.623 18.117 107.019 18.2523C106.889 18.2815 106.743 18.2442 106.619 18.2862C106.544 18.3122 106.481 18.363 106.439 18.4302C106.397 18.4974 106.379 18.5771 106.388 18.656C106.396 18.8438 106.56 18.8403 106.692 18.8333C107.029 18.8158 107.344 18.8613 107.617 19.0947C107.78 19.237 107.936 19.139 108.098 19.0725C108.309 18.978 108.538 18.9313 108.77 18.936C109.001 18.9406 109.228 18.9964 109.436 19.0993C109.833 19.2918 110.195 19.3875 110.592 19.0083C110.796 18.8112 111.112 18.6408 111.378 19.1133C111.544 19.4108 111.983 19.2078 112.247 19.1297C112.489 19.0585 112.204 18.8543 112.157 18.7167C112.041 18.3818 112.089 18.1765 112.398 17.9362C112.881 17.5593 113.315 17.3027 113.928 17.6585C114.075 17.7437 114.213 17.7927 114.315 17.9467C114.59 18.3562 115.024 18.4448 115.419 18.1602C115.511 18.09 115.619 18.0455 115.734 18.0313C115.848 18.0172 115.965 18.0339 116.07 18.0797C116.141 18.1105 116.216 18.1269 116.292 18.1278C116.369 18.1288 116.446 18.1145 116.517 18.0855C117.241 17.7775 117.241 17.7798 117.425 18.5277C117.46 18.5277 117.521 18.5277 117.525 18.5125C117.64 18.0073 117.624 18.075 118.096 18.2232C118.668 18.4017 119.321 18.4985 119.877 18.2862C120.418 18.0873 121.005 18.0509 121.567 18.1812C121.714 18.2118 121.868 18.1942 122.005 18.131C122.126 18.0732 122.256 18.0388 122.39 18.0295C123.008 18.0225 123.589 18.4658 124.24 18.1613C124.408 18.0832 124.472 18.3947 124.667 18.425C124.699 18.3835 124.724 18.3365 124.739 18.2862C124.777 17.9257 124.739 17.515 125.244 17.4462C125.72 17.3832 126.482 17.7588 126.595 18.138C126.668 18.3818 126.757 18.3585 126.911 18.2313C127.556 17.6993 128.224 17.816 128.897 18.1695C129.256 18.3585 129.66 18.1753 130.027 18.3165C130.105 18.3468 130.177 18.2605 130.169 18.1777C130.121 17.5383 130.632 17.5687 130.987 17.5745C131.973 17.592 132.965 17.4963 133.949 17.7378C134.317 17.819 134.7 17.7989 135.058 17.6795C135.626 17.4975 136.214 17.3633 136.712 17.8953C136.827 18.0225 136.984 18.012 137.139 18.0295C137.388 18.054 137.609 18.1695 137.648 18.425C137.691 18.6992 137.447 18.824 137.246 18.9267C137.079 19.0118 136.737 18.9267 136.852 19.2603C136.937 19.5018 137.209 19.4108 137.418 19.377C138.056 19.2918 138.69 19.1262 139.283 19.5998C139.373 19.6757 139.48 19.7275 139.595 19.7504C139.71 19.7732 139.828 19.7664 139.94 19.7305C140.76 19.4143 141.54 19.461 142.284 19.9533C142.317 19.9729 142.353 19.9853 142.392 19.9899C142.43 19.9945 142.469 19.9912 142.506 19.9802C143.609 19.5718 144.622 20.1108 145.667 20.2835C145.918 20.3255 146.064 20.1972 146.235 20.0805C146.504 19.895 146.787 19.7923 147.099 19.9638C147.677 20.2707 148.189 20.0805 148.65 19.7305C148.855 19.5718 149.066 19.482 149.287 19.5473C150.351 19.8623 151.3 19.5018 152.279 19.1437C152.933 18.8902 153.63 18.7712 154.33 18.7937C154.811 18.7942 155.293 18.765 155.771 18.7062C156.548 18.6397 157.441 18.6257 158.076 19.2895C158.371 19.5952 158.602 19.6803 159.017 19.475C159.692 19.1425 160.395 19.3583 161.054 19.5987C161.354 19.7072 161.599 19.7748 161.93 19.692C162.636 19.5158 163.395 19.2055 163.963 20.0128C164.063 20.1552 164.195 20.119 164.316 20.0245C164.437 19.93 164.555 19.7643 164.753 19.7702C164.753 19.9627 164.753 20.1563 164.753 20.3535C164.637 20.378 164.469 20.364 164.429 20.4317C163.94 21.2612 163.137 21.022 162.41 21.0523C162.333 21.0567 162.257 21.0446 162.185 21.0168C162.114 20.9891 162.048 20.9463 161.994 20.8913C161.706 20.616 161.384 20.5052 160.992 20.6662C160.785 20.7513 160.581 20.6603 160.373 20.6183C160.114 20.5658 159.837 20.5227 159.597 20.7152C159.462 20.8225 159.262 20.875 159.194 20.7152C158.935 20.098 158.718 20.6137 158.5 20.7315C158.384 20.7922 158.326 20.938 158.219 21.0138C158.113 21.0897 157.942 21.2262 157.798 21.1305C157.619 21.0057 157.777 20.8692 157.837 20.7315C158.04 20.273 157.824 19.9242 157.331 19.9008C156.906 19.881 156.478 19.8635 156.153 20.2263C155.989 20.4095 155.762 20.371 155.555 20.3605C155.27 20.3465 155.028 20.3932 154.831 20.6277C154.569 20.9403 154.382 20.7688 154.3 20.483C154.121 19.8542 153.752 19.9487 153.329 20.1867C153.193 20.2613 153.03 20.483 152.965 20.1388C152.907 19.8343 152.791 19.6092 152.441 19.6722C152.092 19.7352 151.706 19.8682 151.587 20.2438C151.436 20.7175 151.326 20.861 150.951 20.3967C150.611 19.9743 150.092 20.0665 149.434 20.6032C149.318 20.7012 149.219 20.8272 149.099 20.9252C148.904 21.085 148.726 21.2227 148.438 21.029C148.318 20.9444 148.171 20.907 148.025 20.9238C147.88 20.9406 147.745 21.0103 147.647 21.12C147.12 21.6403 146.605 21.6917 146.028 21.2367C145.483 20.8085 144.921 20.553 144.226 20.8307C144.122 20.8727 143.973 20.9345 143.898 20.8925C143.339 20.5763 142.816 20.3943 142.299 20.9835C142.165 21.1375 142.002 20.9473 141.924 20.8307C141.346 19.9557 140.603 20.1482 139.823 20.4807C139.373 20.6743 138.943 20.6907 138.551 20.3033C138.219 19.972 137.899 19.881 137.552 20.3547C137.314 20.679 137.006 20.7198 136.721 20.301C136.228 19.5777 135.618 19.6068 135.152 20.3838C134.933 20.7478 134.781 20.7338 134.6 20.4072C134.497 20.2228 134.331 20.1377 134.177 20.0257C133.953 19.8623 133.774 19.8425 133.762 20.1913C133.749 20.5402 133.544 20.6148 133.26 20.5938C132.09 20.5087 130.937 20.6522 129.782 20.812C129.419 20.849 129.052 20.8093 128.705 20.6953C128.162 20.5308 127.733 20.742 127.3 20.9928C127.069 21.1305 126.889 21.1585 126.635 20.959C126.356 20.7397 126.037 20.6685 125.66 20.959C125.143 21.3603 124.52 21.2215 123.955 20.9963C123.295 20.7338 122.567 20.798 121.91 20.4958C121.756 20.4322 121.587 20.4142 121.424 20.4439C121.26 20.4737 121.108 20.55 120.985 20.6638C120.902 20.7475 120.792 20.7962 120.675 20.8003C119.518 20.6487 118.233 21.0337 117.301 19.9487C117.071 19.671 116.709 19.6138 116.345 19.6617C116.248 19.6757 116.131 19.678 116.114 19.7865C115.929 20.7292 115.141 20.6183 114.495 20.6965C113.768 20.784 113.03 20.5448 112.317 20.616C111.31 20.7163 110.344 20.3733 109.351 20.4713C109.191 20.4877 109.064 20.3978 108.922 20.3337C108.583 20.1773 108.253 20.1388 108.052 20.567C107.92 20.8505 107.706 20.8412 107.403 20.868C106.874 20.9158 106.35 20.8038 105.825 20.903C105.478 20.9695 105.147 20.826 104.831 20.6883C104.472 20.5332 104.147 20.3792 103.789 20.7478C103.699 20.8367 103.583 20.8955 103.458 20.9164C103.333 20.9372 103.205 20.9191 103.09 20.8645C102.472 20.567 101.77 20.7163 101.135 20.4888C100.925 20.413 100.729 20.5472 100.527 20.6055C100.039 20.7478 99.5485 20.8948 99.3043 20.1972C99.189 19.8565 98.8817 19.958 98.6905 20.1307C98.3207 20.4655 97.9423 20.4562 97.4675 20.4013C96.8892 20.3348 96.2911 20.2123 95.6939 20.6102C95.2649 20.896 95.0539 20.2543 94.9836 20.0128C94.8683 19.5987 94.6163 19.5018 94.2955 19.4388C93.9013 19.363 93.9052 19.7258 93.793 19.9498C93.6098 20.3092 93.3127 20.3932 92.9264 20.4947C91.8101 20.7898 91.1196 19.9253 90.2347 19.6103C89.5537 19.3677 89.575 19.3128 89.4866 20.0233C89.436 20.4375 89.2195 20.5647 88.8545 20.35C88.4888 20.1353 88.0724 19.9743 87.7595 19.6278C87.4736 19.314 87.0762 19.2778 86.7649 19.6477C86.3549 20.1377 85.9891 20.2485 85.4242 19.79C84.7661 19.2568 83.9855 19.2475 83.2192 19.6605C83.0557 19.7638 82.8661 19.8176 82.6733 19.8157C81.6328 19.685 80.6105 19.8635 79.5787 19.8775C79.145 19.8775 78.7557 19.6535 78.4378 19.3735C78.0712 19.0515 77.7521 19.0842 77.4422 19.4038C77.1624 19.6943 76.9196 19.699 76.5877 19.4645C76.2559 19.23 75.9102 19.0492 75.6211 18.7517C75.2488 18.3678 74.6591 18.3935 74.2093 18.7517C73.8906 18.9995 73.4954 19.1255 73.0934 19.1079C72.6914 19.0901 72.3086 18.9297 72.0125 18.6548C71.3997 18.061 70.8793 18.0132 70.0919 18.3923C69.8576 18.5201 69.5951 18.5862 69.3288 18.5846C69.0624 18.583 68.8008 18.5136 68.568 18.383C67.9194 18.0493 67.2233 17.7997 66.3885 18.0773C65.7052 18.3107 64.9512 18.509 64.1523 18.131C63.7245 17.9292 63.1116 17.9467 62.5983 18.1613C62.0502 18.3947 61.6247 18.1695 61.2362 17.8113C60.3714 17.0192 60.2257 17.0157 59.4059 17.8183C59.2902 17.935 59.1607 18.0365 59.0023 18.0003C58.7965 17.9525 58.8648 17.7553 58.8509 17.6107C58.7769 16.8325 58.3421 16.6388 57.6738 17.0553C56.558 17.7553 55.3543 17.6947 54.1392 17.4053C53.8605 17.3388 53.6015 17.2152 53.3021 17.2152C52.4291 17.2152 51.6209 16.9048 50.8127 16.626C50.4727 16.5093 50.0495 16.4965 49.846 16.626C49.0702 17.1335 48.6239 16.535 48.1232 16.1932C47.8793 16.0096 47.6054 15.8706 47.3138 15.7825C47.0352 15.7102 46.7588 15.772 46.6294 16.0473C46.5414 16.2317 46.5715 16.514 46.2824 16.5035C45.8524 16.4883 45.3967 16.6633 44.9956 16.367L44.1746 15.7498C43.6381 15.3555 43.2323 15.4372 42.6345 15.7498C41.8748 16.1407 41.0932 16.5723 40.1936 15.8968C39.9201 15.6786 39.5842 15.5546 39.2356 15.5433C38.8869 15.5319 38.5439 15.6337 38.257 15.8338C37.7366 16.171 37.4025 15.681 37.1007 15.4652C36.2971 14.8947 35.5339 14.8515 34.5731 15.0522C33.9129 15.191 33.0989 15.1187 32.4097 14.911C31.9901 14.7838 31.5599 14.561 31.1379 14.4023C30.6893 14.232 30.1967 13.9917 29.7504 14.4653C29.7055 14.5021 29.6529 14.5281 29.5966 14.541C29.5403 14.554 29.4817 14.5536 29.4255 14.54C28.8323 14.33 28.1917 14.3813 27.6021 14.0278C27.0124 13.6743 26.2978 13.2497 25.5093 13.6218C25.1508 13.791 24.8479 13.7198 24.5496 13.4772C24.2513 13.2345 23.9795 13.1913 23.6651 13.4597C23.4858 13.6069 23.2849 13.725 23.0695 13.8097C22.5262 14.0325 22.059 13.8307 21.8959 13.2497C21.7688 12.797 21.5133 12.8507 21.2635 13.035C20.7756 13.392 20.3258 13.343 19.8275 13.0665C19.2192 12.7293 18.5475 12.5672 17.8745 12.4097C17.8027 12.3863 17.7256 12.385 17.653 12.4057C17.5804 12.4265 17.5154 12.4685 17.4664 12.5263C17.1195 12.8868 16.7472 12.8098 16.3772 12.5683C16.2142 12.4622 16.05 12.328 15.8534 12.349C14.9608 12.4412 14.2659 12.0842 13.6369 11.4775C13.3235 11.1753 12.9328 11.0202 12.4911 11.3375C12.2702 11.4973 12.069 11.4052 11.9129 11.159C11.3024 10.1638 11.1833 10.1825 10.189 10.6923C9.48015 11.0552 8.71934 10.8253 8.03256 10.494C7.58461 10.264 7.15306 10.0028 6.74101 9.71234C6.55139 9.58634 6.3317 9.45803 6.15479 9.55723C5.38357 9.98773 4.98814 9.30173 4.59501 8.95053C3.56616 8.05933 2.82387 6.879 2.46288 5.56019C2.34726 5.13903 1.95414 4.80536 1.9761 4.31419C2.21428 4.30592 2.45129 4.35136 2.66986 4.44719ZM86.6227 18.4472C86.2988 18.3538 86.076 18.313 85.9472 18.5825C85.9417 18.6163 85.9433 18.6508 85.9512 18.6841C85.9591 18.7174 85.9733 18.7487 85.9938 18.7762C86.2285 18.7832 86.4078 18.6665 86.6227 18.4472ZM70.8112 17.011C70.8424 17.025 70.8816 17.0565 70.9048 17.0472C70.9279 17.0378 70.9349 16.9888 70.9487 16.9562C70.9175 16.9422 70.8782 16.9095 70.8551 16.9188C70.8319 16.9282 70.825 16.9783 70.8112 17.011ZM111.187 19.4517C111.175 19.419 111.17 19.3688 111.147 19.3583C111.124 19.3478 111.085 19.3782 111.052 19.391C111.065 19.4237 111.07 19.4738 111.092 19.4843C111.115 19.4948 111.155 19.4645 111.187 19.4517Z" fill="#292929"/>
<path d="M172.165 13.7258C172.179 13.085 172.142 12.4442 172.058 11.8089C172.34 11.7844 172.603 11.7634 172.868 11.9559C173.082 12.1123 173.364 12.1589 173.582 11.8883C173.813 11.5966 174.102 11.6386 174.407 11.7716C175.816 12.3899 177.288 12.6524 178.825 12.7248C180.843 12.8193 182.855 12.9278 184.871 12.7049C185.16 12.6734 185.462 12.6338 185.58 13.0129L185.569 13.1588C185.28 13.3606 184.953 13.2136 184.644 13.2603C184.12 13.0734 183.549 13.0734 183.025 13.2603C183.001 13.299 182.967 13.3298 182.926 13.3492C182.885 13.3687 182.839 13.3759 182.794 13.3699C182.447 13.3443 182.082 13.4493 181.753 13.2533C181.583 13.0654 181.358 13.1436 181.157 13.1366C180.161 13.1284 179.166 13.1366 178.17 13.1366H177.939C177.592 13.1856 177.222 13.0199 176.898 13.2533H175.403C175.359 12.9464 175.118 13.0409 174.941 13.0199C174.942 12.9867 174.936 12.9535 174.923 12.923C174.909 12.8925 174.889 12.8655 174.864 12.8441C174.839 12.8226 174.809 12.8073 174.777 12.7994C174.745 12.7915 174.712 12.791 174.679 12.7983C174.539 12.8064 174.491 12.8986 174.477 13.0211L174.015 13.1378C173.616 13.1728 173.205 13.0584 172.811 13.2836C173.29 13.3174 173.729 13.5438 174.183 13.5776C174.617 13.6091 175.032 13.7736 175.492 13.6849C176.285 13.5184 177.103 13.5216 177.894 13.6943C179.207 14.0034 180.519 14.2881 181.875 14.3009C181.898 14.3814 181.891 14.5144 182.02 14.4713C182.15 14.4281 182.097 14.2869 182.112 14.1854C182.265 14.1896 182.416 14.141 182.538 14.0478C183.058 13.6826 183.347 13.7829 183.359 14.3978C183.367 15.2028 183.998 15.5831 184.386 16.1244C184.517 16.3064 184.788 16.3123 185.031 16.2131C185.23 16.1303 185.449 16.1058 185.619 16.2924C185.652 16.3284 185.673 16.3743 185.677 16.4231C185.682 16.4719 185.672 16.521 185.646 16.5631C185.515 16.7964 185.281 16.7241 185.078 16.7428C184.893 16.7591 184.687 16.6786 184.535 16.8594C184.275 16.8711 184.024 16.8524 183.841 16.6261C183.845 16.5946 183.842 16.5626 183.832 16.5325C183.821 16.5026 183.804 16.4753 183.782 16.4528C183.76 16.4304 183.733 16.4133 183.703 16.4029C183.673 16.3925 183.641 16.389 183.611 16.3928C183.524 15.9961 183.342 15.6834 182.916 15.5761C182.916 15.5376 182.916 15.4991 182.916 15.4594C182.828 15.3183 182.753 15.1316 182.552 15.1678C182.418 15.1923 182.468 15.3533 182.455 15.4594C182.079 15.6834 181.683 15.9599 181.584 16.3694C181.481 16.7988 181.237 17.0554 180.952 17.3191L180.374 17.5524H180.258C180.239 16.9131 179.74 16.5211 178.899 16.3858C178.448 16.3099 177.858 16.3578 177.808 15.6321C177.797 15.4536 177.613 15.4069 177.461 15.3684C176.781 15.1911 176.098 15.0021 175.566 15.6986C175.512 15.7532 175.447 15.7962 175.375 15.8246C175.163 15.9413 174.944 15.9938 174.722 15.8561C174.682 15.8304 174.633 15.7453 174.647 15.7184C174.763 15.5038 174.994 15.5166 175.183 15.4711C175.646 15.3544 175.732 15.1048 175.437 14.7489C175.167 14.4246 174.859 14.3161 174.477 14.5354C174.13 14.7303 173.737 14.7314 173.538 14.4188C173.195 13.8891 172.695 13.8074 172.165 13.7258ZM180.628 16.2166C180.397 15.9949 180.244 15.8024 179.912 15.7091C180.047 16.0684 180.184 16.2796 180.628 16.2166ZM178.709 14.9018C178.677 14.8644 178.648 14.8049 178.607 14.7944C178.551 14.7785 178.491 14.7855 178.441 14.814C178.389 14.8424 178.352 14.8898 178.335 14.9461C178.324 14.9729 178.377 15.0628 178.407 15.0628C178.467 15.0649 178.525 15.0518 178.578 15.0244C178.631 14.997 178.676 14.9563 178.709 14.9064V14.9018ZM181.97 15.0604C182.018 15.1304 182.047 15.2214 182.102 15.2436C182.23 15.2938 182.204 15.1713 182.207 15.1083C182.211 15.0453 182.207 14.9403 182.099 14.9438C182.06 14.9508 182.025 15.0138 181.97 15.0651V15.0604Z" fill="#292929"/>
<path d="M214.831 11.3961C214.074 11.4789 213.269 11.4323 212.571 11.6808C211.811 11.9514 211.062 11.9141 210.306 11.9923C209.775 12.0483 209.25 12.1486 208.72 12.2104C208.49 12.2384 208.366 12.3341 208.349 12.5604C207.26 12.2921 206.188 12.2618 205.156 12.7938C205.093 12.8264 204.989 12.8684 204.953 12.8404C204.175 12.2699 203.327 12.7238 202.532 12.7238C201.509 12.7331 200.472 12.8008 199.444 12.8988C199.007 12.9408 198.57 12.9361 198.131 13.0014C197.764 13.0551 197.52 13.0994 197.702 13.5999C197.375 13.4833 197.211 13.3258 197.123 13.0773C197.488 12.7273 197.952 12.7518 198.403 12.7273C200.342 12.6106 202.28 12.4484 204.222 12.3889C205.146 12.3598 206.053 12.1638 206.979 12.1638C208.159 12.1638 209.292 11.8138 210.459 11.6971C211.718 11.5699 212.968 11.3681 214.222 11.2083C214.423 11.1826 214.643 11.0916 214.826 11.2759C214.831 11.3168 214.831 11.3564 214.831 11.3961Z" fill="#4B4B4B"/>
<path d="M132.738 15.2124C132.724 15.5624 132.484 15.595 132.215 15.5845C130.635 15.5215 129.05 15.7164 127.475 15.4807C127.243 15.4457 126.869 15.7455 126.843 15.2147L132.738 15.2124Z" fill="#292929"/>
<path d="M194.108 13.0387C193.266 13.0387 192.424 13.0387 191.583 13.027C191.18 13.027 190.807 13.027 190.718 13.6687C190.441 13.1402 190.075 13.1239 189.677 13.139C189.042 13.1635 188.405 13.16 187.772 13.1682C187.907 12.9349 188.126 12.8835 188.365 12.9127C189.059 12.9955 189.745 12.901 190.452 13.0154C190.858 13.0819 191.447 12.845 191.968 12.8369C192.523 12.8287 193.077 12.8275 193.631 12.824C193.823 12.8229 194.028 12.7925 194.108 13.0387Z" fill="#4B4B4B"/>
<path d="M164.881 17.562C164.803 16.9891 164.704 16.4175 164.65 15.8423C164.607 15.3756 164.699 14.8903 164.527 14.4306C164.744 14.314 164.929 14.0923 165.221 14.2066L165.106 17.5631L164.881 17.562Z" fill="#292929"/>
<path d="M170.546 10.4753C170.219 10.0576 170.464 9.69131 170.65 9.32031C171.167 9.40201 171.422 9.72751 171.48 10.2326C171.085 9.97251 170.868 10.417 170.546 10.4753Z" fill="#4B4B4B"/>
<path d="M220.728 12.3444C220.728 12.0843 220.546 12.0224 220.341 11.9443C220.185 11.8859 219.947 11.9139 219.907 11.6619C220.227 11.6619 220.55 11.6853 220.87 11.6724C221.19 11.6596 221.476 11.8078 221.471 12.1298C221.464 12.5136 221.089 12.2639 220.893 12.3503C220.843 12.3666 220.779 12.3479 220.728 12.3444Z" fill="#6F6F6F"/>
<path d="M197.04 13.0166L195.609 13.0283C195.268 13.0283 194.936 12.9968 194.619 13.215C194.473 13.3165 194.199 13.3596 194.116 13.0481C194.889 12.7401 195.702 12.8148 196.506 12.8066C196.708 12.8055 196.941 12.7471 197.04 13.0166Z" fill="#4B4B4B"/>
<path d="M139.675 15.0956C139.655 15.1691 139.659 15.2648 139.613 15.3114C139.289 15.6393 137.994 15.5074 137.71 15.1259C138.364 15.0646 139.02 15.0544 139.675 15.0956Z" fill="#292929"/>
<path d="M111.462 15.1246C111.08 15.638 110.214 15.624 109.959 15.1013L111.462 15.1246Z" fill="#292929"/>
<path d="M146.266 14.9847C146.012 15.5086 145.145 15.5214 144.762 15.0081C145.262 14.9484 145.765 14.9405 146.266 14.9847Z" fill="#292929"/>
<path d="M185.567 13.16L185.578 13.0141C186.084 12.9791 186.592 12.9511 187.099 12.908C187.33 12.8881 187.509 12.9336 187.608 13.1623L185.567 13.16Z" fill="#4B4B4B"/>
<path d="M217.71 11.06C217.318 11.4788 216.876 11.2933 216.438 11.1673V11.0506C216.862 11.0611 217.288 10.8313 217.71 11.06Z" fill="#4B4B4B"/>
<path d="M103.484 14.8938C103.096 15.4094 102.569 15.3931 102.328 14.8576C102.713 14.8206 103.102 14.8327 103.484 14.8938Z" fill="#292929"/>
<path d="M152.509 14.8716C152.254 15.3931 151.733 15.4024 151.353 14.8938L152.509 14.8716Z" fill="#292929"/>
<path d="M107.184 15.0091C106.812 15.5073 106.385 15.4956 106.144 14.98C106.491 14.9375 106.841 14.9474 107.184 15.0091Z" fill="#292929"/>
<path d="M219.558 11.6468C219.122 11.7518 218.679 11.921 218.286 11.5407C218.712 11.5348 219.141 11.5197 219.558 11.6468Z" fill="#6F6F6F"/>
<path d="M96.7777 14.6614C96.4072 15.1584 96.0928 15.1479 95.8534 14.6311C96.1607 14.5897 96.4736 14.6 96.7777 14.6614Z" fill="#292929"/>
<path d="M93.6563 14.5449C93.3016 15.0232 93.078 15.0115 92.8466 14.518C93.116 14.4778 93.3901 14.4869 93.6563 14.5449Z" fill="#292929"/>
<path d="M162.107 14.5239C162.096 14.7397 161.998 14.8739 161.77 14.8797C161.723 14.8856 161.677 14.8812 161.633 14.8668C161.588 14.8523 161.547 14.8282 161.513 14.7961C161.479 14.7641 161.452 14.7248 161.435 14.6813C161.418 14.6376 161.41 14.5907 161.412 14.5437C161.64 14.4888 161.876 14.482 162.107 14.5239Z" fill="#292929"/>
<path d="M88.2217 14.3139C87.8749 14.7735 87.7445 14.7665 87.5281 14.2789C87.7588 14.2394 87.9958 14.2514 88.2217 14.3139Z" fill="#292929"/>
<path d="M75.5032 13.6209C75.1563 14.0748 75.028 14.0678 74.8094 13.5871C75.0404 13.548 75.277 13.5596 75.5032 13.6209Z" fill="#292929"/>
<path d="M99.8999 14.7782C99.561 15.2343 99.4307 15.2297 99.2063 14.7548C99.4362 14.7141 99.6724 14.7221 99.8999 14.7782Z" fill="#292929"/>
<path d="M90.5341 14.4282C90.1936 14.8879 90.0601 14.8821 89.8405 14.4002C90.0711 14.3623 90.3074 14.3718 90.5341 14.4282Z" fill="#292929"/>
<path d="M68.9125 13.1578C68.5876 13.5848 68.4558 13.5743 68.2327 13.1018L68.9125 13.1578Z" fill="#292929"/>
<path d="M85.9092 14.1938C85.8958 14.3828 85.8144 14.5298 85.609 14.5216C85.4028 14.5134 85.3396 14.3548 85.3309 14.1716C85.5229 14.1305 85.7212 14.1381 85.9092 14.1938Z" fill="#292929"/>
<path d="M83.5969 14.077C83.5826 14.266 83.5036 14.4141 83.2967 14.4048C83.0897 14.3955 83.0257 14.2368 83.0201 14.0548C83.2113 14.0125 83.4096 14.0201 83.5969 14.077Z" fill="#292929"/>
<path d="M214.831 11.3961C214.831 11.3564 214.831 11.3167 214.831 11.2794C215.051 11.2957 215.163 10.9621 215.42 11.0951C215.425 11.1536 215.417 11.2125 215.394 11.2665C215.371 11.3206 215.334 11.3679 215.289 11.4042L215.039 11.4416L214.831 11.3961Z" fill="#6F6F6F"/>
<path d="M77.4688 13.7328C77.4665 13.7759 77.4556 13.8179 77.4367 13.8566C77.4179 13.8953 77.3914 13.9296 77.359 13.9577C77.3265 13.9857 77.2888 14.0068 77.2481 14.0197C77.2074 14.0326 77.1644 14.037 77.122 14.0326C76.9312 14.0326 76.9011 13.8623 76.8907 13.7048L77.4688 13.7328Z" fill="#292929"/>
<path d="M81.5158 13.9649C81.5134 14.008 81.5032 14.0502 81.4842 14.0891C81.4652 14.1278 81.4392 14.1624 81.406 14.1905C81.3736 14.2186 81.3357 14.2397 81.2954 14.2524C81.2543 14.2652 81.2109 14.2694 81.169 14.2647C80.9778 14.2647 80.9454 14.1002 80.9375 13.9415C81.1295 13.9029 81.3278 13.9109 81.5158 13.9649Z" fill="#292929"/>
<path d="M73.4219 13.5006C73.4198 13.5437 73.4089 13.5858 73.3901 13.6244C73.3713 13.6631 73.3448 13.6975 73.3123 13.7255C73.2799 13.7534 73.242 13.7744 73.2012 13.7871C73.1604 13.7998 73.1175 13.804 73.075 13.7993C72.8842 13.7993 72.8542 13.6301 72.8438 13.4715C73.036 13.4336 73.2344 13.4436 73.4219 13.5006Z" fill="#292929"/>
<path d="M171.857 11.2897C171.618 11.1042 171.59 10.8393 171.591 10.5652C171.894 10.7332 171.818 11.0307 171.857 11.2897Z" fill="#4B4B4B"/>
<path d="M67.4093 13.0352C67.1932 13.363 67 13.405 66.8451 12.9885L67.4093 13.0352Z" fill="#292929"/>
<path d="M70.1844 13.2663C70.1857 13.3004 70.179 13.3343 70.1648 13.3653C70.1505 13.3963 70.1292 13.4235 70.1026 13.4446C70.076 13.4656 70.0448 13.48 70.0115 13.4866C69.9783 13.493 69.944 13.4916 69.9115 13.4821C69.7635 13.4634 69.7346 13.3573 69.7323 13.2324L70.1844 13.2663Z" fill="#292929"/>
<path d="M79.4341 13.8483C79.4349 13.8819 79.4286 13.9152 79.4144 13.9455C79.4001 13.9759 79.3796 14.0027 79.3535 14.0236C79.3275 14.0445 79.2966 14.059 79.2643 14.0661C79.2319 14.0731 79.1979 14.0725 79.1663 14.0641C79.0225 14.0513 78.9845 13.9475 78.9764 13.8308L79.4341 13.8483Z" fill="#292929"/>
<path d="M166.5 14.1924C166.488 14.3312 166.536 14.4876 166.408 14.6054C166.201 14.5016 166.292 14.3301 166.269 14.1959L166.5 14.1924Z" fill="#292929"/>
<path d="M71.6875 13.3887C71.6701 13.5158 71.6123 13.5987 71.4712 13.6022C71.3036 13.6022 71.233 13.5147 71.2261 13.3572L71.6875 13.3887Z" fill="#292929"/>
<path d="M66.1375 12.9243C66.1202 13.0899 66.0219 13.1506 65.8669 13.1354C65.712 13.1203 65.6866 13.0188 65.675 12.9021L66.1375 12.9243Z" fill="#292929"/>
<path d="M64.6344 12.8019C64.617 12.8975 64.6032 12.999 64.4795 13.0072C64.3222 13.0177 64.3014 12.901 64.2875 12.7832L64.6344 12.8019Z" fill="#292929"/>
<path d="M155.285 14.7666C155.27 14.8832 155.244 14.9999 155.089 14.9824C154.973 14.9719 154.954 14.8716 154.938 14.7782L155.285 14.7666Z" fill="#292929"/>
<path d="M216.44 11.0496V11.1663C216.318 11.1581 216.181 11.2024 216.093 11.0683C216.143 11.0321 216.202 11.0111 216.264 11.0078C216.325 11.0045 216.386 11.019 216.44 11.0496Z" fill="#6F6F6F"/>
<path d="M61.7438 12.5674C61.7264 12.663 61.7126 12.7669 61.5877 12.7739C61.427 12.782 61.4119 12.663 61.405 12.5405L61.7438 12.5674Z" fill="#292929"/>
<path d="M51.6901 11.6398C51.6577 11.6993 51.6312 11.8032 51.5918 11.8078C51.4658 11.8242 51.4762 11.7075 51.4589 11.6223L51.6901 11.6398Z" fill="#292929"/>
<path d="M63.1313 12.6817C63.1001 12.7423 63.0746 12.8473 63.0342 12.8532C62.907 12.8707 62.9185 12.7528 62.9 12.6665L63.1313 12.6817Z" fill="#292929"/>
<path d="M60.3562 12.4518C60.3239 12.5113 60.2985 12.6163 60.2591 12.621C60.132 12.6373 60.1435 12.5195 60.125 12.4343L60.3562 12.4518Z" fill="#292929"/>
<path d="M56.1996 12.1041C56.1672 12.1624 56.1406 12.2674 56.1014 12.2721C55.9753 12.2884 55.9857 12.1718 55.9684 12.0854L56.1996 12.1041Z" fill="#292929"/>
<path d="M44.985 10.9433C44.9527 11.0017 44.9261 11.1055 44.8867 11.1113C44.7607 11.1277 44.7712 11.011 44.7538 10.9258L44.985 10.9433Z" fill="#292929"/>
<path d="M43.8288 10.8256C43.7965 10.8851 43.7698 10.9901 43.7305 10.9948C43.6045 11.0111 43.6149 10.8933 43.5975 10.8081L43.8288 10.8256Z" fill="#292929"/>
<path d="M42.7881 10.7111C42.7546 10.7694 42.7268 10.8744 42.6875 10.8791C42.5615 10.8919 42.5719 10.7741 42.5569 10.6877L42.7881 10.7111Z" fill="#292929"/>
<path d="M218.753 15.3531C218.492 15.4126 218.238 15.4955 217.961 15.4698C217.435 15.4243 217.398 15.856 217.313 16.1966C217.249 16.4545 217.492 16.388 217.623 16.3926C217.97 16.4078 218.218 16.5548 218.277 16.9188C218.297 17.0262 218.276 17.1375 218.217 17.229C218.157 17.3205 218.065 17.385 217.959 17.4088C217.645 17.5021 217.339 17.4706 217.159 17.1381C216.992 16.8325 216.779 16.7881 216.494 16.9783C216.208 17.1685 215.857 17.2175 215.503 17.2116C214.436 17.1892 213.37 17.2622 212.317 17.4298C211.976 17.4881 211.738 17.4158 211.668 16.9865C211.597 16.5805 211.215 16.2678 211.234 15.8116C211.483 15.8233 211.502 16.052 211.606 16.2036C211.838 16.5361 212.129 16.745 212.561 16.7485C213.554 16.7449 214.544 16.6796 215.528 16.5525C216.188 16.4731 216.492 16.0986 216.782 15.6051C216.909 15.3858 216.91 15.058 217.244 14.9985L218.747 14.8818L218.753 15.3531Z" fill="#282828"/>
<path d="M211.929 13.6092C211.722 13.3689 211.796 13.1426 212.14 13.1647C213.045 13.2184 213.874 12.8147 214.786 12.8147C215.382 12.8147 215.942 12.6981 216.48 13.0247C216.545 13.0632 216.657 13.0679 216.682 13.1204C217.109 13.9931 217.971 14.0094 218.747 14.1926C218.75 14.2314 218.75 14.2703 218.747 14.3092C218.183 14.5426 217.591 14.3722 217.013 14.4259H216.897C216.674 13.8752 216.368 13.4086 215.741 13.2686C215.278 13.2872 214.826 13.4471 214.354 13.3852C214.199 13.2226 214.045 13.2226 213.891 13.3852C213.231 13.3806 212.561 13.3351 211.929 13.6092Z" fill="#272727"/>
<path d="M219.346 17.4802C219.412 15.703 219.309 13.9235 219.039 12.166C219.451 12.7132 219.386 13.3817 219.558 13.9848C219.789 14.8202 219.443 15.694 219.747 16.5445C219.839 16.8058 219.7 17.2212 219.346 17.4802Z" fill="#363636"/>
<path d="M217.016 14.4246C217.595 14.3698 218.186 14.5413 218.751 14.3079V14.8913L217.248 15.0079C217.298 14.7583 217.122 14.6054 217.016 14.4246Z" fill="#333333"/>
<path d="M217.016 14.4247C217.122 14.6056 217.298 14.7584 217.248 15.0081C216.911 15.0676 216.909 15.3954 216.785 15.6147C216.495 16.1082 216.191 16.4827 215.532 16.5621C214.548 16.6891 213.557 16.7546 212.565 16.7581C212.132 16.7581 211.841 16.5457 211.61 16.2132C211.506 16.0616 211.486 15.8329 211.237 15.8212H211.122C210.763 15.4456 210.332 15.4899 210.082 15.9204C209.83 16.3509 209.718 16.9622 209.127 17.0707C208.72 17.1466 208.306 17.2749 207.877 17.2177C207.688 17.0252 207.58 17.0871 207.53 17.3344L206.951 17.2236C206.771 17.0439 206.744 17.1886 206.72 17.3402H206.258C206.089 17.1466 205.861 17.2551 205.662 17.2236C205.51 17.1979 205.322 17.1734 205.284 17.0147C205.235 16.8036 205.429 16.7814 205.581 16.7616C205.639 16.7592 205.694 16.734 205.733 16.6914C205.773 16.6489 205.794 16.5924 205.793 16.5341L206.024 16.5236C206.526 16.9331 206.971 16.6402 207.421 16.4069C207.712 16.1316 207.725 15.7711 207.598 15.4514C207.46 15.1014 207.097 15.2729 206.829 15.2531C206.56 15.2332 206.296 15.2531 206.029 15.2531C205.977 14.9252 205.782 15.0676 205.597 15.1072C205.345 15.1632 205.183 15.0034 205.135 14.7817C205.081 14.5239 205.343 14.5344 205.482 14.4936C206.291 14.2602 207.142 14.3582 207.952 14.1902C208.637 14.0491 209.121 14.2159 209.539 14.7561C209.673 14.9287 209.901 15.0407 210.104 15.1457C210.606 15.4094 211.055 15.2904 211.332 14.7957C211.546 14.4154 211.803 14.0526 211.922 13.6291C212.554 13.3549 213.224 13.3957 213.888 13.3957C214.041 13.5591 214.197 13.5591 214.35 13.3957C214.821 13.4599 215.275 13.3001 215.737 13.2791C216.121 13.6687 216.358 14.2054 216.894 14.4364L217.016 14.4247Z" fill="#3C3C3C"/>
<path d="M206.029 16.5084L205.797 16.5189C203.806 16.4477 201.83 16.7312 199.844 16.7826C199.334 16.7954 198.778 16.7394 198.278 16.9739L197.469 16.9844H196.891C196.577 16.9132 196.186 17.1442 195.956 16.7452C195.964 16.7 195.957 16.6534 195.938 16.6117C195.919 16.57 195.889 16.5352 195.849 16.5119V16.2786C195.99 15.9204 196.233 15.7431 196.632 15.8119C196.697 15.8301 196.765 15.8312 196.831 15.8148C196.896 15.7984 196.957 15.7653 197.006 15.7186L197.121 15.7081L197.924 15.6987L204.283 15.3487C204.863 15.3856 205.446 15.3492 206.017 15.2402C206.285 15.2402 206.552 15.2251 206.817 15.2402C207.082 15.2554 207.448 15.0944 207.586 15.4386C207.713 15.7582 207.702 16.1187 207.41 16.3941C206.962 16.4501 206.48 16.2844 206.029 16.5084Z" fill="#5A5A5A"/>
<path d="M183.834 16.6319C184.018 16.8548 184.269 16.8734 184.529 16.8653V17.2153C184.278 17.2374 183.985 17.1289 183.834 17.4486C183.547 17.5221 183.257 17.6819 183.025 17.3319C183.123 16.8163 182.91 16.4756 182.526 16.5561C182.234 16.6168 182.015 16.7894 182.109 17.1243C182.225 17.5431 182.529 17.6318 182.918 17.4591C183.016 17.9363 182.374 17.7811 182.34 18.1439H181.763C181.472 17.8324 181.099 17.8721 180.731 18.2606C180.139 18.8871 179.98 19.7458 179.566 20.4679C179.566 20.5053 179.566 20.5437 179.566 20.5846C179.2 20.6616 179.383 20.9568 179.334 21.1609C178.369 21.1819 177.4 21.1189 176.443 21.2776C176.458 21.0338 176.408 20.7905 176.3 20.5718C176.115 20.2218 176.145 19.8904 176.675 19.8858H176.79C176.972 19.9896 176.884 19.8181 176.913 19.7691C176.879 19.5556 176.847 19.3421 176.797 19.0317C176.645 19.2907 176.694 19.4774 176.682 19.6536C176.201 19.5871 176.079 19.3817 176.305 18.9232C176.574 18.4084 176.962 17.966 177.435 17.6329C177.794 17.3634 178.254 17.2444 178.534 16.8664C178.884 16.9303 179.215 17.0726 179.503 17.2829C179.723 17.4509 179.957 17.6259 180.267 17.5606H180.383C180.403 17.7659 180.532 17.8126 180.706 17.7753C180.95 17.7216 180.963 17.5279 180.962 17.3284C181.25 17.0648 181.492 16.8081 181.594 16.3788C181.693 15.9693 182.09 15.6928 182.466 15.4688H182.928C182.928 15.5072 182.928 15.5457 182.928 15.5854C183.07 15.9354 183.224 16.2702 183.622 16.4021C183.619 16.4316 183.623 16.4613 183.633 16.4893C183.642 16.5173 183.658 16.5429 183.678 16.5645C183.697 16.5862 183.722 16.6033 183.749 16.615C183.776 16.6266 183.805 16.6324 183.834 16.6319ZM177.253 20.3443C177.209 20.2917 177.138 20.2043 177.097 20.2941C177.056 20.3839 177.174 20.4283 177.251 20.4668C177.425 20.5689 177.628 20.61 177.829 20.5834C178.689 20.5636 179.362 19.7516 178.985 19.1298C178.808 18.8369 178.947 18.7587 179.065 18.5651C179.183 18.3714 179.615 18.1486 179.103 17.9047C179.087 17.7426 178.987 17.6912 178.837 17.6714C178.375 17.6271 177.585 18.2279 177.483 18.7214C176.917 19.2266 177.129 19.7306 177.483 20.2381L177.253 20.3443Z" fill="#363636"/>
<path d="M190.425 18.3727C189.809 18.2969 189.211 18.5069 188.596 18.4952C187.879 18.4824 187.351 18.2001 187.049 17.5304C187.041 17.5129 187.031 17.4966 187.024 17.4791C186.907 17.1711 186.28 17.0684 186.606 16.6017C187.033 15.9916 187.369 15.2227 188.351 15.3441C188.767 15.3954 189.195 15.3522 189.623 15.3522C189.646 15.6042 189.831 15.6019 190.003 15.5786C190.798 15.4677 191.359 15.9437 191.942 16.3567C192.098 16.4664 192.266 16.6531 192.099 16.8409C191.665 17.3297 191.363 17.9807 190.64 18.1417C190.582 18.1458 190.527 18.1719 190.488 18.2147C190.448 18.2576 190.425 18.314 190.425 18.3727Z" fill="#3D3D3D"/>
<path d="M207.884 17.2131C208.313 17.2703 208.727 17.1419 209.134 17.0661C209.725 16.9576 209.837 16.3568 210.089 15.9158C210.341 15.4748 210.765 15.4409 211.129 15.8166C210.421 15.9823 210.427 16.7126 210.089 17.1711C209.984 17.3312 209.841 17.4616 209.672 17.5497C209.502 17.6378 209.314 17.6805 209.124 17.6739C207.957 17.682 206.793 17.7579 205.634 17.9014C205.414 17.9271 205.11 18.0076 204.976 17.8046C204.558 17.1676 203.922 17.3228 203.374 17.3694C202.327 17.4593 201.282 17.5958 200.228 17.5573C200.065 17.5456 199.9 17.5738 199.75 17.6396C199.6 17.7054 199.467 17.8069 199.364 17.9353C199.27 18.0587 199.15 18.1601 199.013 18.2327C198.876 18.3051 198.726 18.347 198.571 18.3553C197.293 18.3856 196.027 18.5046 194.749 18.6014C194.643 18.606 194.537 18.5868 194.438 18.545C194.34 18.5033 194.252 18.44 194.181 18.3599C193.928 18.0998 193.939 17.9178 194.357 17.9084C194.726 18.1149 195.126 17.9913 195.513 18.0251C195.629 18.1744 195.744 18.1744 195.859 18.0251C196.36 17.9773 196.855 17.8583 197.363 17.9084C197.551 18.0963 197.661 18.0391 197.71 17.7918H198.288C198.468 17.9691 198.496 17.8256 198.519 17.6751C198.627 17.6843 198.735 17.6681 198.835 17.6275C198.936 17.587 199.025 17.5234 199.097 17.4418C199.366 17.2945 199.663 17.2115 199.969 17.1991C201.125 17.1116 202.282 16.9716 203.437 16.8748C203.97 16.8304 204.492 16.8094 204.972 17.1851C205.338 17.4721 205.795 17.5876 206.258 17.3251H206.72C206.766 17.331 206.812 17.3232 206.853 17.3024C206.895 17.2816 206.929 17.2488 206.951 17.2084L207.53 17.3193C207.662 17.3251 207.799 17.3484 207.884 17.2131Z" fill="#282828"/>
<path d="M199.099 17.4441C199.027 17.5257 198.938 17.5894 198.838 17.6299C198.737 17.6704 198.629 17.6866 198.521 17.6774C198.476 17.6714 198.429 17.6793 198.388 17.7001C198.347 17.7209 198.312 17.7537 198.29 17.7941H197.712C197.583 17.7941 197.447 17.7696 197.365 17.9107C196.857 17.8582 196.362 17.9772 195.862 18.0274C195.746 17.8789 195.631 17.8789 195.515 18.0274C195.128 17.9936 194.728 18.1172 194.359 17.9107C194.21 17.3951 193.586 17.2621 193.434 16.7499L193.549 15.9332L193.781 15.6999C193.927 15.6788 194.062 15.6105 194.166 15.5054C194.27 15.4002 194.338 15.2638 194.359 15.1166C194.59 15.0769 194.807 14.9591 195.053 14.9999C195.085 15.0641 195.101 15.1597 195.153 15.1901C195.576 15.4397 195.771 15.7419 195.79 16.1969C195.79 16.2249 195.839 16.2506 195.864 16.2774V16.5107C195.689 16.6857 195.818 16.7196 195.971 16.7441C196.202 17.1431 196.592 16.9121 196.904 16.9832C197.096 17.3461 197.288 17.3472 197.483 16.9832L198.293 16.9727C198.48 17.2667 198.97 17.0334 199.099 17.4441Z" fill="#3C3C3C"/>
<path d="M195.05 15.0058C194.806 14.9638 194.587 15.0816 194.357 15.1224H194.241C194.145 14.5659 194.367 14.3793 194.928 14.4143C195.749 14.4656 196.567 14.3314 197.38 14.2078C197.939 14.1226 198.513 14.1914 198.9 14.5578C199.355 14.9941 199.798 14.9603 200.341 14.9078C201.273 14.8133 202.215 14.8109 203.153 14.7701C203.346 14.7735 203.539 14.7649 203.731 14.7444C204.367 14.6359 204.437 14.7036 204.302 15.3429L197.942 15.6929C197.951 15.6369 197.971 15.5832 197.999 15.5343C198.144 15.3779 198.59 15.5798 198.495 15.1539C198.405 14.7468 198.039 14.8879 197.779 14.8868C196.868 14.8879 195.954 14.8331 195.05 15.0058Z" fill="#292929"/>
<path d="M193.549 15.9356L193.434 16.7523C192.675 16.617 192.186 16.9215 191.941 17.6553C191.688 18.4136 191.052 18.3903 190.428 18.3775C190.427 18.3192 190.448 18.263 190.487 18.2198C190.526 18.1766 190.58 18.1497 190.636 18.1441C191.359 17.9831 191.661 17.3275 192.096 16.8433C192.262 16.6555 192.096 16.4688 191.938 16.3591C191.361 15.9461 190.795 15.4701 190 15.581C189.827 15.6043 189.643 15.6066 189.62 15.3546C190.092 15.2951 190.561 15.4001 191.039 15.3826C191.517 15.3651 191.777 15.8213 192.08 16.1293C192.382 16.4373 192.698 16.5726 193.225 16.4081C192.604 16.2028 192.604 15.4386 193.123 15.2648C193.314 15.2018 193.492 15.0921 193.688 15.0315C193.839 15.3873 193.305 15.5961 193.549 15.9356Z" fill="#363636"/>
<path d="M183.836 17.4429C183.986 17.1244 184.28 17.2329 184.529 17.2096C185.004 17.1851 185.482 17.2656 185.956 17.1174C186.155 17.0544 186.427 17.1174 186.455 17.3718C186.482 17.6261 186.198 17.5071 186.063 17.5759C185.6 17.8093 185.123 17.5328 184.656 17.6646C184.483 17.7136 184.35 17.7404 184.238 17.9038C183.567 18.8838 183.142 19.0261 182.03 18.6831C181.901 18.65 181.771 18.6239 181.64 18.6049C181.64 18.4509 181.64 18.2969 181.64 18.1383H181.756H182.334C183.045 18.5058 183.472 18.3074 183.836 17.4429Z" fill="#272727"/>
<path d="M181.639 18.1428C181.639 18.298 181.639 18.452 181.639 18.6095C181.06 18.893 180.664 19.2838 180.83 20.0095C180.514 20.2137 180.299 20.5287 179.992 20.7527C179.686 20.9767 179.61 20.8938 179.555 20.5893C179.555 20.5508 179.555 20.5123 179.555 20.4727C179.737 20.4396 179.902 20.3459 180.025 20.2068C180.148 20.0676 180.221 19.8909 180.232 19.705C180.313 18.8008 180.944 18.4532 181.639 18.1428Z" fill="#242424"/>
<path d="M180.831 20C180.905 19.9825 180.98 19.9673 181.054 19.9463C181.41 19.8448 181.761 19.7771 181.856 20.2811C181.915 20.5961 181.813 20.791 181.444 20.8201C180.946 20.8586 180.773 20.6405 180.83 20.1738C180.833 20.1159 180.833 20.0579 180.83 20H180.831Z" fill="#242424"/>
<path d="M182.109 14.1926C182.094 14.2941 182.142 14.4352 182.018 14.4784C181.895 14.5216 181.895 14.3886 181.872 14.3081C181.933 13.9849 181.765 13.6921 181.756 13.3747V13.2581C182.087 13.4529 182.451 13.3479 182.798 13.3747C182.78 13.4984 182.726 13.6081 182.591 13.5987C182.121 13.5497 182.058 13.8216 182.109 14.1926Z" fill="#404040"/>
<path d="M212.634 18.7158H212.045C212.087 18.591 211.963 18.3658 212.16 18.3495C212.386 18.3343 212.608 18.423 212.634 18.7158Z" fill="#4B4B4B"/>
<path d="M183.024 13.2661C183.547 13.0793 184.119 13.0793 184.642 13.2661H183.024Z" fill="#4B4B4B"/>
<path d="M215.756 18.6026L215.392 18.4754C215.534 18.3063 215.651 18.1044 215.906 18.0613C215.988 18.3016 215.694 18.3996 215.756 18.6026Z" fill="#4B4B4B"/>
<path d="M194.242 15.1199H194.357C194.337 15.267 194.269 15.4035 194.165 15.5086C194.06 15.6138 193.925 15.682 193.779 15.7032C193.806 15.4057 194.026 15.2646 194.242 15.1199Z" fill="#363636"/>
<path d="M215.033 11.4392L215.283 11.4019C215.267 11.4906 215.26 11.6527 215.231 11.6562C215.089 11.6761 215.069 11.5431 215.033 11.4392Z" fill="#4B4B4B"/>
<path d="M208.345 12.565C208.419 12.5755 208.504 12.5755 208.519 12.6724C208.519 12.691 208.474 12.7389 208.455 12.7354C208.358 12.7214 208.358 12.6374 208.347 12.5627L208.345 12.565Z" fill="#4B4B4B"/>
<path d="M169.738 14.0735C169.769 14.069 169.801 14.0664 169.832 14.0654C169.934 14.4962 169.981 14.9386 169.971 15.3814C170.002 17.3484 169.941 19.3119 169.84 21.2742H169.644C169.805 18.8744 169.7 16.4734 169.738 14.0735Z" fill="#575757"/>
<path d="M170.189 22.6754C169.786 22.6031 169.786 22.6031 169.661 23.0441C169.083 22.6077 169.615 21.9801 169.384 21.4936L169.616 21.4002L169.828 21.5169C169.798 21.6662 169.768 21.8156 169.736 21.9649C169.736 22.0816 169.764 22.1889 169.903 22.1889C170.042 22.1889 170.067 22.0792 170.07 21.9649L170.235 19.4087C170.626 19.8299 170.437 20.3549 170.389 20.8017C170.321 21.267 170.333 21.741 170.428 22.2017C170.118 22.2414 170.224 22.4946 170.189 22.6754Z" fill="#5A5A5A"/>
<path d="M169.833 21.5182L169.617 21.4016C169.624 21.3584 169.633 21.3164 169.639 21.2732H169.84L169.833 21.5182Z" fill="#4B4B4B"/>
<path d="M180.252 17.5597C179.942 17.625 179.708 17.45 179.488 17.282C179.2 17.0717 178.869 16.9293 178.52 16.8655C177.92 16.8188 177.563 17.3917 176.991 17.4488C176.323 17.52 175.381 18.5373 175.297 19.1988C175.283 19.3155 175.265 19.4462 175.412 19.4893C175.56 19.5325 175.609 19.4228 175.634 19.2992C175.652 19.2047 175.669 19.1032 175.808 19.151C176.004 19.7122 175.862 20.2605 175.754 20.81C175.728 21.5462 175.662 21.6418 174.961 21.6115C174.19 21.5777 173.434 21.6967 172.672 21.7433C172.195 21.7713 172.142 21.5555 172.18 21.153C172.396 18.808 172.237 16.456 172.264 14.1087C172.248 13.9749 172.217 13.8435 172.169 13.7178C172.701 13.7995 173.2 13.8812 173.542 14.4178C173.741 14.7293 174.14 14.7282 174.482 14.5345C174.866 14.3152 175.175 14.4237 175.442 14.748C175.737 15.098 175.651 15.3593 175.188 15.4702C174.994 15.5157 174.765 15.5028 174.652 15.7175C174.637 15.7443 174.686 15.8342 174.727 15.8552C174.949 15.9928 175.168 15.9357 175.38 15.8237C175.451 15.7952 175.517 15.7523 175.571 15.6977C176.103 14.9977 176.786 15.1902 177.466 15.3675C177.613 15.406 177.797 15.4527 177.813 15.6312C177.858 16.3568 178.453 16.309 178.903 16.3848C179.735 16.5283 180.234 16.9168 180.252 17.5597Z" fill="#282828"/>
<path d="M175.75 20.8179C175.859 20.2684 176.001 19.7201 175.804 19.1589C175.665 19.1111 175.648 19.2126 175.63 19.3071C175.605 19.4307 175.56 19.5404 175.409 19.4972C175.257 19.4541 175.285 19.3211 175.293 19.2067C175.378 18.5417 176.318 17.5244 176.987 17.4567C177.565 17.3949 177.912 16.8221 178.516 16.8734C178.236 17.2514 177.775 17.3704 177.416 17.6399C176.943 17.973 176.555 18.4154 176.286 18.9302C176.055 19.3887 176.183 19.5941 176.663 19.6606V19.8939C176.134 19.8939 176.104 20.2287 176.288 20.5799C176.397 20.7987 176.446 21.0419 176.432 21.2857C176.247 21.2939 176.099 21.2636 176.085 21.0302C176.066 20.8097 175.901 20.8167 175.75 20.8179Z" fill="#303030"/>
<path d="M169.828 21.518L169.836 21.2742C169.937 19.3118 169.997 17.3483 169.967 15.3813C169.976 14.9384 169.93 14.4961 169.828 14.0653C169.791 13.8122 169.755 13.5578 169.712 13.3035C170.067 13.7153 170.174 14.1948 170.189 14.7035C170.252 16.2727 170.374 17.8418 170.23 19.4133C170.176 20.265 170.122 21.117 170.066 21.9695H169.738C169.768 21.8167 169.798 21.6673 169.828 21.518Z" fill="#292929"/>
<path d="M170.336 12.4297C170.434 12.7961 170.648 13.1706 170.247 13.6792C170.177 13.1834 170.141 12.8124 170.336 12.4297Z" fill="#4B4B4B"/>
<path d="M169.952 25.0283C169.824 24.6704 169.817 24.2791 169.932 23.9165C170.026 24.0858 170.076 24.2758 170.08 24.4698C170.084 24.6637 170.04 24.8556 169.952 25.0283Z" fill="#4B4B4B"/>
<path d="M169.817 11.2971C169.711 10.9471 169.712 10.5842 169.773 10.1094C170.052 10.5679 169.986 10.9284 169.817 11.2971Z" fill="#4B4B4B"/>
<path d="M169.275 12.4297C169.58 12.8859 169.496 13.2114 169.456 13.6827C169.159 13.2347 169.292 12.8894 169.275 12.4297Z" fill="#4B4B4B"/>
<path d="M170.189 22.6753C170.224 22.4945 170.118 22.2413 170.429 22.2017V23.2843C170.114 23.0568 170.234 22.8457 170.189 22.6753Z" fill="#404040"/>
<path d="M110.044 18.0834C110.012 18.3704 109.82 18.3797 109.623 18.3739C109.391 18.3739 109.266 18.2491 109.276 18.0169C109.288 17.7287 109.508 17.6062 109.738 17.6144C110.015 17.6167 109.92 17.9446 110.044 18.0834Z" fill="#292929"/>
<path d="M152.487 16.9808C152.625 16.9808 152.751 16.9679 152.813 17.0974C152.838 17.1395 152.848 17.188 152.843 17.2363C152.839 17.2846 152.82 17.3303 152.788 17.3669C152.749 17.411 152.696 17.4393 152.638 17.4468C152.58 17.4543 152.521 17.4404 152.472 17.4078C152.394 17.3551 152.305 17.3199 152.213 17.3048C152.121 17.2897 152.025 17.295 151.935 17.3203C151.836 17.3389 151.729 17.2969 151.746 17.1721C151.748 17.1475 151.755 17.1237 151.767 17.1022C151.779 17.0808 151.796 17.0623 151.816 17.0481C151.835 17.0339 151.858 17.0244 151.882 17.0202C151.907 17.0161 151.931 17.0174 151.955 17.0239C152.153 17.1033 152.328 16.9994 152.487 16.9808Z" fill="#292929"/>
<path d="M143.577 17.4522C143.59 17.6074 143.504 17.6645 143.37 17.6692C143.212 17.675 143.05 17.6774 143.038 17.4545C143.032 17.4257 143.033 17.3958 143.04 17.3671C143.047 17.3385 143.06 17.3118 143.079 17.2892C143.098 17.2667 143.122 17.2489 143.149 17.237C143.176 17.2252 143.205 17.2198 143.234 17.2212C143.31 17.2064 143.388 17.2223 143.452 17.2656C143.517 17.3088 143.562 17.3759 143.577 17.4522Z" fill="#292929"/>
<path d="M87.1503 17.304C87.1511 17.3382 87.1448 17.3723 87.1314 17.4038C87.1187 17.4352 87.0982 17.4634 87.0729 17.4862C87.0476 17.509 87.0176 17.5259 86.9852 17.5358C86.9528 17.5457 86.9189 17.5482 86.8849 17.5432C86.7372 17.5374 86.6226 17.451 86.6455 17.29C86.6605 17.1839 86.704 17.0415 86.832 17.0322C87.0089 17.0182 87.0856 17.1652 87.1503 17.304Z" fill="#292929"/>
<path d="M82.4291 17.6902C82.4307 17.7191 82.426 17.7479 82.4149 17.7746C82.4046 17.8013 82.388 17.8253 82.3667 17.8448C82.3462 17.8644 82.3209 17.8789 82.294 17.8875C82.2664 17.8961 82.2379 17.8985 82.2095 17.8944C82.0357 17.8944 81.978 17.7847 81.9954 17.6319C82.0128 17.4791 82.1107 17.4476 82.2395 17.4581C82.3675 17.4686 82.4323 17.5584 82.4291 17.6902Z" fill="#292929"/>
<path d="M89.1674 17.7953C89.1745 17.6028 89.2709 17.5619 89.3988 17.5713C89.5276 17.5806 89.6114 17.6424 89.59 17.7813C89.5892 17.8094 89.5829 17.8371 89.5711 17.8626C89.5592 17.8882 89.5426 17.9111 89.5221 17.9299C89.5015 17.9488 89.4771 17.9632 89.451 17.9724C89.4249 17.9815 89.3965 17.9852 89.3688 17.9831C89.2314 17.9738 89.199 17.8594 89.1674 17.7953Z" fill="#292929"/>
<path d="M141.04 17.3296C140.977 17.3728 140.938 17.4171 140.897 17.4206C140.822 17.4276 140.748 17.3914 140.775 17.3039C140.783 17.2724 140.859 17.2398 140.903 17.2421C140.947 17.2444 140.98 17.2864 141.04 17.3296Z" fill="#292929"/>
<path d="M140.334 17.3765L140.431 17.4185C140.417 17.45 140.41 17.5002 140.387 17.5095C140.363 17.5189 140.325 17.4874 140.292 17.4734L140.334 17.3765Z" fill="#292929"/>
<path d="M86.6227 18.4474C86.4078 18.6679 86.2285 18.7834 85.9939 18.7764C85.9733 18.7489 85.9591 18.7175 85.9512 18.6842C85.9433 18.651 85.9417 18.6165 85.9472 18.5827C86.076 18.3167 86.2988 18.3541 86.6227 18.4474Z" fill="#272727"/>
<path d="M70.811 17.0111C70.825 16.9784 70.832 16.9282 70.8553 16.9189C70.8785 16.9096 70.9181 16.9422 70.9495 16.9562C70.9356 16.9889 70.9285 17.0391 70.9053 17.0472C70.882 17.0554 70.8425 17.0251 70.811 17.0111Z" fill="#272727"/>
<path d="M111.189 19.4519C111.156 19.4648 111.115 19.4951 111.093 19.4846C111.07 19.4741 111.065 19.4239 111.052 19.3913C111.085 19.3784 111.126 19.3481 111.148 19.3586C111.169 19.3691 111.175 19.4193 111.189 19.4519Z" fill="#272727"/>
<path d="M181.752 13.3794C181.761 13.692 181.929 13.9849 181.868 14.3127C180.513 14.2999 179.201 14.0152 177.887 13.706C177.096 13.5333 176.277 13.5301 175.485 13.6967C175.023 13.7854 174.61 13.6209 174.176 13.5894C173.722 13.5555 173.284 13.3292 172.804 13.2954C173.193 13.0702 173.613 13.1787 174.008 13.1495C174.455 13.391 174.933 13.2102 175.402 13.2662H176.894C177.241 13.2195 177.61 13.3829 177.934 13.1495H178.166C178.219 13.4692 178.473 13.3759 178.663 13.377C179.698 13.3817 180.722 13.3782 181.752 13.3794Z" fill="#303030"/>
<path d="M181.752 13.3794C180.725 13.3794 179.698 13.3794 178.67 13.3735C178.48 13.3735 178.226 13.4657 178.172 13.146C179.168 13.146 180.164 13.146 181.159 13.146C181.36 13.146 181.586 13.069 181.756 13.2627L181.752 13.3794Z" fill="#363636"/>
<path d="M175.403 13.2592C174.941 13.2056 174.456 13.3864 174.009 13.1426L174.472 13.0259H174.934C175.119 13.0469 175.36 12.9501 175.403 13.2592Z" fill="#363636"/>
<path d="M183.604 16.3986C183.208 16.2691 183.054 15.932 182.911 15.582C183.336 15.6893 183.519 16.002 183.604 16.3986Z" fill="#303030"/>
<path d="M180.946 17.3286C180.946 17.5281 180.933 17.7217 180.69 17.7754C180.516 17.8127 180.386 17.7661 180.367 17.5607L180.946 17.3286Z" fill="#303030"/>
<path d="M180.628 16.2167C180.184 16.275 180.05 16.0639 179.912 15.7092C180.244 15.8072 180.394 15.9997 180.628 16.2167Z" fill="#282828"/>
<path d="M182.911 15.4688H182.448C182.461 15.3627 182.411 15.2017 182.546 15.1772C182.746 15.141 182.823 15.3277 182.911 15.4688Z" fill="#303030"/>
<path d="M178.709 14.9064C178.677 14.9581 178.633 15.0006 178.58 15.0296C178.527 15.0586 178.468 15.0733 178.407 15.0721C178.377 15.0721 178.324 14.9776 178.336 14.9554C178.352 14.8992 178.389 14.8517 178.441 14.8233C178.491 14.7948 178.551 14.7878 178.607 14.8038C178.648 14.8096 178.677 14.8691 178.709 14.9064Z" fill="#282828"/>
<path d="M177.939 13.1462C177.612 13.3795 177.245 13.2127 176.898 13.2628C177.222 13.033 177.592 13.1952 177.939 13.1462Z" fill="#363636"/>
<path d="M174.941 13.0271H174.478C174.492 12.9104 174.54 12.8124 174.681 12.8042C174.712 12.7972 174.746 12.7978 174.778 12.8058C174.81 12.8139 174.84 12.8294 174.865 12.8509C174.89 12.8725 174.91 12.8995 174.923 12.9301C174.936 12.9606 174.942 12.9938 174.941 13.0271Z" fill="#303030"/>
<path d="M181.97 15.0652C182.025 15.0139 182.061 14.9485 182.099 14.9485C182.202 14.9485 182.215 15.0372 182.207 15.113C182.2 15.1889 182.23 15.2985 182.102 15.2484C182.047 15.2262 182.018 15.1352 181.97 15.0652Z" fill="#404040"/>
<path d="M183.834 16.632C183.803 16.6353 183.772 16.6316 183.743 16.621C183.712 16.6104 183.686 16.5933 183.664 16.571C183.641 16.5486 183.625 16.5215 183.614 16.4917C183.603 16.462 183.6 16.4301 183.603 16.3987C183.634 16.3949 183.666 16.3984 183.696 16.4088C183.726 16.4192 183.753 16.4363 183.775 16.4587C183.797 16.4812 183.814 16.5085 183.825 16.5384C183.835 16.5685 183.838 16.6005 183.834 16.632Z" fill="#303030"/>
<path d="M216.904 14.42C216.365 14.1867 216.128 13.6523 215.748 13.2627C216.375 13.4027 216.681 13.8693 216.904 14.42Z" fill="#333333"/>
<path d="M214.358 13.3771C214.205 13.5404 214.05 13.5404 213.896 13.3771C214.05 13.2145 214.204 13.2145 214.358 13.3771Z" fill="#333333"/>
<path d="M199.099 17.444C198.97 17.038 198.48 17.262 198.281 16.9774C198.782 16.744 199.338 16.7989 199.847 16.786C201.834 16.7347 203.81 16.4512 205.801 16.5224C205.802 16.5807 205.781 16.6371 205.741 16.6797C205.702 16.7222 205.647 16.7474 205.589 16.7499C205.437 16.7685 205.242 16.7919 205.292 17.003C205.33 17.1617 205.524 17.1862 205.67 17.2119C205.869 17.2457 206.097 17.1372 206.266 17.3285C205.803 17.591 205.34 17.4755 204.98 17.1885C204.5 16.8129 203.978 16.8385 203.446 16.8782C202.289 16.975 201.133 17.1115 199.977 17.2025C199.67 17.2137 199.369 17.2963 199.099 17.444Z" fill="#303030"/>
<path d="M206.029 16.5082C206.48 16.2842 206.962 16.4487 207.425 16.3916C206.976 16.6272 206.53 16.9166 206.029 16.5082Z" fill="#303030"/>
<path d="M207.884 17.2129C207.799 17.3483 207.662 17.3296 207.537 17.3296C207.587 17.0823 207.695 17.0204 207.884 17.2129Z" fill="#303030"/>
<path d="M206.959 17.2142C206.936 17.2547 206.902 17.2874 206.861 17.3082C206.819 17.3289 206.773 17.3369 206.727 17.3309C206.752 17.1792 206.778 17.0334 206.959 17.2142Z" fill="#303030"/>
<path d="M195.05 15.0057C195.954 14.833 196.868 14.889 197.779 14.889C198.039 14.889 198.405 14.749 198.495 15.1562C198.59 15.582 198.148 15.3802 197.999 15.5365C197.971 15.5854 197.951 15.6392 197.942 15.6952L197.139 15.7045C197.091 15.6193 197.051 15.6182 197.024 15.715C196.975 15.7617 196.915 15.7949 196.849 15.8112C196.784 15.8276 196.716 15.8265 196.65 15.8083C196.251 15.743 196.009 15.925 195.868 16.275C195.842 16.2482 195.795 16.2225 195.794 16.1945C195.774 15.7395 195.58 15.4373 195.156 15.1877C195.098 15.1667 195.083 15.0698 195.05 15.0057Z" fill="#363636"/>
<path d="M197.476 16.9844C197.285 17.3484 197.093 17.3472 196.898 16.9844H197.476Z" fill="#303030"/>
<path d="M195.969 16.7454C195.815 16.722 195.687 16.6882 195.862 16.512C195.902 16.5353 195.933 16.5702 195.953 16.6118C195.971 16.6536 195.977 16.7001 195.969 16.7454Z" fill="#363636"/>
<path d="M197.018 15.7198C197.05 15.6229 197.092 15.6241 197.134 15.7093L197.018 15.7198Z" fill="#292929"/>
<path d="M179.096 17.9038C179.608 18.1476 179.174 18.3705 179.058 18.5641C178.942 18.7578 178.802 18.836 178.979 19.1288C179.356 19.7506 178.683 20.5626 177.822 20.5825C177.826 20.5356 177.819 20.4884 177.803 20.4443C177.787 20.4002 177.761 20.36 177.729 20.3268C177.696 20.2935 177.656 20.2678 177.612 20.2516C177.568 20.2353 177.522 20.2287 177.475 20.2325C177.119 19.7296 176.907 19.2256 177.475 18.7158C177.937 18.4568 178.067 18.899 178.336 19.2315C178.419 18.619 178.85 18.3168 179.096 17.9038Z" fill="#4B4B4B"/>
<path d="M179.096 17.9038C178.85 18.3215 178.418 18.619 178.338 19.2361C178.068 18.9036 177.941 18.4615 177.476 18.7205C177.578 18.2328 178.366 17.632 178.83 17.6705C178.987 17.6903 179.08 17.7416 179.096 17.9038Z" fill="#404040"/>
<path d="M181.639 18.1428C180.945 18.4532 180.313 18.8008 180.235 19.698C180.224 19.8839 180.151 20.0605 180.029 20.1998C179.906 20.3389 179.74 20.4325 179.558 20.4657C179.972 19.7435 180.137 18.8848 180.725 18.2583C181.092 17.8687 181.466 17.829 181.756 18.1417L181.639 18.1428Z" fill="#303030"/>
<path d="M182.919 17.4546C182.534 17.6273 182.234 17.5386 182.11 17.1198C182.015 16.7884 182.234 16.6123 182.526 16.5516C182.911 16.4711 183.123 16.8118 183.025 17.3274L182.919 17.4546Z" fill="#6F6F6F"/>
<path d="M182.919 17.4545L183.035 17.3274C183.265 17.6774 183.559 17.5164 183.844 17.444C183.481 18.3085 183.053 18.5069 182.341 18.144C182.37 17.7765 183.011 17.9317 182.919 17.4545Z" fill="#303030"/>
<path d="M177.485 20.2322C177.531 20.2285 177.578 20.2351 177.621 20.2513C177.665 20.2676 177.705 20.2933 177.737 20.3265C177.771 20.3598 177.796 20.3999 177.813 20.4441C177.828 20.4882 177.835 20.5353 177.831 20.5822C177.631 20.6088 177.428 20.5678 177.253 20.4656C177.253 20.4247 177.253 20.3839 177.253 20.3431L177.485 20.2322Z" fill="#404040"/>
<path d="M176.667 19.8847V19.6514C176.68 19.4752 176.632 19.2885 176.782 19.0295C176.831 19.3399 176.864 19.5534 176.898 19.7669L176.775 19.8835L176.667 19.8847Z" fill="#404040"/>
<path d="M177.254 20.3444C177.254 20.3852 177.254 20.426 177.254 20.4669C177.177 20.4284 177.055 20.3875 177.099 20.2942C177.144 20.2009 177.21 20.2919 177.254 20.3444Z" fill="#4B4B4B"/>
<path d="M176.777 19.8882L176.9 19.7715C176.871 19.8205 176.959 19.992 176.777 19.8882Z" fill="#4B4B4B"/>
<path d="M195.514 18.0251C195.628 17.8758 195.743 17.8758 195.861 18.0251C195.746 18.1751 195.63 18.1751 195.514 18.0251Z" fill="#303030"/>
<path d="M197.363 17.9096C197.447 17.7719 197.583 17.7929 197.71 17.7929C197.661 18.0403 197.551 18.0974 197.363 17.9096Z" fill="#303030"/>
<path d="M198.288 17.793C198.31 17.7524 198.345 17.7197 198.386 17.699C198.427 17.6781 198.474 17.6703 198.519 17.6763C198.496 17.8268 198.468 17.9668 198.288 17.793Z" fill="#303030"/>
<path d="M169.738 21.9661H170.072C170.072 22.0828 170.042 22.1889 169.904 22.1901C169.766 22.1913 169.738 22.0816 169.738 21.9661Z" fill="#4B4B4B"/>
<path d="M9.51855 24.7561V4.26831H26.1093L21.3691 9.39026H14.2588V24.7561H9.51855ZM28.4794 24.7561L18.999 14.5122L28.4794 4.26831H35.5897L26.1093 14.5122L35.5897 24.7561H28.4794ZM44.922 17.0732V11.9512H54.4025V17.0732H44.922ZM37.8117 24.7561V9.39026L42.5519 4.26831H61.5128V9.39026H42.5519V19.6342H61.5128L56.7726 24.7561H37.8117ZM63.7347 22.1951V4.26831H68.475V17.0732L63.7347 22.1951ZM63.7347 24.7561L82.6954 4.26831H89.8058L70.8451 24.7561H63.7347Z" fill="#00D4FF"/>
<path d="M80.9076 24.756V21.5548H88.3142L91.2768 24.756H80.9076ZM92.7581 24.756L80.9076 11.9512H85.3515L97.2021 24.756H92.7581ZM89.7955 15.1524L86.8329 11.9512H97.2021V15.1524H89.7955ZM104.515 24.756V16.753H107.478V24.756H104.515ZM98.5902 15.1524L101.553 11.9512H113.403V15.1524H98.5902ZM114.792 24.756V11.9512L117.755 15.1524V21.5548H126.643L129.605 24.756H114.792ZM131.087 24.756L128.124 21.5548V15.1524H119.236L116.274 11.9512H128.124L131.087 15.1524V24.756ZM132.476 24.756V11.9512H142.845L139.882 15.1524H135.438V24.756H132.476ZM144.326 24.756L138.401 18.3536L144.326 11.9512H148.77L142.845 18.3536L148.77 24.756H144.326ZM154.603 19.9542V16.753H160.528V19.9542H154.603ZM150.159 24.756V15.1524L153.122 11.9512H164.972V15.1524H153.122V21.5548H164.972L162.009 24.756H150.159Z" fill="#00D4FF"/>
</svg>
