<?xml version="1.0" encoding="utf-8"?>
<!-- Generator: Adobe Illustrator 26.0.3, SVG Export Plug-In . SVG Version: 6.00 Build 0)  -->
<svg version="1.1"
	 id="svg3409" xmlns:cc="http://creativecommons.org/ns#" xmlns:dc="http://purl.org/dc/elements/1.1/" xmlns:inkscape="http://www.inkscape.org/namespaces/inkscape" xmlns:rdf="http://www.w3.org/1999/02/22-rdf-syntax-ns#" xmlns:sodipodi="http://sodipodi.sourceforge.net/DTD/sodipodi-0.dtd" xmlns:svg="http://www.w3.org/2000/svg"
	 xmlns="http://www.w3.org/2000/svg" xmlns:xlink="http://www.w3.org/1999/xlink" x="0px" y="0px" viewBox="0 0 499.6 388"
	 style="enable-background:new 0 0 499.6 388;" xml:space="preserve">
<style type="text/css">
	.st0{fill:#E0E0E0;}
	.st1{fill:#FF5A00;}
	.st2{fill:#EB001B;}
	.st3{fill:#F79E1B;}
</style>
<path id="XMLID_1775_" inkscape:connector-curvature="0" class="st0" d="M90.6,387.1v-25.8c0-9.9-6-16.3-16.3-16.3
	c-5.2,0-10.8,1.7-14.6,7.3c-3-4.7-7.3-7.3-13.8-7.3c-4.3,0-8.6,1.3-12,6V346h-9v41.2h9v-22.8c0-7.3,3.8-10.8,9.8-10.8s9,3.9,9,10.8
	v22.8h9v-22.8c0-7.3,4.3-10.8,9.8-10.8c6,0,9,3.9,9,10.8v22.8L90.6,387.1L90.6,387.1z M224.1,346h-14.6v-12.5h-9V346h-8.1v8.1h8.1
	V373c0,9.5,3.9,15,14.1,15c3.9,0,8.1-1.3,11.1-3l-2.6-7.8c-2.6,1.7-5.6,2.1-7.8,2.1c-4.3,0-6-2.6-6-6.9v-18.5H224L224.1,346
	L224.1,346z M300.5,345c-5.1,0-8.6,2.6-10.8,6v-5.1h-9v41.2h9v-23.2c0-6.9,3-10.8,8.6-10.8c1.7,0,3.9,0.5,5.6,0.9l2.6-8.6
	C304.7,345,302.1,345,300.5,345L300.5,345z M185,349.4c-4.3-3-10.3-4.3-16.8-4.3c-10.3,0-17.1,5.1-17.1,13.3c0,6.9,5.1,10.8,14.1,12
	l4.3,0.5c4.7,0.9,7.3,2.1,7.3,4.3c0,3-3.4,5.1-9.4,5.1s-10.8-2.1-13.8-4.3l-4.3,6.9c4.7,3.5,11.1,5.1,17.6,5.1
	c12,0,18.9-5.6,18.9-13.3c0-7.3-5.6-11.1-14.1-12.5l-4.3-0.5c-3.9-0.5-6.9-1.3-6.9-3.9c0-3,3-4.7,7.8-4.7c5.1,0,10.3,2.1,12.9,3.5
	L185,349.4L185,349.4z M424.5,345c-5.1,0-8.6,2.6-10.8,6v-5.1h-9v41.2h9v-23.2c0-6.9,3-10.8,8.6-10.8c1.7,0,3.9,0.5,5.6,0.9l2.6-8.5
	C428.8,345,426.2,345,424.5,345L424.5,345z M309.5,366.5c0,12.5,8.6,21.5,21.9,21.5c6,0,10.3-1.3,14.6-4.7l-4.3-7.3
	c-3.5,2.6-6.9,3.9-10.8,3.9c-7.3,0-12.5-5.1-12.5-13.3c0-7.8,5.1-12.9,12.5-13.3c3.9,0,7.3,1.3,10.8,3.9l4.3-7.3
	c-4.3-3.5-8.6-4.7-14.6-4.7C318,345,309.5,354.1,309.5,366.5L309.5,366.5L309.5,366.5z M392.7,366.5v-20.6h-9v5.1
	c-3-3.9-7.3-6-12.9-6c-11.6,0-20.6,9-20.6,21.5s9,21.5,20.6,21.5c6,0,10.3-2.1,12.9-6v5.1h9V366.5L392.7,366.5z M359.6,366.5
	c0-7.3,4.7-13.3,12.5-13.3c7.3,0,12.5,5.6,12.5,13.3c0,7.3-5.1,13.3-12.5,13.3C364.4,379.4,359.6,373.8,359.6,366.5L359.6,366.5z
	 M251.9,345c-12,0-20.6,8.6-20.6,21.5c0,12.9,8.6,21.5,21.1,21.5c6,0,12-1.7,16.8-5.6l-4.3-6.5c-3.5,2.6-7.8,4.3-12,4.3
	c-5.6,0-11.1-2.6-12.4-9.9h30.4c0-1.3,0-2.1,0-3.5C271.2,353.6,263.5,345,251.9,345L251.9,345L251.9,345z M251.9,352.8
	c5.6,0,9.4,3.5,10.3,9.9h-21.4C241.6,357.1,245.5,352.8,251.9,352.8L251.9,352.8z M475.5,366.5v-36.9h-9v21.5c-3-3.9-7.3-6-12.9-6
	c-11.6,0-20.6,9-20.6,21.5s9,21.5,20.6,21.5c6,0,10.3-2.1,12.9-6v5.1h9V366.5L475.5,366.5z M442.5,366.5c0-7.3,4.7-13.3,12.5-13.3
	c7.3,0,12.5,5.6,12.5,13.3c0,7.3-5.1,13.3-12.5,13.3C447.2,379.4,442.5,373.8,442.5,366.5L442.5,366.5z M141.2,366.5v-20.6h-9v5.1
	c-3-3.9-7.3-6-12.9-6c-11.6,0-20.6,9-20.6,21.5s9,21.5,20.6,21.5c6,0,10.3-2.1,12.9-6v5.1h9V366.5L141.2,366.5z M107.8,366.5
	c0-7.3,4.7-13.3,12.4-13.3c7.3,0,12.4,5.6,12.4,13.3c0,7.3-5.2,13.3-12.4,13.3C112.4,379.4,107.8,373.8,107.8,366.5z"/>
<g>
	<rect id="rect19" x="182" y="33" class="st1" width="135.2" height="242.9"/>
	<path id="XMLID_330_" inkscape:connector-curvature="0" class="st2" d="M191,154.5c0-49.3,23.2-93.2,58.8-121.4
		C223.6,12.4,190.6,0,154.5,0C69.1,0,0,69.1,0,154.5S69.1,309,154.5,309c36.1,0,69.1-12.5,95.3-33C214.1,248.1,191,203.9,191,154.5z
		"/>
	<path id="path22" inkscape:connector-curvature="0" class="st3" d="M499.6,154.5c0,85.4-69.1,154.5-154.5,154.5
		c-36,0-69.1-12.5-95.3-33c36.1-28.4,58.8-72.1,58.8-121.4S285.4,61.3,249.8,33C276,12.4,309,0,345,0
		C430.5,0,499.6,69.6,499.6,154.5z"/>
</g>
</svg>
