<?xml version="1.0" encoding="utf-8"?>
<!-- Generator: Adobe Illustrator 27.2.0, SVG Export Plug-In . SVG Version: 6.00 Build 0)  -->
<svg version="1.1" id="Слой_1" xmlns="http://www.w3.org/2000/svg" xmlns:xlink="http://www.w3.org/1999/xlink" x="0px" y="0px"
	 viewBox="0 0 40 40"  xml:space="preserve" fill="#E0E0E0">
<style type="text/css">
	.st0{fill:none;stroke:#000000;stroke-miterlimit:10;}
</style>
<path d="M20,0c-1.4,0-2.7,0.2-4,0.7c-1.2,0.5-2.3,1.2-3.2,2v0l0,0c-0.9,0.9-1.6,2-2,3.2C10.3,7.2,10,8.6,10,10c0,1.4,0.2,2.8,0.7,4
                                            c0.5,1.2,1.2,2.3,2,3.2l0,0c0.9,0.9,2,1.6,3.2,2.1v0c1.2,0.5,2.6,0.7,4,0.7c1.4,0,2.7-0.2,4-0.7v0c1.2-0.5,2.3-1.2,3.2-2.1
                                            c0.9-0.9,1.6-2,2.1-3.2c0.5-1.2,0.7-2.6,0.7-4h0c0-1.4-0.2-2.8-0.7-4c-0.5-1.2-1.2-2.3-2.1-3.2c-0.9-0.9-2-1.6-3.2-2.1
                                            C22.7,0.2,21.4,0,20,0z M20.1,26.7c-8.2,0-12.7,0.7-15.9,3c-1.6,1.2-2.7,2.7-3.3,4.6C0.2,36.1,0,37.5,0,40l20,0h20
                                            c0-2.5-0.2-3.9-0.8-5.7c-0.6-1.8-1.7-3.4-3.3-4.6C32.6,27.4,28.3,26.7,20.1,26.7z"/>
</svg>
