<?xml version="1.0" encoding="utf-8"?>
<!-- Generator: Adobe Illustrator 27.2.0, SVG Export Plug-In . SVG Version: 6.00 Build 0)  -->
<svg version="1.1" id="Слой_1" xmlns="http://www.w3.org/2000/svg" xmlns:xlink="http://www.w3.org/1999/xlink" x="0px" y="0px"
	 viewBox="0 0 40 40" style="enable-background:new 0 0 40 40;" xml:space="preserve">
<style type="text/css">
	.st0{fill:none;stroke:#000000;stroke-miterlimit:10;}
</style>
<path d="M20,19.7c3.1,0,5.6-2.9,5.6-6.6c0-5-2.5-6.6-5.6-6.6s-5.6,1.5-5.6,6.6C14.4,16.8,16.9,19.7,20,19.7z"/>
<path d="M32.4,29.4L29.5,23c-0.1-0.3-0.4-0.5-0.6-0.7L24.5,20c-0.1-0.1-0.2,0-0.3,0c-1.2,1-2.7,1.5-4.2,1.5s-3-0.5-4.2-1.4
	c-0.1-0.1-0.2-0.1-0.3,0l-4.4,2.3c-0.3,0.1-0.5,0.4-0.6,0.7l-2.8,6.4c-0.2,0.4-0.2,0.9,0.1,1.3s0.7,0.6,1.2,0.6h22.2
	c0.5,0,0.9-0.2,1.2-0.6C32.5,30.3,32.6,29.8,32.4,29.4z"/>
<circle class="st0" cx="20" cy="20" r="18.5"/>
</svg>
