<?xml version="1.0" encoding="utf-8"?>
<!-- Generator: Adobe Illustrator 26.0.3, SVG Export Plug-In . SVG Version: 6.00 Build 0)  -->
<svg version="1.1"
	 id="svg102" inkscape:version="0.92.3 (2405546, 2018-03-11)" sodipodi:docname="logo-black.svg" xmlns:cc="http://creativecommons.org/ns#" xmlns:dc="http://purl.org/dc/elements/1.1/" xmlns:inkscape="http://www.inkscape.org/namespaces/inkscape" xmlns:rdf="http://www.w3.org/1999/02/22-rdf-syntax-ns#" xmlns:sodipodi="http://sodipodi.sourceforge.net/DTD/sodipodi-0.dtd" xmlns:svg="http://www.w3.org/2000/svg"
	 xmlns="http://www.w3.org/2000/svg" xmlns:xlink="http://www.w3.org/1999/xlink" x="0px" y="0px" viewBox="0 0 239 120"
	 style="enable-background:new 0 0 239 120;" xml:space="preserve">
<style type="text/css">
	.st0{fill:#E0E0E0;}
	.st1{fill-rule:evenodd;clip-rule:evenodd;fill:#E0E0E0;}
	.st2{fill:#5B57A2;}
	.st3{fill:#D90751;}
	.st4{fill:#FAB718;}
	.st5{fill:#ED6F26;}
	.st6{fill:#63B22F;}
	.st7{fill:#1487C9;}
	.st8{fill:#017F36;}
	.st9{fill:#984995;}
</style>
<sodipodi:namedview  bordercolor="#666666" borderopacity="1" gridtolerance="10" guidetolerance="10" id="namedview104" inkscape:current-layer="svg102" inkscape:cx="119.5" inkscape:cy="60" inkscape:pageopacity="0" inkscape:pageshadow="2" inkscape:window-height="705" inkscape:window-maximized="1" inkscape:window-width="1366" inkscape:window-x="-8" inkscape:window-y="-8" inkscape:zoom="3.5606695" objecttolerance="10" pagecolor="#ffffff" showgrid="false">
	</sodipodi:namedview>
<path id="path60" inkscape:connector-curvature="0" class="st0" d="M206.7,34.3v29.3h-10.5V43h-10.1v20.6h-10.5V34.3L206.7,34.3
	L206.7,34.3z"/>
<path id="path62" inkscape:connector-curvature="0" class="st1" d="M154.1,64.6c9.4,0,16.3-5.8,16.3-14.5c0-8.4-5.1-13.9-13.7-13.9
	c-4,0-7.2,1.4-9.7,3.8c0.6-5,4.8-8.6,9.4-8.6c1.1,0,9.1,0,9.1,0l4.6-8.7c0,0-10.1,0.2-14.8,0.2c-10.7,0.2-18,9.9-18,21.8
	C137.3,58.6,144.4,64.6,154.1,64.6z M154.2,44c3.5,0,5.9,2.3,5.9,6.2c0,3.5-2.1,6.4-5.9,6.4c-3.6,0-6-2.7-6-6.4
	C148.2,46.3,150.6,44,154.2,44z"/>
<path id="path64" inkscape:connector-curvature="0" class="st0" d="M128.8,53.8c0,0-2.5,1.4-6.2,1.7c-4.2,0.1-8-2.6-8-7.3
	c0-4.7,3.3-7.3,7.9-7.3c2.8,0,6.5,1.9,6.5,1.9s2.7-5,4.1-7.5c-2.6-2-6-3-10-3c-10.1,0-17.9,6.6-17.9,15.8c0,9.4,7.3,15.8,17.9,15.6
	c3-0.1,7-1.1,9.5-2.7L128.8,53.8z"/>
<path id="path66" class="st2" d="M0,26.1l14.5,26v15.8L0,93.9L0,26.1z"/>
<path id="path68" class="st3" d="M55.8,42.6l13.6-8.3l27.9,0L55.8,59.7C55.8,59.7,55.8,42.6,55.8,42.6z"/>
<path id="path70" class="st4" d="M55.7,26l0.1,34.4l-14.6-9V0L55.7,26L55.7,26z"/>
<path id="path72" class="st5" d="M97.3,34.3l-27.9,0L55.7,26L41.2,0L97.3,34.3L97.3,34.3z"/>
<path id="path74" class="st6" d="M55.8,94V77.3l-14.6-8.8l0,51.5L55.8,94z"/>
<path id="path76" class="st7" d="M69.4,85.7L14.5,52.1L0,26.1l97.2,59.6L69.4,85.7L69.4,85.7z"/>
<path id="path78" class="st8" d="M41.2,120l14.6-26l13.6-8.3l27.8,0L41.2,120z"/>
<path id="path80" class="st9" d="M0,93.9l41.3-25.3L27.5,60l-12.9,7.9L0,93.9z"/>
<path id="path82" inkscape:connector-curvature="0" class="st0" d="M114.6,83.3c-0.3,0.4-0.7,0.7-1.2,0.9c-0.5,0.2-1.1,0.3-1.6,0.3
	c-0.6,0-1.1-0.1-1.6-0.3c-0.5-0.2-0.9-0.4-1.3-0.8c-0.4-0.3-0.6-0.8-0.8-1.2c-0.2-0.5-0.3-1-0.3-1.6c0-0.5,0.1-1,0.3-1.5
	c0.2-0.5,0.5-0.9,0.8-1.2c0.3-0.3,0.7-0.6,1.2-0.8c0.5-0.2,1-0.3,1.5-0.3c0.6,0,1.2,0.1,1.7,0.2c0.5,0.2,0.9,0.4,1.3,0.8l-0.6,1
	c-0.3-0.3-0.6-0.5-1-0.6c-0.4-0.1-0.7-0.2-1.1-0.2c-0.3,0-0.7,0.1-1,0.2c-0.3,0.1-0.6,0.3-0.8,0.5c-0.2,0.2-0.4,0.5-0.6,0.8
	c-0.1,0.3-0.2,0.7-0.2,1.1c0,0.4,0.1,0.8,0.2,1.1c0.1,0.3,0.3,0.6,0.6,0.8c0.2,0.2,0.5,0.4,0.9,0.5c0.3,0.1,0.7,0.2,1,0.2
	c0.5,0,0.9-0.1,1.2-0.3c0.3-0.2,0.7-0.4,0.9-0.7L114.6,83.3z M116.4,84.4V77h1.3v5.5L122,77h1.3v7.4H122v-5.5l-4.3,5.5L116.4,84.4
	L116.4,84.4z M132.1,83.3c-0.3,0.4-0.8,0.7-1.2,0.9c-0.5,0.2-1.1,0.3-1.6,0.3c-0.6,0-1.1-0.1-1.6-0.3c-0.5-0.2-0.9-0.4-1.3-0.8
	c-0.4-0.3-0.6-0.8-0.8-1.2c-0.2-0.5-0.3-1-0.3-1.6c0-0.5,0.1-1,0.3-1.5c0.2-0.5,0.5-0.9,0.8-1.2c0.3-0.3,0.7-0.6,1.2-0.8
	c0.5-0.2,1-0.3,1.5-0.3c0.6,0,1.2,0.1,1.7,0.2c0.5,0.2,0.9,0.4,1.3,0.8l-0.6,1c-0.3-0.3-0.6-0.5-1-0.6c-0.4-0.1-0.7-0.2-1.1-0.2
	c-0.7,0-1.3,0.3-1.8,0.7c-0.2,0.2-0.4,0.5-0.6,0.8c-0.1,0.3-0.2,0.7-0.2,1.1c0,0.4,0.1,0.8,0.2,1.1c0.1,0.3,0.3,0.6,0.6,0.8
	c0.2,0.2,0.5,0.4,0.9,0.5c0.3,0.1,0.7,0.2,1,0.2c0.5,0,0.9-0.1,1.2-0.3c0.3-0.2,0.7-0.4,0.9-0.7L132.1,83.3z M132.8,77h6.8v1.3h-2.7
	v6.1h-1.3v-6.1h-2.7L132.8,77L132.8,77z"/>
<path id="path84" inkscape:connector-curvature="0" class="st1" d="M145.9,84.3c0.5-0.2,0.9-0.4,1.3-0.7l-0.4-1
	c-0.2,0.2-0.6,0.4-1,0.6c-0.4,0.2-0.8,0.2-1.3,0.2c-0.7,0-1.3-0.2-1.8-0.6c-0.5-0.4-0.7-0.9-0.8-1.6h5.8c0.1-0.3,0.1-0.5,0.1-0.9
	c0-0.5-0.1-1-0.3-1.4c-0.2-0.4-0.4-0.8-0.7-1.1c-0.3-0.3-0.7-0.5-1.1-0.7c-0.4-0.2-0.9-0.3-1.4-0.2c-0.6,0-1.2,0.1-1.6,0.3
	c-0.5,0.2-0.9,0.5-1.2,0.8c-0.3,0.4-0.6,0.8-0.7,1.2c-0.2,0.5-0.3,1-0.3,1.5c0,0.6,0.1,1.1,0.3,1.6c0.2,0.5,0.5,0.9,0.8,1.2
	c0.3,0.3,0.8,0.6,1.3,0.8c0.5,0.2,1.1,0.3,1.7,0.3C144.9,84.6,145.4,84.5,145.9,84.3L145.9,84.3z M142.5,78.6c0.4-0.4,1-0.6,1.6-0.6
	c0.6,0,1.2,0.2,1.5,0.5c0.4,0.3,0.6,0.8,0.6,1.4h-4.5C141.8,79.5,142.1,79,142.5,78.6L142.5,78.6z"/>
<path id="path86" inkscape:connector-curvature="0" class="st0" d="M149.5,77h1.2l2.9,3.7l2.7-3.7h1.2v7.4h-1.3V79l-2.6,3.4h-0.1
	l-2.7-3.4v5.4h-1.3L149.5,77z"/>
<path id="path88" inkscape:connector-curvature="0" class="st1" d="M161.1,77c-0.4,0.1-0.8,0.3-1.1,0.5l0.4,1.1
	c0.3-0.2,0.6-0.3,0.9-0.4c0.3-0.1,0.7-0.2,1.2-0.2c0.4,0,0.7,0.1,0.9,0.2c0.2,0.1,0.4,0.3,0.5,0.5s0.2,0.4,0.2,0.7
	c0,0.3,0.1,0.6,0.1,0.9c-0.3-0.2-0.6-0.3-0.9-0.4c-0.3-0.1-0.6-0.1-1-0.1c-0.4,0-0.8,0.1-1.1,0.2c-0.4,0.1-0.7,0.2-0.9,0.4
	c-0.2,0.2-0.5,0.5-0.6,0.7c-0.1,0.3-0.2,0.7-0.2,1c0,0.7,0.2,1.3,0.6,1.7c0.4,0.4,1,0.6,1.7,0.6c0.6,0,1.1-0.1,1.5-0.3
	c0.4-0.2,0.7-0.5,0.9-0.7v1h1.2v-4.5c0-1-0.2-1.7-0.6-2.2c-0.4-0.5-1.2-0.8-2.2-0.8C162,76.8,161.5,76.9,161.1,77z M163.3,83
	c-0.3,0.2-0.7,0.3-1.2,0.3c-0.4,0-0.8-0.1-1-0.3c-0.2-0.2-0.4-0.5-0.4-0.8c0-0.2,0-0.4,0.1-0.5c0.1-0.2,0.2-0.3,0.4-0.4
	c0.2-0.1,0.3-0.2,0.5-0.2c0.2-0.1,0.4-0.1,0.6-0.1c0.7,0,1.2,0.2,1.7,0.5v0.9C163.9,82.6,163.6,82.8,163.3,83L163.3,83z M177.1,74.4
	c0.3-0.1,0.5-0.3,0.8-0.6l-0.7-1c-0.2,0.2-0.4,0.4-0.6,0.5c-0.3,0.1-0.5,0.2-0.8,0.2l-0.3,0c-0.2,0-0.5,0.1-0.7,0.1
	c-0.4,0.1-0.8,0.2-1.2,0.4c-0.6,0.3-1.1,0.6-1.4,1c-0.4,0.4-0.6,0.9-0.8,1.5c-0.2,0.6-0.3,1.1-0.4,1.7c-0.1,0.6-0.1,1.2-0.1,1.7
	c0,0.7,0.1,1.3,0.3,1.9c0.2,0.6,0.4,1.1,0.8,1.4c0.3,0.4,0.8,0.7,1.2,0.9s1,0.3,1.6,0.3c0.6,0,1.1-0.1,1.6-0.3
	c0.5-0.2,0.9-0.5,1.2-0.8c0.3-0.3,0.6-0.8,0.8-1.2c0.2-0.5,0.3-0.9,0.3-1.5c0-0.6-0.1-1.1-0.2-1.5c-0.1-0.4-0.4-0.8-0.7-1.2
	c-0.3-0.3-0.7-0.6-1.1-0.8c-0.5-0.2-1-0.3-1.4-0.3c-0.3,0-0.6,0-0.9,0.1c-0.3,0.1-0.6,0.2-0.8,0.4c-0.3,0.1-0.5,0.3-0.7,0.5
	c-0.2,0.2-0.4,0.4-0.5,0.7h0c0-0.3,0.1-0.7,0.1-1c0.1-0.4,0.2-0.7,0.3-1c0.1-0.3,0.3-0.6,0.6-0.9c0.2-0.3,0.5-0.5,0.9-0.6
	c0.4-0.2,0.8-0.3,1.2-0.4l0.3,0c0.3,0,0.5-0.1,0.8-0.1C176.5,74.6,176.8,74.5,177.1,74.4L177.1,74.4z M172.4,81.5
	c-0.1-0.4-0.2-0.9-0.2-1.3c0.1-0.3,0.2-0.5,0.3-0.7c0.1-0.2,0.3-0.4,0.5-0.6c0.5-0.4,1.1-0.6,1.7-0.6c0.8,0,1.4,0.2,1.8,0.7
	c0.4,0.5,0.6,1.1,0.6,1.8c0,0.4-0.1,0.7-0.2,1c-0.2,0.6-0.7,1.1-1.3,1.3c-0.3,0.1-0.6,0.2-1,0.2s-0.7-0.1-1-0.2
	c-0.3-0.1-0.6-0.4-0.8-0.6C172.7,82.2,172.5,81.9,172.4,81.5L172.4,81.5z M188.8,77h-1.3v7.4h1.3V77z M180.5,77h1.3v2.2h1.2
	c0.6,0,1.1,0.1,1.4,0.2c0.4,0.1,0.7,0.3,0.9,0.6c0.2,0.2,0.4,0.5,0.5,0.8c0.1,0.3,0.1,0.6,0.1,1s-0.1,0.7-0.2,1
	c-0.1,0.3-0.3,0.6-0.5,0.8c-0.2,0.2-0.6,0.4-1,0.6c-0.4,0.1-0.9,0.2-1.5,0.2h-2.4L180.5,77L180.5,77z M181.8,80.5v2.7h1
	c0.7,0,1.1-0.1,1.4-0.3c0.3-0.2,0.4-0.6,0.4-1c0-0.4-0.1-0.8-0.4-1c-0.3-0.2-0.7-0.3-1.4-0.3L181.8,80.5L181.8,80.5z"/>
<path id="path90" inkscape:connector-curvature="0" class="st0" d="M197.6,83.3c-0.3,0.4-0.7,0.7-1.2,0.9c-0.5,0.2-1.1,0.3-1.6,0.3
	c-0.6,0-1.1-0.1-1.6-0.3c-0.5-0.2-0.9-0.4-1.3-0.8c-0.4-0.3-0.6-0.8-0.8-1.2c-0.2-0.5-0.3-1-0.3-1.6c0-0.5,0.1-1,0.3-1.5
	c0.2-0.5,0.5-0.9,0.8-1.2c0.3-0.3,0.7-0.6,1.2-0.8c0.5-0.2,1-0.3,1.5-0.3c0.6,0,1.2,0.1,1.7,0.2c0.5,0.2,0.9,0.4,1.3,0.8l-0.6,1
	c-0.3-0.3-0.6-0.5-1-0.6c-0.4-0.1-0.7-0.2-1.1-0.2c-0.3,0-0.7,0.1-1,0.2c-0.3,0.1-0.6,0.3-0.8,0.5c-0.2,0.2-0.4,0.5-0.6,0.8
	c-0.1,0.3-0.2,0.7-0.2,1.1c0,0.4,0.1,0.8,0.2,1.1c0.1,0.3,0.3,0.6,0.6,0.8c0.2,0.2,0.5,0.4,0.9,0.5c0.3,0.1,0.7,0.2,1,0.2
	c0.5,0,0.9-0.1,1.2-0.3c0.3-0.2,0.7-0.4,0.9-0.7L197.6,83.3z M198.3,77h6.8v1.3h-2.7v6.1H201v-6.1h-2.7L198.3,77L198.3,77z"/>
<path id="path92" inkscape:connector-curvature="0" class="st1" d="M207.9,77h-1.3v10.7h1.3v-3.6c0.3,0.2,0.6,0.3,1,0.4
	s0.8,0.1,1.2,0.1c0.6,0,1.1-0.1,1.6-0.3c0.5-0.2,0.9-0.5,1.2-0.8c0.3-0.4,0.6-0.8,0.8-1.3c0.2-0.5,0.3-1,0.3-1.6
	c0-0.6-0.1-1.1-0.2-1.5c-0.2-0.4-0.4-0.8-0.7-1.2c-0.3-0.3-0.7-0.6-1.1-0.8c-0.5-0.2-0.9-0.3-1.4-0.3c-0.5,0-1,0.1-1.5,0.3
	c-0.5,0.2-0.8,0.4-1.1,0.7V77z M208.8,78.4c0.4-0.2,0.8-0.3,1.2-0.3c0.4,0,0.7,0.1,1,0.2c0.3,0.1,0.6,0.3,0.8,0.5
	c0.2,0.2,0.4,0.5,0.5,0.8c0.1,0.3,0.2,0.7,0.2,1c0,0.4-0.1,0.8-0.2,1.1c-0.1,0.3-0.3,0.6-0.5,0.8c-0.2,0.2-0.5,0.4-0.8,0.6
	c-0.3,0.1-0.7,0.2-1.1,0.2c-0.4,0-0.7,0-1-0.1c-0.4-0.1-0.7-0.2-1-0.4v-3.7C208.1,78.8,208.4,78.6,208.8,78.4L208.8,78.4z M224.1,77
	h-1.3v7.4h1.3V77z M215.8,77h1.3v2.2h1.2c0.6,0,1.1,0.1,1.4,0.2c0.4,0.1,0.7,0.3,0.9,0.6c0.2,0.2,0.4,0.5,0.5,0.8
	c0.1,0.3,0.1,0.6,0.1,1s-0.1,0.7-0.2,1c-0.1,0.3-0.3,0.6-0.5,0.8c-0.2,0.2-0.6,0.4-1,0.6c-0.4,0.1-0.9,0.2-1.5,0.2h-2.4L215.8,77
	L215.8,77z M217.1,80.5v2.7h1c0.7,0,1.1-0.1,1.4-0.3c0.3-0.2,0.4-0.6,0.4-1c0-0.4-0.1-0.8-0.4-1c-0.3-0.2-0.7-0.3-1.4-0.3
	L217.1,80.5L217.1,80.5z"/>
<path id="path94" inkscape:connector-curvature="0" class="st0" d="M230.5,80.6l2.8,3.8h-1.6l-2.2-3l-2.2,3h-1.5l2.8-3.8l-2.7-3.6
	h1.6l2,2.8l2.1-2.8h1.5L230.5,80.6z M113.6,93.6h-4.1v6.2h-1.3v-7.4h6.7v7.4h-1.3L113.6,93.6z M122.5,93.6h-2.6l-0.1,1.2
	c-0.1,1.1-0.2,1.9-0.4,2.6c-0.2,0.7-0.4,1.1-0.6,1.5c-0.3,0.3-0.5,0.6-0.9,0.7c-0.3,0.1-0.7,0.2-1.1,0.2l-0.1-1.3
	c0.1,0,0.3,0,0.5-0.1c0.2-0.1,0.4-0.3,0.5-0.5c0.2-0.3,0.3-0.7,0.5-1.2c0.1-0.5,0.2-1.2,0.3-2.1l0.1-2.3h5.2v7.4h-1.3L122.5,93.6
	L122.5,93.6z"/>
<path id="path96" inkscape:connector-curvature="0" class="st1" d="M127.4,92.3c-0.4,0.1-0.8,0.3-1.1,0.5l0.4,1
	c0.3-0.2,0.6-0.3,0.9-0.4c0.3-0.1,0.7-0.2,1.2-0.2c0.4,0,0.7,0.1,0.9,0.2c0.2,0.1,0.4,0.3,0.5,0.5c0.1,0.2,0.2,0.4,0.2,0.7
	c0,0.3,0.1,0.6,0.1,0.9c-0.3-0.2-0.6-0.3-0.9-0.4c-0.3-0.1-0.6-0.1-1-0.1c-0.4,0-0.8,0.1-1.1,0.2c-0.4,0.1-0.7,0.2-0.9,0.4
	c-0.2,0.2-0.5,0.5-0.6,0.7c-0.1,0.3-0.2,0.7-0.2,1c0,0.7,0.2,1.3,0.6,1.7c0.4,0.4,1,0.6,1.7,0.6c0.6,0,1.1-0.1,1.5-0.3
	c0.4-0.2,0.7-0.5,0.9-0.7v1h1.2v-4.5c0-1-0.2-1.7-0.6-2.2c-0.4-0.5-1.2-0.8-2.2-0.8C128.3,92.2,127.9,92.2,127.4,92.3L127.4,92.3z
	 M129.7,98.3c-0.3,0.2-0.7,0.3-1.2,0.3c-0.4,0-0.8-0.1-1-0.3c-0.2-0.2-0.4-0.5-0.4-0.8c0-0.2,0-0.4,0.1-0.5c0.1-0.2,0.2-0.3,0.4-0.4
	c0.1-0.1,0.3-0.2,0.5-0.2c0.2,0,0.4-0.1,0.6-0.1c0.7,0,1.2,0.2,1.7,0.5v0.9C130.2,97.9,129.9,98.2,129.7,98.3z"/>
<path id="path98" inkscape:connector-curvature="0" class="st0" d="M132.9,92.3h6.8v1.3H137v6.1h-1.3v-6.1H133L132.9,92.3
	L132.9,92.3z"/>
<path id="path100" inkscape:connector-curvature="0" class="st1" d="M146,99.7c0.5-0.2,0.9-0.4,1.3-0.7l-0.4-1
	c-0.2,0.2-0.6,0.4-1,0.6c-0.4,0.2-0.8,0.2-1.3,0.2c-0.7,0-1.3-0.2-1.8-0.6s-0.7-0.9-0.8-1.6h5.8c0.1-0.3,0.1-0.5,0.1-0.9
	c0-0.5-0.1-1-0.3-1.4c-0.2-0.4-0.4-0.8-0.7-1.1c-0.3-0.3-0.7-0.5-1.1-0.7c-0.4-0.2-0.9-0.3-1.4-0.2c-0.6,0-1.2,0.1-1.6,0.3
	c-0.5,0.2-0.9,0.5-1.2,0.8c-0.3,0.4-0.6,0.8-0.7,1.2c-0.2,0.5-0.3,1-0.3,1.5c0,0.6,0.1,1.1,0.3,1.6c0.2,0.5,0.5,0.9,0.8,1.2
	c0.3,0.3,0.8,0.6,1.3,0.8c0.5,0.2,1.1,0.3,1.7,0.3C145,99.9,145.5,99.8,146,99.7L146,99.7z M142.6,93.9c0.4-0.4,1-0.6,1.6-0.6
	c0.7,0,1.2,0.2,1.5,0.5c0.4,0.3,0.6,0.8,0.6,1.4h-4.5C141.9,94.8,142.2,94.3,142.6,93.9L142.6,93.9z M148.5,92.3h1.7l2.6,3.6
	l-2.7,3.8h-1.6l2.9-3.8L148.5,92.3L148.5,92.3z M153,92.3h1.3v7.4H153V92.3z M159.1,99.7l-2.9-3.8l2.7-3.6h-1.6l-2.6,3.6l2.8,3.8
	H159.1z M165.2,99.7c0.5-0.2,0.9-0.4,1.3-0.7l-0.4-1c-0.2,0.2-0.6,0.4-1,0.6c-0.4,0.2-0.8,0.2-1.3,0.2c-0.7,0-1.3-0.2-1.8-0.6
	c-0.5-0.4-0.7-0.9-0.8-1.6h5.8c0.1-0.3,0.1-0.5,0.1-0.9c0-0.5-0.1-1-0.3-1.4c-0.2-0.4-0.4-0.8-0.7-1.1c-0.3-0.3-0.7-0.5-1.1-0.7
	c-0.4-0.2-0.9-0.3-1.4-0.2c-0.6,0-1.2,0.1-1.6,0.3c-0.5,0.2-0.9,0.5-1.2,0.8c-0.3,0.4-0.6,0.8-0.7,1.2c-0.2,0.5-0.3,1-0.3,1.5
	c0,0.6,0.1,1.1,0.3,1.6c0.2,0.5,0.5,0.9,0.8,1.2c0.3,0.3,0.8,0.6,1.3,0.8c0.5,0.2,1.1,0.3,1.7,0.3C164.2,99.9,164.7,99.8,165.2,99.7
	z M161.8,93.9c0.4-0.4,1-0.6,1.6-0.6c0.6,0,1.2,0.2,1.5,0.5c0.4,0.3,0.6,0.8,0.6,1.4h-4.5C161.2,94.8,161.4,94.3,161.8,93.9
	L161.8,93.9z M172.4,89.8c-0.8,0-1.2-0.4-1.3-1.3h-1.3c0,0.3,0.1,0.6,0.2,0.9c0.1,0.3,0.3,0.5,0.5,0.7c0.2,0.2,0.5,0.4,0.8,0.5
	c0.3,0.1,0.7,0.2,1.1,0.2c0.4,0,0.7-0.1,1-0.2c0.3-0.1,0.6-0.3,0.8-0.5c0.2-0.2,0.4-0.4,0.5-0.7c0.1-0.3,0.2-0.6,0.2-0.9h-1.2
	C173.6,89.4,173.2,89.8,172.4,89.8z M168.8,92.3v7.4h1.3l4.3-5.5v5.5h1.3v-7.4h-1.3l-4.3,5.5v-5.5H168.8z"/>
</svg>
