<svg xmlns="http://www.w3.org/2000/svg" version="1.1" xmlns:xlink="http://www.w3.org/1999/xlink" width="200" height="200"><svg version="1.1" id="SvgjsSvg1003" xmlns="http://www.w3.org/2000/svg" xmlns:xlink="http://www.w3.org/1999/xlink" x="0px" y="0px" viewBox="0 0 200 200" style="enable-background:new 0 0 200 200;" xml:space="preserve">
<style type="text/css">
	.st0{display:none;fill:url(#SVGID_1_);}
	.st1{fill:#00C8FF;stroke:#00C8FF;stroke-width:1.5121;stroke-miterlimit:30.2412;}
</style>
<linearGradient id="SvgjsLinearGradient1002" gradientUnits="userSpaceOnUse" x1="-854.705" y1="638.305" x2="-853.705" y2="638.305" gradientTransform="matrix(200 0 0 -200 170941 127761)">
	<stop offset="0" style="stop-color:#FFFFFF"></stop>
	<stop offset="1" style="stop-color:#FFFFFF"></stop>
</linearGradient>
<rect class="st0" width="200" height="200"></rect>
<g>
	<g transform="matrix(7.560295324036095,0,0,7.560295324036095,1.9016539533183305,153.72027027421157)">
		<path class="st1" d="M8.9,0L6.4-5H4.5v5H1.1v-14.2h5.6c1.7,0,3,0.4,4,1.1c0.9,0.8,1.4,1.8,1.4,3.2l0,0c0,1-0.2,1.8-0.6,2.5
			s-1,1.2-1.9,1.6l0,0l3,5.7V0H8.9z M4.5-11.6v3.9h2.2c0.7,0,1.1-0.2,1.5-0.5C8.5-8.5,8.6-9,8.6-9.6c0-0.6-0.2-1.1-0.5-1.4
			c-0.3-0.3-0.8-0.5-1.5-0.5l0,0H4.5z M21.5-3.8L21.5-3.8c0-0.5-0.2-0.9-0.5-1.2c-0.4-0.3-1-0.6-1.9-0.9s-1.6-0.6-2.2-0.9l0,0
			c-1.8-0.9-2.8-2.2-2.8-3.7l0,0c0-0.8,0.2-1.5,0.7-2.1c0.5-0.6,1.1-1.1,1.9-1.4c0.8-0.3,1.8-0.5,2.8-0.5l0,0c1,0,1.9,0.2,2.8,0.5
			c0.8,0.4,1.4,0.9,1.9,1.6c0.4,0.7,0.7,1.4,0.7,2.3l0,0h-3.4c0-0.6-0.2-1-0.5-1.4c-0.4-0.3-0.8-0.5-1.4-0.5l0,0
			c-0.6,0-1.1,0.1-1.4,0.4c-0.4,0.3-0.5,0.6-0.5,1l0,0c0,0.4,0.2,0.7,0.6,1c0.4,0.3,1.1,0.6,2.1,0.9c1,0.3,1.8,0.7,2.4,1l0,0
			c1.5,0.9,2.3,2.1,2.3,3.7l0,0c0,1.2-0.5,2.2-1.4,2.9c-0.9,0.7-2.2,1.1-3.9,1.1l0,0c-1.2,0-2.2-0.2-3.1-0.6c-0.9-0.4-1.6-1-2.1-1.7
			s-0.7-1.6-0.7-2.5l0,0h3.4c0,0.8,0.2,1.3,0.6,1.7c0.4,0.4,1,0.5,1.9,0.5l0,0c0.6,0,1-0.1,1.3-0.4C21.3-3,21.5-3.3,21.5-3.8z"></path>
	</g>
</g>
</svg><style>@media (prefers-color-scheme: light) { :root { filter: none; } }
@media (prefers-color-scheme: dark) { :root { filter: none; } }
</style></svg>