<?xml version="1.0" encoding="utf-8"?>
<!-- Generator: Adobe Illustrator 27.2.0, SVG Export Plug-In . SVG Version: 6.00 Build 0)  -->
<svg version="1.1" id="Слой_1" xmlns="http://www.w3.org/2000/svg" xmlns:xlink="http://www.w3.org/1999/xlink" x="0px" y="0px"
	 viewBox="0 0 294 69" style="enable-background:new 0 0 294 69;" xml:space="preserve">
<style type="text/css">
	.st0{fill:#FF0000;}
	.st1{fill:#FFFFFF;}
</style>
<g>
	<g>
		<rect x="0.2" y="0.4" class="st0" width="293.7" height="68.2"/>
	</g>
	<path class="st1" d="M202.2,28.1c-2.4,3.8-4.1,6.7-6,9.4c-1.9,2.6-3,6-6,7.7c-3.6-5.5-7-10.8-10.9-16.7c0,9.1,0,17.7,0,26.4
		c-3.1,0-5.9,0-8.9,0c0-13.1,0-26.2,0-39.7c1.4-0.1,3-0.1,4.6-0.2c1.6,0,3.3,0,4.8,0c4.3,5.1,6.5,11.3,11.1,16.2
		c3.7-5.6,7.2-11,10.5-16.1c3.5,0,6.5,0,9.7,0c0,13.3,0,26.5,0,39.9c-2.9,0-5.7,0-8.8,0C202.2,46.3,202.2,37.8,202.2,28.1z"/>
	<path class="st1" d="M266.3,54.9c-3.7,0-7.1,0-10.7,0c-5.4-12.9-10.8-26.1-16.4-39.5c3.6-0.7,7.1,0,10.5-0.4
		C255.3,28.4,260.8,41.5,266.3,54.9z"/>
	<path class="st1" d="M74.1,55c-3.7,0-7.1,0-10.8,0c-5.4-13.1-10.9-26.2-16.5-39.7c1.9-0.1,3.5-0.2,5.1-0.2c1.6,0,3.3,0,5.4,0
		C63.1,28.1,68.4,41.5,74.1,55z"/>
	<path class="st1" d="M154.1,55c-3,0-5.7,0-8.7,0c0-13.2,0-26.3,0-39.8c2.7-0.2,5.6,0,8.7-0.1C154.1,28.3,154.1,41.4,154.1,55z"/>
	<path class="st1" d="M40,54.9c-3.6,0-7,0-10.7,0c3.1-7.6,6.2-15.1,9.3-22.7c3.5,0,7,0,10.9,0C46.2,40,43.1,47.5,40,54.9z"/>
	<path class="st1" d="M232.1,54.9c-3.8,0-7.2,0-10.8,0c3.7-7.6,6.1-15.5,9.9-22.8c3.4,0,6.5,0,10.1,0c-1.5,4-2.8,7.8-4.4,11.6
		C235.5,47.6,233.7,51.3,232.1,54.9z"/>
	<path class="st1" d="M80.9,15.2c4.6,0,8.7,0,11.9,0c4.3,4.3,8.2,8.2,12.3,12.3c-2.1,1.2-4.3,2.9-5.5,5.9c-3.6-2.6-6.3-5.9-9.3-8.9
		C87.2,21.6,84.2,18.5,80.9,15.2z"/>
	<path class="st1" d="M120.6,15.2c4.1,0,8.2,0,12,0c-5.8,5.8-11.7,11.7-17.5,17.5c-1.7-1.9-3.7-4-5.7-6.2
		C113.1,22.7,116.9,18.9,120.6,15.2z"/>
	<path class="st1" d="M120.6,54.9c-3.6-3.6-7.4-7.4-11.2-11.2c1.9-2.2,3.9-4.4,5.6-6.3c5.9,5.9,11.8,11.8,17.5,17.5
		C129,54.9,124.9,54.9,120.6,54.9z"/>
	<path class="st1" d="M82.1,54.9c0.2-0.9,0.1-1.3,0.3-1.5c5.5-5.5,11-11,16.5-16.5c2.1,2.3,4.1,4.5,6.1,6.7
		c-3.8,3.8-7.6,7.6-11.4,11.4C89.9,54.9,86.2,54.9,82.1,54.9z"/>
</g>
</svg>
