<?xml version="1.0" encoding="utf-8"?>
<!-- Generator: Adobe Illustrator 27.2.0, SVG Export Plug-In . SVG Version: 6.00 Build 0)  -->
<svg version="1.1" id="Слой_1" xmlns="http://www.w3.org/2000/svg" xmlns:xlink="http://www.w3.org/1999/xlink" x="0px" y="0px"
	 viewBox="0 0 974.5 150.8" style="enable-background:new 0 0 974.5 150.8;" xml:space="preserve">
<polygon points="22.1,75.4 65.3,113.1 130.6,37.7 130.6,150.8 195.9,150.8 195.9,0 130.6,0 83.9,57.3 33,0 0,0 0,150.8 22.2,150.8 
	"/>
<path d="M237.5,150.8l8-15.7h62.7l7.1,15.7h64.2L293.6,0l-79.2,150.8H237.5z M278.3,68.6l20,44.5h-41.7L278.3,68.6z"/>
<rect x="389.7" width="65.1" height="150.8"/>
<path d="M952.6,0l-0.1,113.1c0,17.3-24.6,14.2-41.8,14.5c-18.1,0.3-44-0.1-44-14.5L866.1,0h-64.6v129c0,11.2,11.4,15.7,22.2,20
	c9.6,3.8,16.1,1.8,26.5,1.8h92.3c9.7,0,16-2.7,22.9-9.6c5.4-5.4,9.2-9.7,9.2-17.4l0-123.8H952.6z"/>
<polygon points="620.3,78.1 505.4,0 476.8,0 476.8,150.8 498.3,150.8 498.3,64.9 618.8,150.8 639.8,150.8 639.8,0 620.4,0 "/>
<polygon points="779.9,150.8 779.7,129 736.6,129 780.2,21.7 780.2,0 661.1,0 661.1,22 712.2,22 654.8,150.8 "/>
</svg>
