<?xml version="1.0" encoding="utf-8"?>
<!-- Generator: Adobe Illustrator 26.0.3, SVG Export Plug-In . SVG Version: 6.00 Build 0)  -->
<svg version="1.1" id="Слой_1" xmlns="http://www.w3.org/2000/svg" xmlns:xlink="http://www.w3.org/1999/xlink" x="0px" y="0px"
	 viewBox="0 0 186.2 37.3" style="enable-background:new 0 0 186.2 37.3;" xml:space="preserve">
<style type="text/css">
	.st0{fill:#FFFFFF;}
</style>
<g id="Слой_2_00000179644443855027497230000008548790692519246730_">
	<path class="st0" d="M15.3,21.2L15.3,21.2c0-0.7-0.3-1.4-0.8-1.8c-0.9-0.6-1.9-1.1-2.9-1.4c-1.2-0.4-2.4-0.8-3.5-1.3l0,0
		c-2.9-1.5-4.3-3.5-4.3-5.9l0,0c0-1.2,0.4-2.3,1.1-3.3c0.8-1,1.9-1.8,3.1-2.2c1.4-0.5,2.9-0.8,4.5-0.8l0,0c1.5,0,3,0.3,4.3,0.9
		c1.2,0.5,2.3,1.4,3,2.5s1.1,2.4,1.1,3.6h-5.4c0-0.8-0.3-1.6-0.8-2.1c-0.6-0.5-1.4-0.8-2.3-0.8l0,0c-0.8,0-1.6,0.2-2.3,0.7
		c-0.5,0.4-0.9,1-0.8,1.6l0,0c0,0.6,0.4,1.2,0.9,1.6c1,0.6,2.1,1.1,3.2,1.4c1.3,0.4,2.6,0.9,3.8,1.6l0,0c2.2,1.1,3.6,3.3,3.6,5.8
		l0,0c0.1,1.8-0.8,3.6-2.2,4.6c-1.8,1.2-3.9,1.8-6.1,1.7l0,0c-1.7,0-3.4-0.3-4.9-1C6.1,25.9,5,25,4.1,23.8C3.4,22.6,3,21.3,3,19.9
		h5.4c-0.1,1,0.3,2,0.9,2.7c0.9,0.6,1.9,0.9,3,0.9l0,0c0.8,0,1.5-0.2,2.1-0.6S15.3,21.8,15.3,21.2z M38.7,18.7v0.2
		c0.1,2.2-0.5,4.4-1.7,6.2c-1.1,1.5-2.9,2.4-4.7,2.3l0,0c-1.4,0-2.8-0.6-3.8-1.7l0,0v7.8h-5.2v-23h4.9l0.2,1.5
		c0.9-1.2,2.4-1.9,3.9-1.8l0,0c1.9-0.1,3.6,0.8,4.8,2.3C38.2,14.3,38.8,16.5,38.7,18.7L38.7,18.7z M33.5,19.2v-0.5
		c0-3-0.9-4.4-2.6-4.4l0,0c-1-0.1-2,0.4-2.5,1.3l0,0v6.6c0.5,0.9,1.5,1.5,2.5,1.4l0,0C32.7,23.5,33.5,22,33.5,19.2L33.5,19.2z
		 M49.7,22.5L49.7,22.5c0-0.5-0.3-0.9-0.7-1.1c-0.8-0.4-1.7-0.7-2.6-0.8c-1.1-0.2-2.2-0.6-3.2-1.1c-0.8-0.4-1.4-1-1.9-1.7
		c-0.4-0.7-0.7-1.5-0.7-2.3l0,0c0-1.5,0.7-2.9,1.9-3.8c1.4-1.1,3.2-1.6,5-1.5l0,0c1.9-0.1,3.7,0.4,5.3,1.5c1.3,0.9,2,2.4,2,3.9h-5.2
		c0-1.3-0.7-2-2.1-2l0,0c-0.5,0-1,0.1-1.4,0.4c-0.4,0.3-0.6,0.7-0.5,1.1l0,0c0,0.5,0.3,0.9,0.7,1.1c0.7,0.4,1.4,0.6,2.2,0.7
		c0.9,0.2,1.8,0.4,2.6,0.7l0,0c2.5,0.9,3.8,2.4,3.8,4.6l0,0c0,1.5-0.7,2.9-2,3.7c-1.6,1-3.4,1.5-5.2,1.4l0,0c-1.3,0-2.6-0.2-3.8-0.8
		c-1.1-0.4-2-1.1-2.7-2c-0.6-0.8-0.9-1.8-1-2.8h5c0,0.7,0.3,1.3,0.8,1.7c0.6,0.4,1.2,0.6,1.9,0.5l0,0c0.6,0,1.1-0.1,1.6-0.5
		C49.6,23.4,49.8,22.9,49.7,22.5z M67.4,15.5v4h-9.3v-4H67.4z M77,4.7V23h9.4v4.2H71.6V4.7H77z M87.9,19.6v-0.9c0-1.5,0.3-3.1,1-4.5
		c0.6-1.3,1.6-2.3,2.8-3c1.3-0.7,2.8-1,4.3-1l0,0c2.2-0.1,4.4,0.7,5.9,2.3c1.5,1.7,2.3,4,2.2,6.3l0,0V19c0.1,2.3-0.7,4.5-2.2,6.2
		c-1.5,1.6-3.7,2.4-5.9,2.3l0,0c-2.1,0.1-4.2-0.7-5.7-2.1C88.8,23.8,87.9,21.7,87.9,19.6L87.9,19.6z M93.1,18.1V19
		c-0.1,1.2,0.2,2.4,0.7,3.4c0.5,0.7,1.3,1.1,2.1,1.1l0,0c1.9,0,2.8-1.4,2.8-4.3l0,0v-0.5c0-3-1-4.5-2.9-4.5l0,0
		C94.2,14.2,93.2,15.5,93.1,18.1L93.1,18.1z M105.6,18.9v-0.2c0-1.5,0.2-3.1,0.8-4.5c0.5-1.2,1.3-2.3,2.4-3s2.3-1.1,3.6-1.1l0,0
		c1.6-0.1,3.1,0.6,4.1,1.8l0,0l0.2-1.4h4.7v16.1c0,1.3-0.3,2.7-1,3.8c-0.7,1.1-1.8,2-3,2.5c-1.4,0.6-3,0.9-4.5,0.9l0,0
		c-1.2,0-2.4-0.2-3.6-0.7c-1-0.4-1.9-1-2.6-1.8l0,0l2.2-3.1c0.9,1.1,2.4,1.8,3.8,1.7l0,0c2.3,0,3.4-1.2,3.4-3.5l0,0v-0.5
		c-1,1.1-2.3,1.7-3.8,1.7l0,0c-1.9,0.1-3.7-0.8-4.9-2.3C106.2,23.4,105.5,21.1,105.6,18.9L105.6,18.9z M110.9,19L110.9,19
		c-0.1,1.1,0.2,2.3,0.8,3.3c0.4,0.8,1.3,1.2,2.2,1.2l0,0c1,0.1,1.9-0.4,2.4-1.1l0,0v-7c-0.5-0.8-1.5-1.2-2.4-1.1l0,0
		c-0.9,0-1.7,0.5-2.2,1.2C111.1,16.5,110.8,17.8,110.9,19z M129.9,10.5v16.7h-5.2V10.5H129.9z M124.3,6.2L124.3,6.2
		c0-0.7,0.3-1.4,0.8-1.8c0.6-0.5,1.3-0.8,2.1-0.7c0.8,0,1.5,0.2,2.1,0.7c0.5,0.5,0.8,1.1,0.8,1.8s-0.3,1.4-0.8,1.8
		c-0.6,0.5-1.3,0.7-2.1,0.7c-0.8,0-1.5-0.2-2.1-0.7C124.6,7.6,124.3,6.9,124.3,6.2L124.3,6.2z M141.8,22.5L141.8,22.5
		c0-0.5-0.3-0.9-0.7-1.1c-0.8-0.4-1.7-0.7-2.6-0.8c-1.1-0.2-2.2-0.6-3.2-1.1c-0.8-0.4-1.4-1-1.9-1.7c-0.4-0.7-0.7-1.5-0.7-2.3l0,0
		c0-1.5,0.7-2.9,1.9-3.8c1.4-1.1,3.2-1.6,5-1.5l0,0c1.9-0.1,3.7,0.4,5.3,1.5c1.3,0.9,2,2.4,2,3.9h-5.2c0-1.3-0.7-2-2.1-2l0,0
		c-0.5,0-1,0.1-1.4,0.4c-0.3,0.3-0.6,0.7-0.6,1.1l0,0c0,0.5,0.3,0.9,0.7,1.1c0.7,0.4,1.4,0.6,2.2,0.7c0.9,0.2,1.8,0.4,2.6,0.7l0,0
		c2.5,0.9,3.8,2.4,3.8,4.6l0,0c0,1.5-0.7,2.9-2,3.7c-1.6,1-3.4,1.5-5.2,1.4l0,0c-1.3,0-2.6-0.2-3.8-0.8c-1-0.4-2-1.2-2.6-2.1
		c-0.6-0.8-1-1.8-1-2.8h4.9c0,0.7,0.3,1.3,0.8,1.7c0.6,0.4,1.2,0.6,1.9,0.5l0,0c0.6,0,1.1-0.1,1.6-0.5
		C141.6,23.3,141.8,22.9,141.8,22.5L141.8,22.5z M150.1,6.3h5.2v4.1h2.8V14h-2.8v7.6c0,0.5,0.1,0.9,0.3,1.3c0.4,0.3,0.9,0.4,1.4,0.4
		l0,0c0.4,0,0.9,0,1.3-0.1l0,0V27c-0.9,0.3-1.9,0.5-2.9,0.5l0,0c-1.5,0.1-2.9-0.3-4-1.3c-0.9-1.1-1.4-2.4-1.3-3.8l0,0v-8.3h-2v-3.6
		h2.1L150.1,6.3z M165.5,10.5v16.7h-5.2V10.5H165.5z M160,6.2L160,6.2c0-0.7,0.3-1.4,0.8-1.8c1.2-0.9,2.9-0.9,4.1,0
		c0.5,0.5,0.8,1.1,0.8,1.8s-0.3,1.4-0.8,1.8c-0.6,0.5-1.3,0.7-2.1,0.7s-1.5-0.2-2.1-0.7C160.3,7.5,160.1,6.9,160,6.2L160,6.2z
		 M175.8,23.5L175.8,23.5c0.6,0,1.2-0.2,1.7-0.6c0.4-0.4,0.6-1.1,0.6-1.7h4.9c0,1.7-0.7,3.4-2,4.5c-1.4,1.2-3.2,1.8-5,1.8l0,0
		c-2.2,0.1-4.3-0.7-5.8-2.3c-1.5-1.8-2.2-4-2.1-6.3l0,0v-0.2c0-1.5,0.3-3.1,0.9-4.5c0.6-1.2,1.5-2.3,2.7-3c1.3-0.7,2.7-1,4.2-1l0,0
		c1.9-0.1,3.7,0.5,5.2,1.8c1.3,1.3,2,3.1,1.9,4.9h-4.9c0.1-0.7-0.2-1.4-0.6-2c-0.4-0.5-1.1-0.7-1.7-0.7l0,0c-1.3,0-2.1,0.9-2.4,2.6
		l0,0c-0.1,0.7-0.1,1.5-0.1,2.2l0,0c-0.1,1.2,0.1,2.4,0.6,3.5C174.4,23.1,175.1,23.5,175.8,23.5L175.8,23.5z"/>
</g>
</svg>
