<?xml version="1.0" encoding="utf-8"?>
<!-- Generator: Adobe Illustrator 27.2.0, SVG Export Plug-In . SVG Version: 6.00 Build 0)  -->
<svg version="1.1" id="layer" xmlns="http://www.w3.org/2000/svg" xmlns:xlink="http://www.w3.org/1999/xlink" x="0px" y="0px"
	 viewBox="0 0 600 75" style="enable-background:new 0 0 600 75;" xml:space="preserve">
<style type="text/css">
	.st0{fill:#1D1D1B;}
</style>
<path class="st0" d="M395.9,44.8h72.7c9.7,0,14.5-4.8,14.5-14.5V15.8c0-9.7-4.8-14.5-14.5-14.5h-87.2V74h14.5V44.8z M395.9,15.6
	h72.7v14.5h-72.7V15.6z M335.5,59.2c0,9.7-4.8,14.5-14.5,14.5h-72.7c-9.7,0-14.5-4.8-14.5-14.5V1h14.5v58.1H321V1h14.5V59.2
	 M351.1,1h14.5v72.7h-14.5V1z M0,1h101.8L87.3,15.5H14.6V30h87.2L87.3,44.5H14.6V59h87.2L87.3,73.5H14.6H0.1 M130.8,59.2V15.6h72.7
	v43.6l0,0l-15.8-15.8h-20.6l15.8,15.8 M203.5,73.8V59.2L218,73.8V59.2V15.6c0-9.7-4.8-14.5-14.5-14.5h-72.7
	c-9.7,0-14.5,4.8-14.5,14.5v43.6c0,9.7,4.8,14.5,14.5,14.5 M498.2,1H600l-14.5,14.5h-72.7V30H600l-14.5,14.5h-72.7V59H600
	l-14.5,14.5h-72.7h-14.5"/>
</svg>
