<?xml version="1.0" encoding="utf-8"?>
<!-- Generator: Adobe Illustrator 27.2.0, SVG Export Plug-In . SVG Version: 6.00 Build 0)  -->
<svg version="1.1" id="layer" xmlns="http://www.w3.org/2000/svg" xmlns:xlink="http://www.w3.org/1999/xlink" x="0px" y="0px"
	 viewBox="0 0 600 103" style="enable-background:new 0 0 600 103;" xml:space="preserve">
<path d="M62,35.2c-2.7,4.2-5.2,8.5-7.4,12.9h-0.3c-2.4-4.2-5-8.3-7.8-12.2L21.2,0.1H0v102.7h23.3V49.6c0-2.8,0-6.9-0.2-10.3h0.3
	c2.1,3.5,4.3,6.8,6.8,10l18.9,26.2h10.3L76,50.2c1.7-2.6,5.8-8.8,6.7-10.9h0.2c-0.2,3.1-0.2,7.4-0.2,11v52.4H106V0.1H84.7L62,35.2z"
	/>
<path d="M151.4,0l-39.5,102.8h22.9l9.2-24.4h32.7l9.6,24.4h25.2L169.8,0H151.4z M150.5,59.6l6.1-16.5c1.5-4,2.8-8.1,3.7-12.3h0.2
	c0.9,4.3,2.1,8.5,3.7,12.5l5.5,16.1L150.5,59.6L150.5,59.6z"/>
<path d="M335.2,0l-38.4,99.6c-13.9-24.3-22.6-40-27.9-43.1v-0.2c8.9-4.2,17.9-13.3,17.9-26.3c0-16-9.8-29.9-37.5-29.9h-31.6v102.7
	h23.5V64.3h7.1c3.4,1.4,8.8,11.7,24,38.5h46.4l9.2-24.4h32.6l9.6,24.4h25.2L353.5,0H335.2z M249.7,47.4h-8.6V19.7h8.8
	c8.4,0,14,5.6,14,13.1C263.8,41.2,257.8,47.4,249.7,47.4 M334.2,59.6l6.1-16.5c1.5-4,2.8-8.1,3.7-12.3h0.2c0.9,4.3,2.1,8.5,3.7,12.5
	l5.5,16.1L334.2,59.6L334.2,59.6z"/>
<polygon points="399,0.1 404.4,18.9 446.1,18.5 395.4,103 481.4,103 481.4,83.7 433.1,84.2 482.4,0.1 "/>
<polygon points="486,0.1 491.6,18.9 533.3,18.5 482.5,103 568.6,103 568.6,83.7 520.3,84.2 569.4,0.1 "/>
<rect x="576.5" y="0.1" width="23.5" height="102.7"/>
</svg>
