<svg xmlns="http://www.w3.org/2000/svg" viewBox="0 0 179.99 30.08"><defs><style>.cls-1{fill:#fff;}</style></defs><g id="Слой_2" data-name="Слой 2"><g id="Слой_1-2" data-name="Слой 1"><path class="cls-1" d="M12.28,17.54h0a2.2,2.2,0,0,0-.83-1.84A10.62,10.62,0,0,0,8.5,14.32,27.35,27.35,0,0,1,5,13H5C2.12,11.52.66,9.55.66,7.06h0A5.31,5.31,0,0,1,1.75,3.77,7,7,0,0,1,4.83,1.55,12,12,0,0,1,9.3.76h0a10.51,10.51,0,0,1,4.34.85,6.89,6.89,0,0,1,3,2.46A6.44,6.44,0,0,1,17.7,7.72H12.3a2.74,2.74,0,0,0-.84-2.13,3.25,3.25,0,0,0-2.27-.76h0a3.67,3.67,0,0,0-2.29.65,1.93,1.93,0,0,0-.85,1.63h0A2,2,0,0,0,7,8.67a11.7,11.7,0,0,0,3.25,1.45,19.84,19.84,0,0,1,3.82,1.61h0a6.42,6.42,0,0,1,3.65,5.78h0a5.46,5.46,0,0,1-2.23,4.63,9.88,9.88,0,0,1-6.09,1.69h0a12.1,12.1,0,0,1-4.94-1,7.36,7.36,0,0,1-3.33-2.69A7,7,0,0,1,0,16.23H5.42a3.49,3.49,0,0,0,.93,2.67,4.41,4.41,0,0,0,3,.85h0a3.52,3.52,0,0,0,2.13-.58A1.91,1.91,0,0,0,12.28,17.54Zm23.44-2.49v.23A10.08,10.08,0,0,1,34,21.51a5.59,5.59,0,0,1-4.72,2.32h0a4.83,4.83,0,0,1-3.77-1.69h0v7.78h-5.2V6.82h4.85l.16,1.55a4.83,4.83,0,0,1,3.93-1.85h0A5.68,5.68,0,0,1,34,8.8a10.18,10.18,0,0,1,1.71,6.25Zm-5.2.47V15q0-4.44-2.59-4.44h0a2.43,2.43,0,0,0-2.46,1.33h0v6.57A2.52,2.52,0,0,0,28,19.82h0q2.49,0,2.56-4.3Zm16.22,3.3h0a1.19,1.19,0,0,0-.7-1.06,9.74,9.74,0,0,0-2.62-.83,12,12,0,0,1-3.22-1.14,5.19,5.19,0,0,1-1.92-1.71,4,4,0,0,1-.67-2.28h0A4.59,4.59,0,0,1,39.51,8a7.86,7.86,0,0,1,5-1.49h0A8.66,8.66,0,0,1,49.79,8a4.67,4.67,0,0,1,2,3.93H46.58c0-1.33-.7-2-2.11-2h0a2.17,2.17,0,0,0-1.38.44,1.41,1.41,0,0,0-.55,1.14h0a1.3,1.3,0,0,0,.68,1.12,6.21,6.21,0,0,0,2.16.71A21.23,21.23,0,0,1,48,14h0q3.77,1.29,3.76,4.64h0a4.38,4.38,0,0,1-2,3.73,8.8,8.8,0,0,1-5.24,1.44h0a9,9,0,0,1-3.82-.78A6.21,6.21,0,0,1,38,21a4.72,4.72,0,0,1-.95-2.79H42a2,2,0,0,0,.78,1.69,3.07,3.07,0,0,0,1.89.54h0a2.44,2.44,0,0,0,1.6-.45A1.35,1.35,0,0,0,46.74,18.82Zm17.61-7v4H55.08v-4ZM74,1.06V19.34h9.43v4.17H68.62V1.06ZM84.87,15.9V15a10,10,0,0,1,1-4.46,7.06,7.06,0,0,1,2.8-3,8.46,8.46,0,0,1,4.26-1h0a7.67,7.67,0,0,1,5.9,2.32A8.89,8.89,0,0,1,101,15.16h0v.17a8.69,8.69,0,0,1-2.17,6.21,7.71,7.71,0,0,1-5.87,2.29h0a7.79,7.79,0,0,1-5.72-2.15,8.31,8.31,0,0,1-2.32-5.78Zm5.2-1.5,0,.93a6.15,6.15,0,0,0,.73,3.4,2.38,2.38,0,0,0,2.13,1.09h0q2.78,0,2.84-4.28h0V15q0-4.48-2.87-4.49h0q-2.61,0-2.81,3.87Zm12.57.84v-.19a11.32,11.32,0,0,1,.82-4.47,6.7,6.7,0,0,1,2.4-3,6.21,6.21,0,0,1,3.61-1.06h0a5.06,5.06,0,0,1,4.08,1.75h0l.19-1.45h4.7V22.88a7.1,7.1,0,0,1-1,3.84,6.55,6.55,0,0,1-3,2.49,11,11,0,0,1-4.51.87h0a9.52,9.52,0,0,1-3.56-.69,6.54,6.54,0,0,1-2.62-1.8h0l2.17-3.07a4.75,4.75,0,0,0,3.83,1.72h0q3.45,0,3.45-3.55h0v-.52a4.87,4.87,0,0,1-3.78,1.66h0a6,6,0,0,1-4.92-2.34,9.64,9.64,0,0,1-1.88-6.25Zm5.21.12h0a6,6,0,0,0,.76,3.26,2.42,2.42,0,0,0,2.16,1.2h0a2.73,2.73,0,0,0,2.45-1.14h0v-7a2.68,2.68,0,0,0-2.42-1.14h0a2.46,2.46,0,0,0-2.18,1.23A7,7,0,0,0,107.85,15.36Zm19-8.54V23.51h-5.21V6.82Zm-5.53-4.29h0a2.31,2.31,0,0,1,.81-1.82A3.05,3.05,0,0,1,124.25,0a3,3,0,0,1,2.07.71,2.31,2.31,0,0,1,.81,1.82,2.3,2.3,0,0,1-.81,1.81,2.93,2.93,0,0,1-2.07.71,3,3,0,0,1-2.08-.71A2.3,2.3,0,0,1,121.36,2.53Zm17.45,16.29h0a1.19,1.19,0,0,0-.68-1.06,10.11,10.11,0,0,0-2.63-.83,12.14,12.14,0,0,1-3.22-1.14,5.15,5.15,0,0,1-1.93-1.71,4,4,0,0,1-.66-2.28h0A4.61,4.61,0,0,1,131.58,8a7.86,7.86,0,0,1,5-1.49h0A8.66,8.66,0,0,1,141.86,8a4.65,4.65,0,0,1,2,3.93h-5.22c0-1.33-.7-2-2.11-2h0a2.17,2.17,0,0,0-1.38.44,1.44,1.44,0,0,0-.55,1.14h0a1.3,1.3,0,0,0,.68,1.12,6.21,6.21,0,0,0,2.16.71,21.42,21.42,0,0,1,2.63.66h0q3.75,1.29,3.75,4.64h0a4.39,4.39,0,0,1-2,3.73,8.86,8.86,0,0,1-5.25,1.44h0a9,9,0,0,1-3.82-.78,6.28,6.28,0,0,1-2.62-2.1,4.72,4.72,0,0,1-1-2.79H134a2,2,0,0,0,.77,1.69,3.12,3.12,0,0,0,1.9.54h0a2.43,2.43,0,0,0,1.59-.45A1.35,1.35,0,0,0,138.81,18.82Zm8.31-16.14h5.19V6.82h2.75v3.62h-2.75v7.62a2,2,0,0,0,.33,1.31,1.8,1.8,0,0,0,1.35.38h0a7.8,7.8,0,0,0,1.29-.09h0v3.71a9.4,9.4,0,0,1-2.92.46h0a5.4,5.4,0,0,1-4-1.28,5.15,5.15,0,0,1-1.28-3.84h0V10.44H145V6.82h2.13Zm15.46,4.14V23.51h-5.21V6.82Zm-5.51-4.29h0a2.3,2.3,0,0,1,.8-1.82,3.39,3.39,0,0,1,4.15,0,2.31,2.31,0,0,1,.81,1.82A2.3,2.3,0,0,1,162,4.34a3,3,0,0,1-2.08.71,3,3,0,0,1-2.07-.71A2.29,2.29,0,0,1,157.07,2.53Zm15.77,17.29h0a2.28,2.28,0,0,0,1.69-.6,2.2,2.2,0,0,0,.58-1.66H180a5.73,5.73,0,0,1-2,4.5A7.25,7.25,0,0,1,173,23.83h0a7.44,7.44,0,0,1-5.75-2.29,9,9,0,0,1-2.09-6.32h0V15a10.27,10.27,0,0,1,.94-4.47,6.84,6.84,0,0,1,2.68-3,8.06,8.06,0,0,1,4.17-1h0a7.21,7.21,0,0,1,5.16,1.8,6.38,6.38,0,0,1,1.91,4.9h-4.88a2.85,2.85,0,0,0-.63-2,2.15,2.15,0,0,0-1.69-.7h0q-2,0-2.37,2.58h0a21.53,21.53,0,0,0-.09,2.24h0a7.14,7.14,0,0,0,.6,3.49A2.08,2.08,0,0,0,172.84,19.82Z"/></g></g></svg>